<?xml version="1.0" encoding="UTF-8"?>
<svg version="1.1" xmlns="http://www.w3.org/2000/svg" width="860" height="591">
<path d="M0 0 C1.8501289 0.12564966 3.70039691 0.24926364 5.55078125 0.37109375 C6.51580566 0.43796387 7.48083008 0.50483398 8.47509766 0.57373047 C11.6032914 0.75601908 14.72273246 0.84565733 17.85546875 0.91015625 C19.43908203 0.94931152 19.43908203 0.94931152 21.0546875 0.98925781 C23.08697712 1.03677082 25.11960477 1.07201754 27.15234375 1.09277344 C34.00194147 1.29161763 39.32188652 2.83381677 45.5 5.75 C50.96355167 8.25447562 56.25247575 10.32570464 62.0390625 11.97265625 C65.18167454 12.96532259 68.08158144 14.31629346 71.0625 15.7109375 C74.90824551 17.35030979 78.89840471 18.51851201 82.8984375 19.72265625 C85.5 20.75 85.5 20.75 86.984375 22.24609375 C89.16074155 24.40563272 91.45970889 24.87759368 94.375 25.75 C103.92489043 28.6221475 103.92489043 28.6221475 106.98046875 32.75 C108.9282912 35.31371489 110.95443409 36.29527212 113.8125 37.75 C115.71940662 38.72871916 117.61500992 39.72970767 119.5 40.75 C120.57507813 41.30429688 121.65015625 41.85859375 122.7578125 42.4296875 C126.37737897 45.49239759 126.62502824 48.38790431 127.0625 52.875 C127.34560241 55.65678885 127.78168477 58.01499221 128.5 60.75 C130.75879644 62.29418621 130.75879644 62.29418621 133.5 62.75 C134.64662109 63.11931641 134.64662109 63.11931641 135.81640625 63.49609375 C137.31545183 63.95753908 138.81546037 64.41586753 140.31640625 64.87109375 C142.89008778 65.90701208 144.54314422 66.75888853 146.5 68.75 C147.1875 71.7890625 147.1875 71.7890625 147.5 75.375 C148.12282091 80.73787381 149.10527944 84.89317896 151.50390625 89.69921875 C152.49262851 91.73482339 153.19853218 93.71750795 153.875 95.875 C155.24554347 100.12143798 156.80992734 104.28399939 158.4375 108.4375 C158.67839355 109.06736816 158.91928711 109.69723633 159.16748047 110.34619141 C160.37081397 113.38051076 161.63655328 115.942225 163.53125 118.609375 C166.08426012 122.682034 166.99484148 126.66441087 168.0625 131.3125 C169.80816532 138.92135605 169.80816532 138.92135605 173.5 145.75 C176.97266339 150.6880069 178.84932919 154.14598284 179.18041992 160.22900391 C179.52837901 162.97386682 180.27905444 165.18972718 181.2734375 167.76953125 C182.78330878 171.78834954 184.20696532 175.81579084 185.53515625 179.8984375 C185.86966797 180.92324219 186.20417969 181.94804687 186.54882812 183.00390625 C187.2318687 185.10698686 187.91148734 187.21118155 188.58789062 189.31640625 C188.92111328 190.33347656 189.25433594 191.35054687 189.59765625 192.3984375 C190.03863647 193.76234619 190.03863647 193.76234619 190.48852539 195.15380859 C191.55821541 197.89942377 192.98182352 200.2321404 194.5 202.75 C194.5 203.41 194.5 204.07 194.5 204.75 C195.3971875 205.1521875 195.3971875 205.1521875 196.3125 205.5625 C198.61886634 206.81452744 199.93878252 207.64074452 201.5 209.75 C201.3984375 212.39453125 201.3984375 212.39453125 200.875 215.5625 C200.23863905 222.10486257 201.40768798 226.31772938 203.8359375 232.34765625 C206.14797246 238.20433867 207.80527957 244.27187478 209.5625 250.3125 C210.21971045 252.56390184 210.8772569 254.81520562 211.53515625 257.06640625 C211.85766357 258.17113281 212.1801709 259.27585937 212.51245117 260.4140625 C213.50128689 263.75434711 214.52279027 267.08294442 215.5546875 270.41015625 C217.59645423 277.00743762 219.46911979 283.64590808 221.29882812 290.3046875 C222.37360712 294.13626036 223.45678087 297.82160143 225.12109375 301.44140625 C226.60123639 304.99290999 227.10120573 307.99487569 227.5 311.8125 C228.24423592 318.10749553 229.39488917 324.17318013 230.78125 330.36328125 C231.69200188 334.65470449 232.34046326 338.96036701 232.96875 343.30078125 C233.45066709 346.42969886 234.01519352 349.53390946 234.60595703 352.64379883 C236.5987495 363.29548446 237.76641189 373.94135311 238.5 384.75 C238.58056641 385.91402344 238.66113281 387.07804687 238.74414062 388.27734375 C239.80939182 404.92297618 239.39669829 420.43727241 236.41015625 436.859375 C235.54594256 441.73761274 235.37609377 446.3301944 235.6105957 451.27392578 C235.42286726 455.47688807 233.74602098 459.22522255 231.5 462.75 C230.51 463.245 230.51 463.245 229.5 463.75 C229.12601321 467.30476332 228.85660096 470.83280124 228.72851562 474.40429688 C228.29111562 479.99436503 228.29111562 479.99436503 225.99755859 482.18505859 C222.65406027 484.20971771 220.41994016 484.75 216.5 484.75 C216.17 486.07 215.84 487.39 215.5 488.75 C213.19 489.41 210.88 490.07 208.5 490.75 C208.561875 492.3278125 208.561875 492.3278125 208.625 493.9375 C208.43443779 499.74964751 208.43443779 499.74964751 206.5 502.75 C203.6963647 503.83260341 200.8450883 504.1840066 197.875 504.5625 C197.07320312 504.68302734 196.27140625 504.80355469 195.4453125 504.92773438 C193.46646763 505.22220534 191.48350918 505.48878841 189.5 505.75 C189.40203125 506.44867187 189.3040625 507.14734375 189.203125 507.8671875 C188.97882813 509.23230469 188.97882813 509.23230469 188.75 510.625 C188.61078125 511.52992188 188.4715625 512.43484375 188.328125 513.3671875 C187.5 515.75 187.5 515.75 185.53125 517.03125 C184.52578125 517.38703125 184.52578125 517.38703125 183.5 517.75 C182.9225 517.95625 182.345 518.1625 181.75 518.375 C173.93487554 519.67752074 167.69368358 517.90119929 160.3125 515.4375 C158.85553711 514.9744043 158.85553711 514.9744043 157.36914062 514.50195312 C148.18067471 511.51050603 148.18067471 511.51050603 144.5 508.75 C143.6875 506.5625 143.6875 506.5625 143.5 504.75 C142.81679688 504.69972656 142.13359375 504.64945313 141.4296875 504.59765625 C137.30709027 503.40485145 134.79255838 501.0068062 131.625 498.1875 C131.00512207 497.64754395 130.38524414 497.10758789 129.74658203 496.55126953 C125.79430777 493.05650663 122.18306432 489.44127699 118.9296875 485.2734375 C117.27757242 483.512987 115.66860539 482.77633008 113.5 481.75 C111.79006566 480.1277546 110.12652316 478.45586575 108.5 476.75 C107.695625 475.96625 106.89125 475.1825 106.0625 474.375 C104.15044581 472.41631034 102.42394476 470.47750609 100.6875 468.375 C98.51913011 465.80282654 96.25863812 463.60562242 93.6875 461.4375 C88.81495292 457.30236905 84.71895138 452.53420894 80.5 447.75 C76.49942164 443.32830813 71.93478643 440.14952612 67.0234375 436.8125 C64.37514477 434.64795114 63.14619545 432.71123204 61.5 429.75 C58.62088591 427.12680716 55.94732004 425.02228176 52.625 423 C49.72922586 420.91504262 47.95119473 419.02445111 45.6875 416.3125 C41.85128482 411.81589188 37.83491541 409.20751891 32.5 406.75 C32.5 405.76 32.5 404.77 32.5 403.75 C31.2625 403.5025 30.025 403.255 28.75 403 C25.75534575 402.2735481 24.72475124 401.98925132 22.5625 399.6875 C19.72398044 397.02101193 17.31412662 397.18715497 13.5234375 397.0234375 C11.5 396.75 11.5 396.75 9.5 394.75 C8.489375 394.853125 7.47875 394.95625 6.4375 395.0625 C1.47663322 394.66878041 -0.32725186 392.86274298 -3.8984375 389.57421875 C-10.93440545 384.64058957 -18.71148373 384.29068413 -27.05712891 384.24267578 C-28.18078732 384.22501537 -29.30444572 384.20735497 -30.46215439 384.18915939 C-34.17525872 384.13504855 -37.88820593 384.10222252 -41.6015625 384.0703125 C-44.23622657 384.03778394 -46.87088034 384.00441187 -49.50552368 383.97024536 C-76.31724396 383.63984801 -103.13242927 383.59637116 -129.94580078 383.61962891 C-136.01528949 383.62489234 -142.08473556 383.62318378 -148.15422094 383.6178025 C-154.12319867 383.61272809 -160.0921662 383.61324564 -166.06114578 383.61618423 C-168.55782704 383.6168478 -171.05450917 383.61604516 -173.55118942 383.61370468 C-176.98515896 383.61117559 -180.41906275 383.6150151 -183.85302734 383.62060547 C-184.86444794 383.61858124 -185.87586853 383.61655701 -186.91793823 383.61447144 C-187.84924561 383.61729126 -188.78055298 383.62011108 -189.74008179 383.62301636 C-190.94560479 383.6235819 -190.94560479 383.6235819 -192.1754818 383.62415886 C-194.69435382 383.76052162 -197.03061647 384.24816 -199.5 384.75 C-202.26279532 384.79761616 -204.99736033 384.79566329 -207.7578125 384.7421875 C-209.36848341 384.72468268 -210.97916088 384.70777331 -212.58984375 384.69140625 C-215.11590807 384.66036626 -217.6416432 384.62469635 -220.16748047 384.57861328 C-222.61430023 384.53635305 -225.06072822 384.51286709 -227.5078125 384.4921875 C-228.26409943 384.47356659 -229.02038635 384.45494568 -229.79959106 384.4357605 C-233.93965591 384.3773459 -233.93965591 384.3773459 -237.49951172 386.26611328 C-237.82967285 386.7557959 -238.15983398 387.24547852 -238.5 387.75 C-239.49 387.09 -240.48 386.43 -241.5 385.75 C-243.84758732 385.54550612 -243.84758732 385.54550612 -246.375 385.6875 C-248.96369915 385.77853988 -251.20386282 385.81511917 -253.73828125 385.2578125 C-257.76338419 384.51769456 -261.73006062 384.6456123 -265.8125 384.6875 C-267.06643555 384.69426758 -267.06643555 384.69426758 -268.34570312 384.70117188 C-270.39716649 384.71289452 -272.44859273 384.73082797 -274.5 384.75 C-275.16 387.39 -275.82 390.03 -276.5 392.75 C-277.82 392.75 -279.14 392.75 -280.5 392.75 C-281.49 391.265 -281.49 391.265 -282.5 389.75 C-283.05042969 390.00394531 -283.60085938 390.25789063 -284.16796875 390.51953125 C-293.88467753 394.54179674 -304.14097203 395.49785736 -314.5 396.75 C-314.77714844 397.54535156 -315.05429687 398.34070313 -315.33984375 399.16015625 C-316.96042768 402.7778234 -318.91390503 403.11995683 -322.5 404.75 C-329.62984521 409.00588181 -329.62984521 409.00588181 -335.5 414.75 C-335.70625 415.74 -335.9125 416.73 -336.125 417.75 C-337.5 420.75 -337.5 420.75 -339.59765625 421.8125 C-341.35961862 422.45031443 -343.12544372 423.0775359 -344.89453125 423.6953125 C-350.0338913 425.77571312 -353.50675491 429.12769968 -356.375 433.8125 C-358.55415771 436.82486507 -359.47729446 437.39615779 -362.6875 438.9375 C-367.98519643 441.60823952 -370.99698342 445.57221845 -374.5546875 450.2265625 C-376.11685352 452.25298669 -377.55515961 454.09410733 -379.5 455.75 C-380.16 455.75 -380.82 455.75 -381.5 455.75 C-381.71914063 456.28753906 -381.93828125 456.82507813 -382.1640625 457.37890625 C-383.95805839 460.56298668 -386.3762216 463.05391908 -388.875 465.6875 C-391.57608735 468.55830808 -394.22018646 471.39543483 -396.6640625 474.4921875 C-399.41257899 477.872278 -402.78693536 479.98863794 -406.75 481.75 C-408.63864394 482.60598983 -408.63864394 482.60598983 -409.3203125 484.5078125 C-413.85223491 493.12146635 -423.55103855 499.45069236 -431.5 504.75 C-432.49 504.75 -433.48 504.75 -434.5 504.75 C-434.7784375 505.61625 -434.7784375 505.61625 -435.0625 506.5 C-437.64382419 510.54033352 -441.5420295 512.24170965 -446.04296875 513.41015625 C-447.74657869 513.74987167 -449.45496671 514.06682116 -451.16796875 514.35546875 C-453.45786388 514.70316036 -453.45786388 514.70316036 -455.484375 515.29296875 C-457.88866172 515.83812679 -460.09873103 515.88243218 -462.5625 515.875 C-463.84833984 515.87886719 -463.84833984 515.87886719 -465.16015625 515.8828125 C-467.5 515.75 -467.5 515.75 -470.5 514.75 C-470.5 514.09 -470.5 513.43 -470.5 512.75 C-471.2425 512.523125 -471.985 512.29625 -472.75 512.0625 C-475.5 510.75 -475.5 510.75 -477.19921875 508.2734375 C-480.15261363 505.03423021 -482.90409525 504.63593479 -487.0625 504.0625 C-494.1790393 502.9639738 -494.1790393 502.9639738 -497.5 500.75 C-497.9140625 498.83203125 -497.9140625 498.83203125 -498.125 496.5625 C-499.3257922 490.30837394 -503.52247785 488.18686053 -508.5 484.75 C-510.01941958 483.50244981 -511.5207916 482.23247486 -513 480.9375 C-513.6496875 480.37417969 -514.299375 479.81085938 -514.96875 479.23046875 C-517.75236513 476.53916739 -517.80342049 473.91282018 -518.3125 470.1875 C-518.94526805 466.16079424 -519.74049716 462.83150568 -521.5625 459.1875 C-523.60659923 454.99409055 -523.95604532 451.35489968 -524.23046875 446.734375 C-524.52261298 443.49961861 -525.15049213 440.47804208 -525.875 437.3125 C-527.20362556 431.35999442 -528.29725075 425.39928119 -529.25 419.375 C-529.38970215 418.54299072 -529.5294043 417.71098145 -529.67333984 416.85375977 C-529.79660645 416.04865967 -529.91987305 415.24355957 -530.046875 414.4140625 C-530.15870117 413.70717285 -530.27052734 413.0002832 -530.38574219 412.27197266 C-530.51591909 409.39862353 -530.15624991 406.68008051 -529.76315308 403.83676147 C-529.35716359 400.61733026 -529.24077618 397.39705809 -529.10546875 394.15625 C-529.03965135 392.71121732 -528.97279773 391.26623156 -528.9050293 389.82128906 C-528.87017426 389.07528442 -528.83531921 388.32927979 -528.79940796 387.56066895 C-527.81250592 367.18317384 -524.73583296 347.7589622 -520.2199707 327.86425781 C-518.67859238 320.96801704 -517.6763878 314.16082782 -517.0546875 307.125 C-516.42598844 303.29967613 -515.05850489 300.29240815 -513.5 296.75 C-512.70106124 294.02483452 -512.06518295 291.26903755 -511.4375 288.5 C-509.76816609 281.15224913 -509.76816609 281.15224913 -507.5 277.75 C-506.85384822 275.68081205 -506.27298977 273.59093042 -505.73046875 271.4921875 C-505.23691895 269.6054834 -505.23691895 269.6054834 -504.73339844 267.68066406 C-504.47713684 266.6863739 -504.47713684 266.6863739 -504.21569824 265.67199707 C-503.33251685 262.24928647 -502.42887559 258.8319765 -501.52734375 255.4140625 C-501.26287949 254.40889587 -501.26287949 254.40889587 -500.99307251 253.38342285 C-498.26313978 243.02666357 -495.48655513 232.85596708 -491.2578125 223 C-490.42598381 220.53024058 -490.2467681 218.41021953 -490.125 215.8125 C-489.79162101 210.50343957 -487.64693422 206.86228817 -484.984375 202.3359375 C-483.02530764 198.92303595 -481.76472477 195.46078585 -480.5 191.75 C-479.83410752 189.95804545 -479.16738414 188.16639954 -478.5 186.375 C-477.22677319 182.94789784 -476.13046853 179.50557754 -475.11328125 175.99609375 C-473.60627978 170.920475 -471.71145216 166.07565559 -469.6875 161.1875 C-462.18462112 142.7470797 -462.18462112 142.7470797 -457.3359375 123.484375 C-456.33665683 120.21569991 -454.67509743 118.35673155 -452.5 115.75 C-451.55633775 113.64598271 -451.55633775 113.64598271 -451 111.5 C-450.02243305 108.27349489 -448.88098757 105.29677081 -447.4375 102.25 C-446.06313524 99.27478339 -445.19293636 96.59904274 -444.625 93.375 C-443.68887195 88.49011361 -441.35677657 84.72762915 -438.8828125 80.4609375 C-437.23115854 77.22294923 -436.61118123 74.23852051 -435.99609375 70.6875 C-435.24956688 67.77193048 -433.49526686 65.9383572 -431.5 63.75 C-431.17 62.76 -430.84 61.77 -430.5 60.75 C-426.87 60.09 -423.24 59.43 -419.5 58.75 C-419.0359375 56.7390625 -419.0359375 56.7390625 -418.5625 54.6875 C-418.3665625 53.86636719 -418.170625 53.04523438 -417.96875 52.19921875 C-417.37557289 49.55161047 -417.37557289 49.55161047 -417.5625 46 C-416.5 42.75 -416.5 42.75 -414.23828125 41.3828125 C-412.29593558 40.52955833 -410.33782926 39.71147868 -408.3671875 38.92578125 C-404.45373757 37.32094688 -401.72119362 35.50143622 -398.5 32.75 C-398.108125 31.76 -397.71625 30.77 -397.3125 29.75 C-393.8682719 24.04920866 -386.40993574 22.67378912 -380.30078125 20.734375 C-377.34476013 19.82520401 -377.34476013 19.82520401 -374.5 17.75 C-372.50471648 17.3895076 -370.50381243 17.05959146 -368.5 16.75 C-366.36498078 16.13810243 -364.23980335 15.49097807 -362.125 14.8125 C-358.57637665 13.68977171 -355.07386641 12.6053346 -351.4375 11.8125 C-346.84722727 10.7330079 -342.62856796 8.75579598 -338.30078125 6.91796875 C-321.74496667 0.01394008 -291.6344763 -3.11128038 -274.5 2.75 C-272.59394793 3.66725562 -270.7156403 4.64517776 -268.875 5.6875 C-267.52535156 6.44353516 -267.52535156 6.44353516 -266.1484375 7.21484375 C-264.36438227 8.24896426 -262.60607064 9.32865963 -260.875 10.44921875 C-257.40664017 12.3488303 -255.28528641 11.66368982 -251.5 10.75 C-249.09622702 9.855028 -246.82609017 8.84183824 -244.5 7.75 C-243.88125 8.53375 -243.2625 9.3175 -242.625 10.125 C-238.127129 15.68119359 -233.53945101 17.57061554 -226.5 18.75 C-223.49029235 18.89931883 -220.5100586 18.87541911 -217.5 18.75 C-217.31824219 18.13511719 -217.13648438 17.52023438 -216.94921875 16.88671875 C-216.69785156 16.07847656 -216.44648438 15.27023438 -216.1875 14.4375 C-215.94386719 13.63699219 -215.70023437 12.83648437 -215.44921875 12.01171875 C-214.42462573 9.57040452 -213.60734488 8.34044897 -211.5 6.75 C-208.82681142 6.08042504 -206.26174963 5.97637292 -203.5 5.75 C-202.8291288 7.3732687 -202.16342971 8.99867578 -201.5 10.625 C-201.12875 11.52992187 -200.7575 12.43484375 -200.375 13.3671875 C-199.5 15.75 -199.5 15.75 -199.5 17.75 C-196.50165422 18.17013111 -193.50392898 18.56145259 -190.5 18.9375 C-189.66082031 19.05802734 -188.82164062 19.17855469 -187.95703125 19.30273438 C-181.03353826 20.13462694 -176.74235694 18.87117847 -170.5 15.75 C-163.18056036 15.39583357 -163.18056036 15.39583357 -160.6394043 16.71826172 C-157.00687319 18.47006778 -153.15987925 18.62721247 -149.1875 19.0625 C-148.35798828 19.17400391 -147.52847656 19.28550781 -146.67382812 19.40039062 C-139.52016844 20.1964964 -135.52530183 18.76686789 -129.5 14.75 C-126.12502867 14.38315529 -124.2178838 14.27010318 -121.35546875 16.18359375 C-117.52124069 18.28691174 -113.9925814 18.66285253 -109.6875 19.125 C-108.91857422 19.23199219 -108.14964844 19.33898437 -107.35742188 19.44921875 C-101.84527455 20.0725333 -97.38534097 19.50853603 -92.5 16.75 C-91.99879639 16.22841309 -91.49759277 15.70682617 -90.98120117 15.16943359 C-89.5 13.75 -89.5 13.75 -86.1875 13.3125 C-81.88047167 13.82350336 -80.05482084 15.35593699 -76.5 17.75 C-73.69184176 18.31163165 -71.32184129 18.63034595 -68.5 18.75 C-67.66726563 18.8015625 -66.83453125 18.853125 -65.9765625 18.90625 C-59.11982853 19.15333951 -55.21580342 17.56053561 -49.5 13.75 C-47.48499209 13.55217314 -45.46122413 13.43771374 -43.4375 13.375 C-34.12415975 12.76513643 -27.33288531 9.75394815 -19.8984375 4.21484375 C-13.24294214 0.15000538 -7.69010688 -0.63292151 0 0 Z " fill="#FEFEFE" transform="translate(575.5,38.25)"/>
<path d="M0 0 C12.33861114 9.116156 22.00603487 22.74922595 25.1171875 37.95703125 C27.45744947 57.60173032 24.43184243 75.39347335 12.1875 91.42578125 C2.64663207 102.93901428 -10.55488031 110.55090719 -25.4765625 112.3671875 C-43.18138465 113.56985359 -56.07746571 108.49052878 -69.66796875 97.61328125 C-77.26533404 90.55979894 -82.19334283 81.0800457 -85.4765625 71.3671875 C-85.92515625 70.17802734 -85.92515625 70.17802734 -86.3828125 68.96484375 C-91.73541073 52.88226851 -88.74632932 35.61822884 -81.4140625 20.7421875 C-72.97904098 6.03910328 -60.43808015 -4.49265189 -43.8671875 -9.015625 C-27.93609644 -11.91552406 -13.4048338 -8.83788727 0 0 Z " fill="#010101" transform="translate(269.4765625,143.6328125)"/>
<path d="M0 0 C11.21060792 8.91099604 19.0077076 23.34215512 20.79296875 37.44921875 C22.14597494 54.15544144 18.89541007 67.72084477 8.79296875 81.44921875 C8.35597656 82.08085937 7.91898438 82.7125 7.46875 83.36328125 C-0.61625135 93.99760735 -15.19797959 101.53945971 -28.20703125 103.44921875 C-46.67354041 104.75971554 -61.65408134 101.0641423 -76.39453125 89.32421875 C-86.57736417 79.82024135 -94.96042833 65.32294345 -95.48046875 51.2109375 C-95.9368725 35.16683502 -92.96700451 22.61136134 -83.20703125 9.44921875 C-82.70816406 8.74410156 -82.20929688 8.03898437 -81.6953125 7.3125 C-61.46560635 -18.62432728 -24.84902797 -17.46029045 0 0 Z " fill="#010101" transform="translate(564.20703125,261.55078125)"/>
<path d="M0 0 C12.87 0 25.74 0 39 0 C39 10.56 39 21.12 39 32 C50.55 32 62.1 32 74 32 C74 44.87 74 57.74 74 71 C62.45 71 50.9 71 39 71 C39 82.22 39 93.44 39 105 C26.13 105 13.26 105 0 105 C0 93.78 0 82.56 0 71 C-11.88 71 -23.76 71 -36 71 C-36 58.13 -36 45.26 -36 32 C-24.12 32 -12.24 32 0 32 C0 21.44 0 10.88 0 0 Z " fill="#000000" transform="translate(314,261)"/>
<path d="M0 0 C6.01848537 3.47141306 10.0964196 8.34031674 12.625 14.8046875 C14.72164713 22.74728015 13.9771502 29.93620983 9.8984375 37.0625 C5.14468322 43.73160188 -0.63815597 47.80246839 -8.7109375 49.3203125 C-16.42201512 50.41836995 -22.32184942 48.75837033 -28.7109375 44.3203125 C-34.17035892 39.41504288 -38.12012756 34.00032385 -39.05859375 26.56640625 C-39.48147614 18.07622896 -37.5817695 11.6122392 -31.84375 5.25 C-22.48436306 -3.45386568 -11.68443079 -5.30436064 0 0 Z " fill="#020202" transform="translate(640.7109375,223.6796875)"/>
<path d="M0 0 C6.01848537 3.47141306 10.0964196 8.34031674 12.625 14.8046875 C14.72277173 22.7515404 13.96791675 29.9258991 9.90625 37.0625 C5.7072412 42.92488427 0.27138287 47.34198839 -6.7109375 49.3203125 C-15.12281729 50.38223775 -21.75424617 49.27906134 -28.7109375 44.3203125 C-34.9657248 38.89162919 -37.9017467 33.00283215 -39.05859375 24.87890625 C-39.47325774 18.08479626 -37.57328877 12.88060563 -33.7109375 7.3203125 C-24.48531575 -2.9475343 -12.66235786 -5.74830849 0 0 Z " fill="#020202" transform="translate(640.7109375,119.6796875)"/>
<path d="M0 0 C6.01848537 3.47141306 10.0964196 8.34031674 12.625 14.8046875 C14.72164713 22.74728015 13.9771502 29.93620983 9.8984375 37.0625 C5.14468322 43.73160188 -0.63815597 47.80246839 -8.7109375 49.3203125 C-16.42739365 50.41913586 -22.3144187 48.75279952 -28.7109375 44.3203125 C-34.61657935 39.11402297 -38.01537486 33.517494 -39.05859375 25.72265625 C-39.45087002 18.57115812 -37.83919635 13.17366503 -33.7109375 7.3203125 C-24.47453082 -2.94021459 -12.67052482 -5.75201603 0 0 Z " fill="#020202" transform="translate(692.7109375,171.6796875)"/>
<path d="M0 0 C6.01848537 3.47141306 10.0964196 8.34031674 12.625 14.8046875 C14.72164713 22.74728015 13.9771502 29.93620983 9.8984375 37.0625 C5.14468322 43.73160188 -0.63815597 47.80246839 -8.7109375 49.3203125 C-16.43278179 50.41990313 -22.30698881 48.7472032 -28.7109375 44.3203125 C-34.97172724 38.90684769 -37.90310785 32.99327356 -39.05859375 24.87890625 C-39.47325774 18.08479626 -37.57328877 12.88060563 -33.7109375 7.3203125 C-24.48531575 -2.9475343 -12.66235786 -5.74830849 0 0 Z " fill="#020202" transform="translate(588.7109375,171.6796875)"/>
<path d="M0 0 C0.99 0.33 1.98 0.66 3 1 C6.80487599 8.83728609 8.88534923 17.77242766 11.3125 26.125 C11.57909424 27.03733398 11.84568848 27.94966797 12.12036133 28.88964844 C12.3655249 29.75364258 12.61068848 30.61763672 12.86328125 31.5078125 C13.19259644 32.66240967 13.19259644 32.66240967 13.52856445 33.84033203 C14 36 14 36 14 40 C13.34 40 12.68 40 12 40 C10.28736238 34.62599214 8.57845991 29.25081664 6.87304688 23.87451172 C6.29204838 22.04475639 5.71002062 20.21532755 5.12695312 18.38623047 C4.29027463 15.76093825 3.45727389 13.13450388 2.625 10.5078125 C2.23127197 9.27649094 2.23127197 9.27649094 1.82958984 8.02029419 C0 2.22774341 0 2.22774341 0 0 Z " fill="#F1F1F1" transform="translate(773,260)"/>
<path d="M0 0 C-0.66 1.98 -1.32 3.96 -2 6 C-2.515625 5.67 -3.03125 5.34 -3.5625 5 C-6.78026512 3.67989123 -9.5570528 3.86757895 -13 4 C-13.66 5.32 -14.32 6.64 -15 8 C-16.65 8 -18.3 8 -20 8 C-20 6.02 -20 4.04 -20 2 C-13.25846717 0.74158054 -6.86515862 -0.26404456 0 0 Z " fill="#ECECEC" transform="translate(300,420)"/>
<path d="M0 0 C0.99 0.33 1.98 0.66 3 1 C0.15642539 9.78923062 -6.94409473 14.60188995 -14 20 C-14.66 18.68 -15.32 17.36 -16 16 C-15.34773437 15.5153125 -14.69546875 15.030625 -14.0234375 14.53125 C-8.37834074 10.20167727 -3.90049005 5.96172463 0 0 Z " fill="#E8E8E8" transform="translate(575,339)"/>
<path d="M0 0 C0.66 0 1.32 0 2 0 C1.3995857 3.99417236 0.56309633 7.7594337 -0.62890625 11.6171875 C-0.94150391 12.63554687 -1.25410156 13.65390625 -1.57617188 14.703125 C-1.90166016 15.74984375 -2.22714844 16.7965625 -2.5625 17.875 C-3.0565332 19.47988281 -3.0565332 19.47988281 -3.56054688 21.1171875 C-4.37027487 23.74586967 -5.18352355 26.37340766 -6 29 C-6.66 29 -7.32 29 -8 29 C-7.54125939 18.63246216 -4.26515297 9.38333653 0 0 Z " fill="#F3F3F3" transform="translate(84,262)"/>
<path d="M0 0 C-6.79232506 4.5282167 -6.79232506 4.5282167 -10.08984375 5.81640625 C-12.18140093 6.84110675 -12.18140093 6.84110675 -12.7578125 9.05859375 C-12.93957031 10.23615234 -12.93957031 10.23615234 -13.125 11.4375 C-13.66325452 14.77138261 -14.05291502 16.07937253 -16 19 C-17.03780256 8.96790862 -17.03780256 8.96790862 -14.7578125 4.64453125 C-10.36922624 -0.25976446 -6.36048202 -0.90864029 0 0 Z " fill="#ECECEC" transform="translate(796,520)"/>
<path d="M0 0 C6.86515862 -0.26404456 13.25846717 0.74158054 20 2 C20 4.31 20 6.62 20 9 C13.125 5.125 13.125 5.125 12 4 C9.98688551 3.60430892 7.96402792 3.25747809 5.9375 2.9375 C4.28041016 2.67259766 4.28041016 2.67259766 2.58984375 2.40234375 C1.73519531 2.26957031 0.88054688 2.13679688 0 2 C0 1.34 0 0.68 0 0 Z " fill="#ECECEC" transform="translate(560,420)"/>
<path d="M0 0 C3.87939509 1.58620127 6.33361087 4.09920987 9.25 7.0625 C10.14203125 7.96097656 11.0340625 8.85945313 11.953125 9.78515625 C14 12 14 12 14 13 C10.58879422 13.38985209 9.29290252 13.20717495 6.4375 11.1875 C5.2309375 10.1046875 5.2309375 10.1046875 4 9 C3.236875 8.54625 2.47375 8.0925 1.6875 7.625 C0 6 0 6 -0.25 2.8125 C-0.1675 1.884375 -0.085 0.95625 0 0 Z " fill="#F3F3F3" transform="translate(640,467)"/>
<path d="M0 0 C0.99 0 1.98 0 3 0 C2.88501733 2.20887757 2.75756495 4.41710787 2.625 6.625 C2.55539062 7.85476563 2.48578125 9.08453125 2.4140625 10.3515625 C2.0185513 13.83653855 1.23738151 16.73049601 0 20 C-0.99 20 -1.98 20 -3 20 C-2.45136137 13.2142064 -1.45732062 6.64990964 0 0 Z " fill="#F0F0F0" transform="translate(810,460)"/>
<path d="M0 0 C1.17985474 0.06900513 1.17985474 0.06900513 2.38354492 0.1394043 C3.25922119 0.18589111 4.13489746 0.23237793 5.03710938 0.28027344 C5.96998779 0.34077881 6.90286621 0.40128418 7.86401367 0.46362305 C9.27976685 0.54374634 9.27976685 0.54374634 10.72412109 0.62548828 C17.83981982 1.03934009 24.95061523 1.53193524 32.05151367 2.15112305 C32.05151367 3.14112305 32.05151367 4.13112305 32.05151367 5.15112305 C14.23151367 3.66612305 14.23151367 3.66612305 -3.94848633 2.15112305 C-1.94848633 0.15112305 -1.94848633 0.15112305 0 0 Z " fill="#F3F3F3" transform="translate(567.948486328125,37.848876953125)"/>
<path d="M0 0 C0 0.99 0 1.98 0 3 C-2.29032311 3.83719383 -4.58210957 4.6698929 -6.875 5.5 C-7.85146484 5.85771484 -7.85146484 5.85771484 -8.84765625 6.22265625 C-13.7734375 8 -13.7734375 8 -16 8 C-15.90234375 6.17578125 -15.90234375 6.17578125 -15 4 C-12.12890625 2.48046875 -12.12890625 2.48046875 -8.5625 1.1875 C-6.80099609 0.52814453 -6.80099609 0.52814453 -5.00390625 -0.14453125 C-2 -1 -2 -1 0 0 Z " fill="#EDEDED" transform="translate(556,359)"/>
<path d="M0 0 C-0.59167969 0.36351562 -1.18335938 0.72703125 -1.79296875 1.1015625 C-9.4358612 5.96408788 -13.75624177 10.46379413 -17 19 C-17.66 18.67 -18.32 18.34 -19 18 C-18.17122883 10.95544505 -13.96983199 6.68358523 -8.78125 2.296875 C-3.85950413 -1.28650138 -3.85950413 -1.28650138 0 0 Z " fill="#E2E2E2" transform="translate(620,222)"/>
<path d="M0 0 C4.88049925 3.9419417 9.0580583 8.11950075 13 13 C11.26171875 13.72265625 11.26171875 13.72265625 9 14 C4.689855 11.04926994 1.43665232 7.52828312 0 2.5 C0 1.675 0 0.85 0 0 Z " fill="#F3F3F3" transform="translate(660,486)"/>
<path d="M0 0 C0.99 0.33 1.98 0.66 3 1 C3.86205641 3.4642923 4.53355221 5.78346927 5.125 8.3125 C5.29386719 8.98990234 5.46273437 9.66730469 5.63671875 10.36523438 C6.10238547 12.2407346 6.55176901 14.12025651 7 16 C7.33185055 17.33370315 7.66424884 18.66727345 8 20 C6.68 20 5.36 20 4 20 C3.32749476 17.41806023 2.66182099 14.83467929 2 12.25 C1.71382812 11.15558594 1.71382812 11.15558594 1.421875 10.0390625 C0.53484036 6.55428354 0 3.61876278 0 0 Z " fill="#F1F1F1" transform="translate(792,320)"/>
<path d="M0 0 C0.33 1.32 0.66 2.64 1 4 C-0.71575016 5.68269718 -2.44532639 7.34504689 -4.1875 9 C-4.91163086 9.71542969 -4.91163086 9.71542969 -5.65039062 10.4453125 C-8.07427108 12.72278407 -9.50630023 13.94611735 -12.86328125 14.3125 C-13.92095703 14.1578125 -13.92095703 14.1578125 -15 14 C-11.42115302 10.30931405 -7.66273258 6.90801605 -3.76953125 3.55078125 C-2.47133312 2.41306678 -1.2205967 1.2205967 0 0 Z " fill="#F2F2F2" transform="translate(159,526)"/>
<path d="M0 0 C3.47503502 -0.49643357 5.98657538 -0.63974874 9.0234375 1.27734375 C11.71366937 3.69855243 13.7301758 5.61474181 14.4375 9.24609375 C14.4375 11.4375 14.4375 11.4375 14 15 C13.67 14.01 13.34 13.02 13 12 C12.34 12 11.68 12 11 12 C10.79375 11.278125 10.5875 10.55625 10.375 9.8125 C8.12424368 5.20868025 4.18311251 2.78874167 0 0 Z " fill="#EDEDED" transform="translate(66,520)"/>
<path d="M0 0 C0.99 0.33 1.98 0.66 3 1 C1.96232949 7.06732052 0.66038099 12.4373852 -2 18 C-2.99 17.67 -3.98 17.34 -5 17 C-4.80664062 16.443125 -4.61328125 15.88625 -4.4140625 15.3125 C-2.68625575 10.24882873 -1.2306933 5.20677935 0 0 Z " fill="#ECECEC" transform="translate(583,319)"/>
<path d="M0 0 C0.3125 2.25 0.3125 2.25 0 5 C-2.1875 7.0625 -2.1875 7.0625 -5 9 C-5.845625 9.763125 -6.69125 10.52625 -7.5625 11.3125 C-10 13 -10 13 -12.3125 12.75 C-12.869375 12.5025 -13.42625 12.255 -14 12 C-2.36363636 0 -2.36363636 0 0 0 Z " fill="#F3F3F3" transform="translate(180,507)"/>
<path d="M0 0 C0.66 0 1.32 0 2 0 C1.27743338 4.25421245 -0.00408378 8.18369169 -1.4375 12.25 C-1.86933594 13.49265625 -2.30117187 14.7353125 -2.74609375 16.015625 C-4 19 -4 19 -6 20 C-6.28792727 15.13476743 -5.37904291 11.69026217 -3.5625 7.1875 C-3.11003906 6.04667969 -2.65757813 4.90585938 -2.19140625 3.73046875 C-1 1 -1 1 0 0 Z " fill="#F2F2F2" transform="translate(106,200)"/>
<path d="M0 0 C0.99 0.33 1.98 0.66 3 1 C5.43453604 7.08634009 5.59516924 13.51205436 6 20 C5.01 20 4.02 20 3 20 C2.01 13.4 1.02 6.8 0 0 Z " fill="#F1F1F1" transform="translate(805,380)"/>
<path d="M0 0 C0.75 1.75 0.75 1.75 1 4 C-0.8125 6.25 -0.8125 6.25 -3 8 C-3.66 8 -4.32 8 -5 8 C-5.28875 8.61875 -5.5775 9.2375 -5.875 9.875 C-7 12 -7 12 -9 14 C-11.125 13.625 -11.125 13.625 -13 13 C-12.0479279 11.99403703 -11.08812654 10.99538437 -10.125 10 C-9.32449219 9.1646875 -9.32449219 9.1646875 -8.5078125 8.3125 C-7 7 -7 7 -5 7 C-4.731875 6.401875 -4.46375 5.80375 -4.1875 5.1875 C-3.01506533 3.02775192 -1.80630718 1.64209744 0 0 Z " fill="#F4F4F4" transform="translate(199,486)"/>
<path d="M0 0 C0 3.1875 0 3.1875 -1 7 C-3.81200773 9.49681565 -7.13904254 12 -11 12 C-9.52651292 8.57472113 -7.59092154 6.35044942 -4.9375 3.75 C-4.22464844 3.04359375 -3.51179687 2.3371875 -2.77734375 1.609375 C-1 0 -1 0 0 0 Z " fill="#F3F3F3" transform="translate(220,466)"/>
<path d="M0 0 C0.66 0.33 1.32 0.66 2 1 C0.35 7.27 -1.3 13.54 -3 20 C-3.99 20 -4.98 20 -6 20 C-5 15 -4 10 -3 5 C-2.34 5 -1.68 5 -1 5 C-0.67 3.35 -0.34 1.7 0 0 Z " fill="#F2F2F2" transform="translate(67,320)"/>
<path d="M0 0 C0.99 0.33 1.98 0.66 3 1 C4.09765625 3.2578125 4.09765625 3.2578125 5.0625 6.125 C5.39765625 7.11886719 5.7328125 8.11273438 6.078125 9.13671875 C6.38234375 10.08160156 6.6865625 11.02648437 7 12 C7.36351562 13.06154297 7.36351562 13.06154297 7.734375 14.14453125 C8.82992812 17.5422264 9.0166977 19.61344577 8 23 C6.66128359 19.54372619 5.32994608 16.08465703 4 12.625 C3.6184375 11.64015625 3.236875 10.6553125 2.84375 9.640625 C2.30234375 8.22910156 2.30234375 8.22910156 1.75 6.7890625 C1.41484375 5.91975098 1.0796875 5.05043945 0.734375 4.15478516 C0 2 0 2 0 0 Z " fill="#F1F1F1" transform="translate(752,200)"/>
<path d="M0 0 C1.48831242 0.00667405 2.97660807 0.01863442 4.46484375 0.03515625 C5.22345703 0.03966797 5.98207031 0.04417969 6.76367188 0.04882812 C8.64326246 0.06064945 10.52281274 0.07858547 12.40234375 0.09765625 C12.40234375 0.42765625 12.40234375 0.75765625 12.40234375 1.09765625 C7.78234375 1.75765625 3.16234375 2.41765625 -1.59765625 3.09765625 C-2.25765625 5.40765625 -2.91765625 7.71765625 -3.59765625 10.09765625 C-3.92765625 10.09765625 -4.25765625 10.09765625 -4.59765625 10.09765625 C-4.62454841 8.61858733 -4.64400246 7.13938142 -4.66015625 5.66015625 C-4.67175781 4.83644531 -4.68335938 4.01273438 -4.6953125 3.1640625 C-4.52465699 -0.44700819 -3.75446463 0.10191272 0 0 Z " fill="#ECECEC" transform="translate(764.59765625,539.90234375)"/>
<path d="M0 0 C4.88049925 3.9419417 9.0580583 8.11950075 13 13 C9 13 9 13 6.5 10.6875 C5.675 9.800625 4.85 8.91375 4 8 C3.236875 7.505 2.47375 7.01 1.6875 6.5 C0 5 0 5 -0.25 2.3125 C-0.1675 1.549375 -0.085 0.78625 0 0 Z " fill="#F2F2F2" transform="translate(680,507)"/>
<path d="M0 0 C0.66 0.33 1.32 0.66 2 1 C1.01 7.27 0.02 13.54 -1 20 C-1.66 20 -2.32 20 -3 20 C-3.21225012 13.42024642 -2.73300103 7.37541983 -1 1 C-0.67 0.67 -0.34 0.34 0 0 Z " fill="#F5F5F5" transform="translate(53,380)"/>
<path d="M0 0 C0.66 0 1.32 0 2 0 C1.79503906 0.52207031 1.59007812 1.04414063 1.37890625 1.58203125 C-0.86316049 7.70748632 -1.64787062 13.50382011 -2 20 C-4.44950621 17.55049379 -4.32271254 16.75276979 -4.375 13.375 C-4.29652051 7.97561119 -2.72875073 4.60476686 0 0 Z " fill="#EFEFEF" transform="translate(656,180)"/>
<path d="M0 0 C0.66 0 1.32 0 2 0 C2.47266289 7.32627475 1.09866202 12.37384327 -2 19 C-3.56454159 14.97985339 -2.46223974 11.30074319 -1.5625 7.25 C-1.34110352 6.20392578 -1.34110352 6.20392578 -1.11523438 5.13671875 C-0.75131967 3.4227979 -0.37670932 1.71115419 0 0 Z " fill="#F3F3F3" transform="translate(118,161)"/>
<path d="M0 0 C2.38171031 3.80273074 2.65510945 7.89003197 3.125 12.25 C3.21136719 12.99507813 3.29773437 13.74015625 3.38671875 14.5078125 C3.59786867 16.33777846 3.79984545 18.16879879 4 20 C3.01 19.67 2.02 19.34 1 19 C-0.00926479 14.84373632 -0.10239579 10.95634906 -0.0625 6.6875 C-0.05347656 5.43324219 -0.04445312 4.17898438 -0.03515625 2.88671875 C-0.01775391 1.45779297 -0.01775391 1.45779297 0 0 Z " fill="#F3F3F3" transform="translate(49,460)"/>
<path d="M0 0 C4.65851244 2.95417862 9.01502899 6.1682971 13 10 C13 10.33 13 10.66 13 11 C10.8125 11.3125 10.8125 11.3125 8 11 C5.375 8.6875 5.375 8.6875 3 6 C2.401875 5.46375 1.80375 4.9275 1.1875 4.375 C0 3 0 3 0 0 Z " fill="#EEEEEE" transform="translate(620,449)"/>
<path d="M0 0 C3.02093215 3.02093215 2.46676834 6.56372072 2.625 10.625 C2.66367187 11.42679687 2.70234375 12.22859375 2.7421875 13.0546875 C2.83653931 15.03607556 2.91936215 17.01800645 3 19 C2.34 19 1.68 19 1 19 C-0.26582219 15.13276369 -0.1118765 11.26848738 -0.0625 7.25 C-0.05798828 6.55261719 -0.05347656 5.85523438 -0.04882812 5.13671875 C-0.0371002 3.42444197 -0.01916653 1.71220967 0 0 Z " fill="#F0F0F0" transform="translate(800,341)"/>
<path d="M0 0 C1.32 0.33 2.64 0.66 4 1 C3.71848084 3.12636813 3.42446737 5.25108528 3.125 7.375 C2.96257813 8.55835938 2.80015625 9.74171875 2.6328125 10.9609375 C2 14 2 14 0 16 C0 10.72 0 5.44 0 0 Z " fill="#ECECEC" transform="translate(800,500)"/>
<path d="M0 0 C0 3 0 3 -1.875 5.1875 C-4 7 -4 7 -6 7 C-6.66 8.32 -7.32 9.64 -8 11 C-9.32 10.67 -10.64 10.34 -12 10 C-10.37744772 8.51814875 -8.75188112 7.03959744 -7.125 5.5625 C-6.22007812 4.73878906 -5.31515625 3.91507812 -4.3828125 3.06640625 C-2 1 -2 1 0 0 Z " fill="#EEEEEE" transform="translate(239,449)"/>
<path d="M0 0 C5.09647717 0.48796058 8.66704554 2.30638503 12.875 5.0625 C13.76445312 5.62807617 13.76445312 5.62807617 14.671875 6.20507812 C16.12027322 7.12784796 17.56096031 8.06270263 19 9 C18.67 9.66 18.34 10.32 18 11 C17.20335937 10.52949219 16.40671875 10.05898438 15.5859375 9.57421875 C14.52632813 8.95160156 13.46671875 8.32898437 12.375 7.6875 C11.33085937 7.07261719 10.28671875 6.45773438 9.2109375 5.82421875 C6.18601612 4.10568069 3.12595518 2.52542858 0 1 C0 0.67 0 0.34 0 0 Z " fill="#F1F1F1" transform="translate(301,43)"/>
<path d="M0 0 C0.33 0 0.66 0 1 0 C1 4.62 1 9.24 1 14 C-1.31 14 -3.62 14 -6 14 C-4.68 13.67 -3.36 13.34 -2 13 C-1.93941406 12.22914062 -1.87882813 11.45828125 -1.81640625 10.6640625 C-1.73261719 9.66117188 -1.64882812 8.65828125 -1.5625 7.625 C-1.48128906 6.62726563 -1.40007812 5.62953125 -1.31640625 4.6015625 C-1 2 -1 2 0 0 Z " fill="#EEEEEE" transform="translate(159,86)"/>
<path d="M0 0 C1.11375 0.598125 2.2275 1.19625 3.375 1.8125 C4.00148438 2.14894531 4.62796875 2.48539062 5.2734375 2.83203125 C7 4 7 4 9 7 C5.625 7.1875 5.625 7.1875 2 7 C0 4 0 4 0 0 Z " fill="#EEEEEE" transform="translate(600,433)"/>
<path d="M0 0 C0.66 0.66 1.32 1.32 2 2 C0.68 5.63 -0.64 9.26 -2 13 C-2.99 13 -3.98 13 -5 13 C-4.54803755 11.39402675 -4.08817673 9.79027492 -3.625 8.1875 C-3.36976563 7.29417969 -3.11453125 6.40085938 -2.8515625 5.48046875 C-2 3 -2 3 0 0 Z " fill="#EBEBEB" transform="translate(185,167)"/>
<path d="M0 0 C0.66 0 1.32 0 2 0 C2.33 4.62 2.66 9.24 3 14 C2.01 14 1.02 14 0 14 C0 9.38 0 4.76 0 0 Z " fill="#F1F1F1" transform="translate(700,86)"/>
<path d="M0 0 C0.99 0 1.98 0 3 0 C1.45941767 5.01508715 -0.02931839 9.6147081 -3 14 C-4 12 -4 12 -3.22265625 9.1796875 C-2.83980469 8.08914062 -2.45695312 6.99859375 -2.0625 5.875 C-1.68222656 4.77929688 -1.30195312 3.68359375 -0.91015625 2.5546875 C-0.60980469 1.71164063 -0.30945313 0.86859375 0 0 Z " fill="#F3F3F3" transform="translate(128,140)"/>
<path d="M0 0 C0 0.99 0 1.98 0 3 C-2.08203125 4.60546875 -2.08203125 4.60546875 -4.8125 6.1875 C-5.70582031 6.71730469 -6.59914062 7.24710937 -7.51953125 7.79296875 C-10 9 -10 9 -13 9 C-13 8.34 -13 7.68 -13 7 C-8.72509633 4.52055587 -4.44441654 2.16800807 0 0 Z " fill="#F4F4F4" transform="translate(179,71)"/>
<path d="M0 0 C6.27 0 12.54 0 19 0 C19 0.33 19 0.66 19 1 C12.4 1.66 5.8 2.32 -1 3 C-0.67 2.01 -0.34 1.02 0 0 Z " fill="#F3F3F3" transform="translate(261,40)"/>
<path d="M0 0 C-1.875 5.875 -1.875 5.875 -3 7 C-5.33297433 7.04092937 -7.66705225 7.04241723 -10 7 C-3.24137931 0 -3.24137931 0 0 0 Z " fill="#EEEEEE" transform="translate(260,433)"/>
<path d="M0 0 C10.55808656 3.07517084 10.55808656 3.07517084 15 5 C15 5.66 15 6.32 15 7 C13.24859857 6.54705135 11.49892656 6.08741252 9.75 5.625 C8.77546875 5.36976562 7.8009375 5.11453125 6.796875 4.8515625 C4.34162697 4.10401491 2.24382595 3.22876183 0 2 C0 1.34 0 0.68 0 0 Z " fill="#F1F1F1" transform="translate(620,45)"/>
<path d="M0 0 C0.66 0 1.32 0 2 0 C2.83739781 2.1234016 3.66980283 4.2487728 4.5 6.375 C4.9640625 7.55835938 5.428125 8.74171875 5.90625 9.9609375 C7 13 7 13 7 15 C6.34 15 5.68 15 5 15 C4.16260219 12.8765984 3.33019717 10.7512272 2.5 8.625 C1.80390625 6.84996094 1.80390625 6.84996094 1.09375 5.0390625 C0 2 0 2 0 0 Z " fill="#F1F1F1" transform="translate(761,225)"/>
<path d="M0 0 C-2.98524946 1.9901663 -6.0153093 3.8882982 -9.0625 5.78125 C-10.72551375 6.82733929 -12.36529801 7.91019867 -14 9 C-13.62609468 6.42665165 -13.3032769 5.26926453 -11.328125 3.515625 C-4.42124655 -0.69081977 -4.42124655 -0.69081977 0 0 Z " fill="#DFDFDF" transform="translate(674,169)"/>
<path d="M0 0 C1.66926454 0.97473126 3.33535642 1.95489789 5 2.9375 C6.3921875 3.75541016 6.3921875 3.75541016 7.8125 4.58984375 C8.534375 5.05519531 9.25625 5.52054688 10 6 C10 6.33 10 6.66 10 7 C3.375 6.25 3.375 6.25 0 4 C0 2.68 0 1.36 0 0 Z " fill="#F3F3F3" transform="translate(720,543)"/>
<path d="M0 0 C2.96783129 1.45668783 5.86415313 3.01232086 8.75 4.625 C9.94882812 5.29402344 9.94882812 5.29402344 11.171875 5.9765625 C11.77515625 6.31429687 12.3784375 6.65203125 13 7 C13 7.66 13 8.32 13 9 C9.55251042 8.35952602 7.15355815 7.00294981 4.25 5.0625 C3.45078125 4.53785156 2.6515625 4.01320313 1.828125 3.47265625 C1.22484375 2.98667969 0.6215625 2.50070313 0 2 C0 1.34 0 0.68 0 0 Z " fill="#F4F4F4" transform="translate(680,71)"/>
<path d="M0 0 C0.33 0.99 0.66 1.98 1 3 C-1.25 5.0625 -1.25 5.0625 -4 7 C-5.32 6.67 -6.64 6.34 -8 6 C-5.36 4.02 -2.72 2.04 0 0 Z " fill="#F1F1F1" transform="translate(139,543)"/>
<path d="M0 0 C0.66 0 1.32 0 2 0 C0 8.57142857 0 8.57142857 -2 12 C-2.66 12 -3.32 12 -4 12 C-3.52309796 10.37433394 -3.04340334 8.74948689 -2.5625 7.125 C-2.29566406 6.22007812 -2.02882813 5.31515625 -1.75390625 4.3828125 C-1 2 -1 2 0 0 Z " fill="#F1F1F1" transform="translate(96,228)"/>
<path d="M0 0 C0.99 0.33 1.98 0.66 3 1 C2.67 3.31 2.34 5.62 2 8 C0.68 8.33 -0.64 8.66 -2 9 C-1.34 6.03 -0.68 3.06 0 0 Z " fill="#DADADA" transform="translate(583,319)"/>
<path d="M0 0 C1.64826111 2.96687001 2.44271087 5.65626525 3 9 C2.01 9 1.02 9 0 9 C-0.66 6.69 -1.32 4.38 -2 2 C-1.34 1.34 -0.68 0.68 0 0 Z " fill="#D5D5D5" transform="translate(182,208)"/>
<path d="M0 0 C3.3 0 6.6 0 10 0 C10.33 1.32 10.66 2.64 11 4 C7.37 3.01 3.74 2.02 0 1 C0 0.67 0 0.34 0 0 Z " fill="#ECECEC" transform="translate(89,540)"/>
<path d="M0 0 C3.36720387 1.39332574 4.9859524 2.9789286 7 6 C2.25 5.25 2.25 5.25 0 3 C0 2.01 0 1.02 0 0 Z " fill="#F1F1F1" transform="translate(708,534)"/>
<path d="M0 0 C0.66 0 1.32 0 2 0 C1.01 2.97 0.02 5.94 -1 9 C-1.66 8.67 -2.32 8.34 -3 8 C-2.45276317 4.62537285 -1.9451 2.91765 0 0 Z " fill="#E3E3E3" transform="translate(656,180)"/>
<path d="M0 0 C0.33 0 0.66 0 1 0 C1.144375 1.2375 1.28875 2.475 1.4375 3.75 C1.78688502 6.56504499 2.20379366 9.2701497 3 12 C2.01 12 1.02 12 0 12 C0 8.04 0 4.08 0 0 Z " fill="#EEEEEE" transform="translate(720,108)"/>
<path d="M0 0 C0 1.32 0 2.64 0 4 C-2.31 3.34 -4.62 2.68 -7 2 C-7 1.67 -7 1.34 -7 1 C-2.25 0 -2.25 0 0 0 Z " fill="#ECECEC" transform="translate(740,549)"/>
<path d="M0 0 C0.33 1.32 0.66 2.64 1 4 C-0.98 4.99 -2.96 5.98 -5 7 C-3.70700306 4.11562221 -2.34058637 2.12780579 0 0 Z " fill="#EDEDED" transform="translate(199,486)"/>
<path d="M0 0 C0.66 0.33 1.32 0.66 2 1 C-0.64 2.65 -3.28 4.3 -6 6 C-6 5.01 -6 4.02 -6 3 C-4.03533587 1.93224776 -2.03144641 0.93446535 0 0 Z " fill="#F4F4F4" transform="translate(547,48)"/>
</svg>
