<?xml version="1.0" encoding="UTF-8"?>
<svg version="1.1" xmlns="http://www.w3.org/2000/svg" width="1510" height="1080">
<path d="M0 0 C1.55809891 -0.00855011 1.55809891 -0.00855011 3.14767456 -0.01727295 C5.34111533 -0.02667004 7.53456987 -0.03323572 9.72802734 -0.03710938 C12.99734013 -0.04670665 16.26599336 -0.07773635 19.53515625 -0.109375 C66.80860624 -0.34719797 117.21808461 12.00939158 155.9296875 40.203125 C156.55020996 40.64833496 157.17073242 41.09354492 157.81005859 41.55224609 C175.44736142 54.24475144 191.38611291 68.13180694 204.9296875 85.203125 C205.58582031 85.99203125 206.24195313 86.7809375 206.91796875 87.59375 C256.2904123 147.35518468 272.97834658 229.93856205 273.1328125 305.625 C273.13563988 306.58038918 273.13846725 307.53577835 273.14138031 308.52011871 C273.15627191 313.59316774 273.16556014 318.66618915 273.16992188 323.73925781 C273.17427168 327.84612075 273.18804141 331.95276947 273.2109375 336.05957031 C273.32239894 356.48102877 273.31197592 376.81993853 271.55859375 397.1796875 C271.46647236 398.25164997 271.46647236 398.25164997 271.37248993 399.34526825 C270.06531953 414.10333257 267.78651474 428.66806519 264.9296875 443.203125 C264.72005371 444.2864209 264.51041992 445.3697168 264.29443359 446.48583984 C254.84546478 494.12348168 235.08972411 542.38834625 202.9296875 579.203125 C202.28515625 579.95722656 201.640625 580.71132813 200.9765625 581.48828125 C198.68104405 584.11235673 196.32552481 586.67108816 193.9296875 589.203125 C193.341875 589.82493652 192.7540625 590.44674805 192.1484375 591.08740234 C172.8039714 611.37702217 150.48281502 627.56057577 124.9296875 639.203125 C124.21409668 639.5326416 123.49850586 639.8621582 122.76123047 640.20166016 C105.8403847 647.90836643 88.32678306 653.30283944 70.1171875 657.015625 C69.16505371 657.21051514 68.21291992 657.40540527 67.23193359 657.60620117 C51.01362421 660.72109401 35.00954367 661.55255745 18.52783203 661.51879883 C15.32940179 661.51564934 12.13190997 661.5391632 8.93359375 661.56445312 C-10.01452784 661.62353619 -28.81656649 659.96646714 -47.2578125 655.453125 C-48.33401855 655.19490967 -49.41022461 654.93669434 -50.51904297 654.6706543 C-101.06159391 642.20488553 -148.40952135 612.99324799 -180.0703125 571.203125 C-180.79468506 570.25276367 -180.79468506 570.25276367 -181.53369141 569.28320312 C-189.47730179 558.79597589 -196.47970877 547.98825671 -202.82226562 536.46435547 C-203.98538 534.357007 -205.17344086 532.26587231 -206.3671875 530.17578125 C-224.95767976 497.03959003 -234.8515065 459.36013598 -240.8203125 422.078125 C-241.11844849 420.24193604 -241.11844849 420.24193604 -241.42260742 418.36865234 C-244.43222444 398.62876395 -245.38663112 378.83556826 -245.37109375 358.890625 C-245.37500296 356.73714113 -245.37934196 354.58365799 -245.38407898 352.43017578 C-245.39146053 347.95293665 -245.39131048 343.47577646 -245.38598633 338.99853516 C-245.38136247 334.48248312 -245.38825768 329.96670085 -245.40649414 325.45068359 C-245.71831567 247.50923962 -235.14876356 166.16347512 -188.0703125 101.203125 C-187.33425781 100.17574219 -186.59820313 99.14835937 -185.83984375 98.08984375 C-170.45238544 77.09209091 -152.388299 58.20645335 -131.0703125 43.203125 C-130.48072754 42.77418945 -129.89114258 42.34525391 -129.28369141 41.90332031 C-92.71309165 15.30087441 -45.17271546 0.1985738 0 0 Z M-104.6015625 123.984375 C-106.84364974 126.66856395 -108.97437331 129.40343981 -111.0703125 132.203125 C-111.46669922 132.72455078 -111.86308594 133.24597656 -112.27148438 133.78320312 C-119.08633208 142.78815789 -124.85038158 152.19538425 -130.0703125 162.203125 C-130.4401123 162.90469727 -130.80991211 163.60626953 -131.19091797 164.32910156 C-144.75808207 190.40395492 -152.04539558 219.25976856 -156.3203125 248.203125 C-156.47153564 249.22011475 -156.62275879 250.23710449 -156.77856445 251.28491211 C-157.27442921 254.91836042 -157.68930541 258.5562559 -158.0703125 262.203125 C-158.1578479 263.01773193 -158.2453833 263.83233887 -158.33557129 264.67163086 C-160.4095311 284.77532364 -160.38036344 304.86612405 -160.33105469 325.05224609 C-160.31966101 329.75813971 -160.32643749 334.46380709 -160.33793259 339.16969299 C-160.37963884 359.26472468 -160.21985976 379.1993769 -158.0703125 399.203125 C-157.99470093 399.92685303 -157.91908936 400.65058105 -157.84118652 401.39624023 C-157.41844788 405.34583391 -156.9045014 409.27440021 -156.3203125 413.203125 C-156.15039795 414.35353271 -155.9804834 415.50394043 -155.80541992 416.68920898 C-147.32416551 471.62776402 -124.75241206 527.1440958 -78.7578125 561.078125 C-54.91558 578.04605222 -25.72640982 588.14744751 3.6171875 588.44140625 C4.42881348 588.45129074 5.24043945 588.46117523 6.07666016 588.47135925 C44.52325495 588.8428184 82.09309345 583.24336679 112.9296875 558.203125 C113.96222656 557.38328125 114.99476563 556.5634375 116.05859375 555.71875 C162.16850634 518.43212777 179.67658792 457.97381876 185.72729683 401.20657349 C187.92477576 379.45391161 188.2560762 357.62732225 188.19042969 335.78515625 C188.1790363 331.96755868 188.18583385 328.15024021 188.19730759 324.33265209 C188.36914222 256.81541776 182.65323399 180.24954158 135.9296875 127.203125 C135.16527344 126.32914063 134.40085937 125.45515625 133.61328125 124.5546875 C131.41389576 122.07619217 129.18312311 119.63247937 126.9296875 117.203125 C126.10597656 116.29820312 126.10597656 116.29820312 125.265625 115.375 C100.48445471 89.25100767 62.14909011 75.00456373 26.7514801 73.91455078 C22.37341435 73.81427767 17.99627784 73.7809822 13.6171875 73.765625 C12.78240875 73.75936096 11.94763 73.75309692 11.08755493 73.74664307 C-33.5234377 73.53498527 -74.44281636 90.84698726 -104.6015625 123.984375 Z " fill="#000000" transform="translate(741.0703125,12.796875)"/>
<path d="M0 0 C1.17349503 -0.00095673 2.34699005 -0.00191345 3.55604553 -0.00289917 C6.03305108 -0.00357842 8.51005843 -0.0017419 10.98706055 0.00244141 C14.76810732 0.00778839 18.54903506 0.00249021 22.33007812 -0.00390625 C24.74088568 -0.00324533 27.15169316 -0.00196388 29.5625 0 C31.25184914 -0.00303635 31.25184914 -0.00303635 32.97532654 -0.00613403 C38.37350534 0.00990019 43.53085633 0.17596905 48.84765625 1.1328125 C48.84765625 1.7928125 48.84765625 2.4528125 48.84765625 3.1328125 C51.15765625 3.4628125 53.46765625 3.7928125 55.84765625 4.1328125 C55.84765625 4.7928125 55.84765625 5.4528125 55.84765625 6.1328125 C57.82765625 6.1328125 59.80765625 6.1328125 61.84765625 6.1328125 C61.84765625 7.1228125 61.84765625 8.1128125 61.84765625 9.1328125 C63.49765625 9.1328125 65.14765625 9.1328125 66.84765625 9.1328125 C66.84765625 9.7928125 66.84765625 10.4528125 66.84765625 11.1328125 C68.49765625 11.4628125 70.14765625 11.7928125 71.84765625 12.1328125 C71.84765625 12.7928125 71.84765625 13.4528125 71.84765625 14.1328125 C73.16765625 14.1328125 74.48765625 14.1328125 75.84765625 14.1328125 C76.17765625 14.7928125 76.50765625 15.4528125 76.84765625 16.1328125 C77.83765625 16.4628125 78.82765625 16.7928125 79.84765625 17.1328125 C79.84765625 17.7928125 79.84765625 18.4528125 79.84765625 19.1328125 C80.44578125 19.2565625 81.04390625 19.3803125 81.66015625 19.5078125 C83.84765625 20.1328125 83.84765625 20.1328125 86.84765625 22.1328125 C86.84765625 22.7928125 86.84765625 23.4528125 86.84765625 24.1328125 C87.83765625 24.4628125 88.82765625 24.7928125 89.84765625 25.1328125 C89.84765625 25.7928125 89.84765625 26.4528125 89.84765625 27.1328125 C90.83765625 27.4628125 91.82765625 27.7928125 92.84765625 28.1328125 C94.03515625 30.1953125 94.03515625 30.1953125 94.84765625 32.1328125 C95.50765625 32.1328125 96.16765625 32.1328125 96.84765625 32.1328125 C96.84765625 33.1228125 96.84765625 34.1128125 96.84765625 35.1328125 C97.83765625 35.1328125 98.82765625 35.1328125 99.84765625 35.1328125 C99.84765625 35.7928125 99.84765625 36.4528125 99.84765625 37.1328125 C100.50765625 37.1328125 101.16765625 37.1328125 101.84765625 37.1328125 C101.84765625 38.1228125 101.84765625 39.1128125 101.84765625 40.1328125 C102.83765625 40.1328125 103.82765625 40.1328125 104.84765625 40.1328125 C104.97140625 40.7721875 105.09515625 41.4115625 105.22265625 42.0703125 C105.42890625 42.7509375 105.63515625 43.4315625 105.84765625 44.1328125 C106.50765625 44.4628125 107.16765625 44.7928125 107.84765625 45.1328125 C107.84765625 46.1228125 107.84765625 47.1128125 107.84765625 48.1328125 C108.50765625 48.1328125 109.16765625 48.1328125 109.84765625 48.1328125 C109.97140625 48.7721875 110.09515625 49.4115625 110.22265625 50.0703125 C110.42890625 50.7509375 110.63515625 51.4315625 110.84765625 52.1328125 C111.50765625 52.4628125 112.16765625 52.7928125 112.84765625 53.1328125 C112.84765625 54.7828125 112.84765625 56.4328125 112.84765625 58.1328125 C113.83765625 58.1328125 114.82765625 58.1328125 115.84765625 58.1328125 C115.84765625 59.7828125 115.84765625 61.4328125 115.84765625 63.1328125 C116.83765625 63.4628125 117.82765625 63.7928125 118.84765625 64.1328125 C118.84765625 66.4428125 118.84765625 68.7528125 118.84765625 71.1328125 C119.50765625 71.1328125 120.16765625 71.1328125 120.84765625 71.1328125 C120.84765625 73.7728125 120.84765625 76.4128125 120.84765625 79.1328125 C121.50765625 79.1328125 122.16765625 79.1328125 122.84765625 79.1328125 C122.84765625 94.3128125 122.84765625 109.4928125 122.84765625 125.1328125 C122.18765625 125.1328125 121.52765625 125.1328125 120.84765625 125.1328125 C120.84765625 127.7728125 120.84765625 130.4128125 120.84765625 133.1328125 C120.18765625 133.1328125 119.52765625 133.1328125 118.84765625 133.1328125 C118.84765625 135.7728125 118.84765625 138.4128125 118.84765625 141.1328125 C118.18765625 141.4628125 117.52765625 141.7928125 116.84765625 142.1328125 C116.12071721 144.11170211 115.44949374 146.11235808 114.84765625 148.1328125 C114.18765625 148.1328125 113.52765625 148.1328125 112.84765625 148.1328125 C112.84765625 149.7828125 112.84765625 151.4328125 112.84765625 153.1328125 C111.85765625 153.1328125 110.86765625 153.1328125 109.84765625 153.1328125 C110.17765625 154.1228125 110.50765625 155.1128125 110.84765625 156.1328125 C110.18765625 156.4628125 109.52765625 156.7928125 108.84765625 157.1328125 C108.19552333 159.15744505 108.19552333 159.15744505 107.84765625 161.1328125 C106.85765625 161.1328125 105.86765625 161.1328125 104.84765625 161.1328125 C104.84765625 162.1228125 104.84765625 163.1128125 104.84765625 164.1328125 C104.18765625 164.1328125 103.52765625 164.1328125 102.84765625 164.1328125 C102.51765625 165.7828125 102.18765625 167.4328125 101.84765625 169.1328125 C100.85765625 169.1328125 99.86765625 169.1328125 98.84765625 169.1328125 C98.84765625 169.7928125 98.84765625 170.4528125 98.84765625 171.1328125 C98.18765625 171.1328125 97.52765625 171.1328125 96.84765625 171.1328125 C96.84765625 172.1228125 96.84765625 173.1128125 96.84765625 174.1328125 C95.85765625 174.1328125 94.86765625 174.1328125 93.84765625 174.1328125 C93.84765625 174.7928125 93.84765625 175.4528125 93.84765625 176.1328125 C93.18765625 176.1328125 92.52765625 176.1328125 91.84765625 176.1328125 C91.78578125 176.8753125 91.72390625 177.6178125 91.66015625 178.3828125 C90.6020515 181.96409011 88.81513389 182.98139121 85.84765625 185.1328125 C85.51765625 185.7928125 85.18765625 186.4528125 84.84765625 187.1328125 C84.18765625 187.1328125 83.52765625 187.1328125 82.84765625 187.1328125 C82.84765625 187.7928125 82.84765625 188.4528125 82.84765625 189.1328125 C81.85765625 189.1328125 80.86765625 189.1328125 79.84765625 189.1328125 C79.84765625 190.1228125 79.84765625 191.1128125 79.84765625 192.1328125 C79.18765625 192.1328125 78.52765625 192.1328125 77.84765625 192.1328125 C77.84765625 192.7928125 77.84765625 193.4528125 77.84765625 194.1328125 C77.04328125 194.7515625 76.23890625 195.3703125 75.41015625 196.0078125 C72.66990334 198.28021735 72.50333035 198.854442 71.84765625 202.1328125 C68.84765625 204.1328125 68.84765625 204.1328125 66.84765625 205.1328125 C66.84765625 205.7928125 66.84765625 206.4528125 66.84765625 207.1328125 C65.85765625 207.1328125 64.86765625 207.1328125 63.84765625 207.1328125 C63.84765625 208.1228125 63.84765625 209.1128125 63.84765625 210.1328125 C62.85765625 210.1328125 61.86765625 210.1328125 60.84765625 210.1328125 C60.84765625 210.7928125 60.84765625 211.4528125 60.84765625 212.1328125 C60.18765625 212.1328125 59.52765625 212.1328125 58.84765625 212.1328125 C58.84765625 213.1228125 58.84765625 214.1128125 58.84765625 215.1328125 C57.85765625 215.1328125 56.86765625 215.1328125 55.84765625 215.1328125 C55.84765625 215.7928125 55.84765625 216.4528125 55.84765625 217.1328125 C55.18765625 217.1328125 54.52765625 217.1328125 53.84765625 217.1328125 C53.70328125 217.7515625 53.55890625 218.3703125 53.41015625 219.0078125 C52.84765625 221.1328125 52.84765625 221.1328125 51.84765625 223.1328125 C50.85765625 223.1328125 49.86765625 223.1328125 48.84765625 223.1328125 C48.51765625 224.7828125 48.18765625 226.4328125 47.84765625 228.1328125 C46.85765625 228.1328125 45.86765625 228.1328125 44.84765625 228.1328125 C44.84765625 228.7928125 44.84765625 229.4528125 44.84765625 230.1328125 C43.85765625 230.1328125 42.86765625 230.1328125 41.84765625 230.1328125 C41.84765625 231.1228125 41.84765625 232.1128125 41.84765625 233.1328125 C41.18765625 233.1328125 40.52765625 233.1328125 39.84765625 233.1328125 C39.84765625 233.7928125 39.84765625 234.4528125 39.84765625 235.1328125 C35.52947443 239.79190341 35.52947443 239.79190341 32.84765625 241.1328125 C32.84765625 241.7928125 32.84765625 242.4528125 32.84765625 243.1328125 C31.3515625 244.5703125 31.3515625 244.5703125 29.41015625 246.1328125 C26.69577387 248.27806294 26.69577387 248.27806294 24.84765625 251.1328125 C22.1171875 251.58203125 22.1171875 251.58203125 18.66015625 251.8203125 C17.53222656 251.90667969 16.40429688 251.99304688 15.2421875 252.08203125 C11.93472651 252.13150995 9.0596992 251.91797856 5.84765625 251.1328125 C5.51765625 250.4728125 5.18765625 249.8128125 4.84765625 249.1328125 C3.85765625 248.8028125 2.86765625 248.4728125 1.84765625 248.1328125 C1.84765625 247.4728125 1.84765625 246.8128125 1.84765625 246.1328125 C1.18765625 245.8028125 0.52765625 245.4728125 -0.15234375 245.1328125 C-1.27734375 243.0703125 -1.27734375 243.0703125 -2.15234375 241.1328125 C-2.81234375 241.1328125 -3.47234375 241.1328125 -4.15234375 241.1328125 C-4.15234375 240.1428125 -4.15234375 239.1528125 -4.15234375 238.1328125 C-4.81234375 238.1328125 -5.47234375 238.1328125 -6.15234375 238.1328125 C-7.77734375 236.7578125 -7.77734375 236.7578125 -9.15234375 235.1328125 C-9.15234375 234.4728125 -9.15234375 233.8128125 -9.15234375 233.1328125 C-9.81234375 233.1328125 -10.47234375 233.1328125 -11.15234375 233.1328125 C-12.77734375 231.7578125 -12.77734375 231.7578125 -14.15234375 230.1328125 C-14.15234375 229.4728125 -14.15234375 228.8128125 -14.15234375 228.1328125 C-15.14234375 228.1328125 -16.13234375 228.1328125 -17.15234375 228.1328125 C-17.64734375 225.6578125 -17.64734375 225.6578125 -18.15234375 223.1328125 C-19.47234375 222.8028125 -20.79234375 222.4728125 -22.15234375 222.1328125 C-22.64734375 219.6578125 -22.64734375 219.6578125 -23.15234375 217.1328125 C-23.81234375 217.1328125 -24.47234375 217.1328125 -25.15234375 217.1328125 C-25.15234375 216.4728125 -25.15234375 215.8128125 -25.15234375 215.1328125 C-26.14234375 215.1328125 -27.13234375 215.1328125 -28.15234375 215.1328125 C-28.15234375 214.1428125 -28.15234375 213.1528125 -28.15234375 212.1328125 C-28.81234375 212.1328125 -29.47234375 212.1328125 -30.15234375 212.1328125 C-30.15234375 211.4728125 -30.15234375 210.8128125 -30.15234375 210.1328125 C-31.14234375 210.1328125 -32.13234375 210.1328125 -33.15234375 210.1328125 C-33.15234375 209.1428125 -33.15234375 208.1528125 -33.15234375 207.1328125 C-34.14234375 207.1328125 -35.13234375 207.1328125 -36.15234375 207.1328125 C-36.15234375 206.4728125 -36.15234375 205.8128125 -36.15234375 205.1328125 C-36.81234375 204.8028125 -37.47234375 204.4728125 -38.15234375 204.1328125 C-40.27734375 202.2578125 -40.27734375 202.2578125 -42.15234375 200.1328125 C-42.15234375 199.1428125 -42.15234375 198.1528125 -42.15234375 197.1328125 C-42.81234375 197.1328125 -43.47234375 197.1328125 -44.15234375 197.1328125 C-45.77734375 195.7578125 -45.77734375 195.7578125 -47.15234375 194.1328125 C-47.15234375 193.4728125 -47.15234375 192.8128125 -47.15234375 192.1328125 C-47.81234375 192.1328125 -48.47234375 192.1328125 -49.15234375 192.1328125 C-50.77734375 190.7578125 -50.77734375 190.7578125 -52.15234375 189.1328125 C-52.15234375 188.4728125 -52.15234375 187.8128125 -52.15234375 187.1328125 C-53.14234375 187.1328125 -54.13234375 187.1328125 -55.15234375 187.1328125 C-55.15234375 186.1428125 -55.15234375 185.1528125 -55.15234375 184.1328125 C-55.81234375 184.1328125 -56.47234375 184.1328125 -57.15234375 184.1328125 C-61.15234375 179.77987132 -61.15234375 179.77987132 -61.15234375 176.1328125 C-62.80234375 175.4728125 -64.45234375 174.8128125 -66.15234375 174.1328125 C-66.15234375 173.1428125 -66.15234375 172.1528125 -66.15234375 171.1328125 C-66.81234375 171.1328125 -67.47234375 171.1328125 -68.15234375 171.1328125 C-68.15234375 170.4728125 -68.15234375 169.8128125 -68.15234375 169.1328125 C-69.14234375 169.1328125 -70.13234375 169.1328125 -71.15234375 169.1328125 C-71.48234375 167.4828125 -71.81234375 165.8328125 -72.15234375 164.1328125 C-72.81234375 164.1328125 -73.47234375 164.1328125 -74.15234375 164.1328125 C-74.15234375 163.1428125 -74.15234375 162.1528125 -74.15234375 161.1328125 C-75.14234375 161.1328125 -76.13234375 161.1328125 -77.15234375 161.1328125 C-78.56611716 158.49376879 -79.5247451 156.06160621 -80.15234375 153.1328125 C-80.81234375 153.1328125 -81.47234375 153.1328125 -82.15234375 153.1328125 C-82.15234375 151.4828125 -82.15234375 149.8328125 -82.15234375 148.1328125 C-83.14234375 148.1328125 -84.13234375 148.1328125 -85.15234375 148.1328125 C-85.81234375 145.8228125 -86.47234375 143.5128125 -87.15234375 141.1328125 C-87.48234375 141.1328125 -87.81234375 141.1328125 -88.15234375 141.1328125 C-88.48234375 138.4928125 -88.81234375 135.8528125 -89.15234375 133.1328125 C-89.81234375 133.1328125 -90.47234375 133.1328125 -91.15234375 133.1328125 C-92.07127944 126.89509164 -92.29868059 120.83517659 -92.28515625 114.53515625 C-92.28611298 113.54205948 -92.2870697 112.54896271 -92.28805542 111.52577209 C-92.2887326 109.43734676 -92.28691073 107.34891927 -92.28271484 105.26049805 C-92.27735436 102.07661183 -92.28267853 98.89286629 -92.2890625 95.70898438 C-92.28840175 93.67187469 -92.28712065 91.63476509 -92.28515625 89.59765625 C-92.28718048 88.65268784 -92.28920471 87.70771942 -92.29129028 86.7341156 C-92.27376035 81.75900352 -91.99969061 77.03724268 -91.15234375 72.1328125 C-89.66734375 71.6378125 -89.66734375 71.6378125 -88.15234375 71.1328125 C-88.15234375 68.4928125 -88.15234375 65.8528125 -88.15234375 63.1328125 C-87.16234375 63.1328125 -86.17234375 63.1328125 -85.15234375 63.1328125 C-85.15234375 61.4828125 -85.15234375 59.8328125 -85.15234375 58.1328125 C-84.49234375 58.1328125 -83.83234375 58.1328125 -83.15234375 58.1328125 C-82.82234375 56.4828125 -82.49234375 54.8328125 -82.15234375 53.1328125 C-81.49234375 53.1328125 -80.83234375 53.1328125 -80.15234375 53.1328125 C-80.15234375 51.4828125 -80.15234375 49.8328125 -80.15234375 48.1328125 C-79.16234375 48.1328125 -78.17234375 48.1328125 -77.15234375 48.1328125 C-77.15234375 47.1428125 -77.15234375 46.1528125 -77.15234375 45.1328125 C-76.49234375 45.1328125 -75.83234375 45.1328125 -75.15234375 45.1328125 C-74.82234375 43.4828125 -74.49234375 41.8328125 -74.15234375 40.1328125 C-73.16234375 40.1328125 -72.17234375 40.1328125 -71.15234375 40.1328125 C-71.15234375 39.1428125 -71.15234375 38.1528125 -71.15234375 37.1328125 C-70.49234375 37.1328125 -69.83234375 37.1328125 -69.15234375 37.1328125 C-69.15234375 36.4728125 -69.15234375 35.8128125 -69.15234375 35.1328125 C-68.49234375 35.1328125 -67.83234375 35.1328125 -67.15234375 35.1328125 C-67.15234375 34.1428125 -67.15234375 33.1528125 -67.15234375 32.1328125 C-65.65625 30.59765625 -65.65625 30.59765625 -63.71484375 29.0703125 C-60.99359182 26.9656792 -60.99359182 26.9656792 -59.15234375 24.1328125 C-58.16234375 24.1328125 -57.17234375 24.1328125 -56.15234375 24.1328125 C-56.15234375 23.4728125 -56.15234375 22.8128125 -56.15234375 22.1328125 C-53.53293158 20.38653772 -52.11409498 19.74558862 -49.15234375 19.1328125 C-49.15234375 18.4728125 -49.15234375 17.8128125 -49.15234375 17.1328125 C-48.16234375 16.8028125 -47.17234375 16.4728125 -46.15234375 16.1328125 C-45.82234375 15.4728125 -45.49234375 14.8128125 -45.15234375 14.1328125 C-43.83234375 14.1328125 -42.51234375 14.1328125 -41.15234375 14.1328125 C-41.15234375 13.4728125 -41.15234375 12.8128125 -41.15234375 12.1328125 C-38.67888071 9.65934946 -37.44473207 9.14968106 -33.90234375 8.9453125 C-32.99484375 9.0071875 -32.08734375 9.0690625 -31.15234375 9.1328125 C-31.15234375 8.1428125 -31.15234375 7.1528125 -31.15234375 6.1328125 C-29.17234375 6.1328125 -27.19234375 6.1328125 -25.15234375 6.1328125 C-25.15234375 5.4728125 -25.15234375 4.8128125 -25.15234375 4.1328125 C-21.68734375 3.6378125 -21.68734375 3.6378125 -18.15234375 3.1328125 C-18.15234375 2.4728125 -18.15234375 1.8128125 -18.15234375 1.1328125 C-12.13375519 -0.18803716 -6.12750702 -0.0109935 0 0 Z " fill="#000000" transform="translate(740.15234375,205.8671875)"/>
<path d="M0 0 C0.75100983 0.00054382 1.50201965 0.00108765 2.27578735 0.00164795 C13.74477293 0.0398275 24.43710207 0.71387408 35.375 4.375 C36.0237207 4.58930664 36.67244141 4.80361328 37.34082031 5.02441406 C51.1810721 9.71521474 63.04369653 17.06097296 73.375 27.375 C74.14585937 28.13425781 74.91671875 28.89351562 75.7109375 29.67578125 C90.80871067 45.41765737 97.375 65.79732001 97.375 87.375 C85.165 87.375 72.955 87.375 60.375 87.375 C59.385 81.435 58.395 75.495 57.375 69.375 C53.02731243 56.91946264 46.45169332 46.6356661 34.7734375 39.8671875 C23.71762912 34.54638059 12.74659476 32.83145696 0.5625 32.9375 C-0.66855469 32.94579834 -1.89960938 32.95409668 -3.16796875 32.96264648 C-17.93474086 33.23679176 -31.35361105 36.16222268 -42.74609375 46.25390625 C-50.73178946 54.75480814 -54.54432113 65.02473708 -54.65625 76.609375 C-54.05563519 89.40247035 -49.96491184 97.62622183 -40.625 106.375 C-29.10929408 116.15546256 -14.37256348 121.0864617 -0.19250488 125.63122559 C3.77456964 126.90440889 7.72999094 128.21307992 11.6875 129.515625 C12.45406921 129.76701233 13.22063843 130.01839966 14.01043701 130.27740479 C43.03952593 139.80424048 74.72399146 152.04623297 90.0234375 180.43359375 C99.10925893 198.89332363 100.59883049 221.09246641 94.6953125 240.8671875 C90.75614667 251.33278191 85.31701672 259.54085447 77.375 267.375 C76.34439453 268.42107422 76.34439453 268.42107422 75.29296875 269.48828125 C52.70500037 291.07047738 21.35988796 293.12331409 -8.2122345 292.61199951 C-17.01520283 292.38695113 -25.24214961 291.07410939 -33.625 288.375 C-34.65197998 288.05354004 -34.65197998 288.05354004 -35.69970703 287.72558594 C-49.93542821 283.14589011 -63.49000665 276.46375236 -74.625 266.375 C-75.45515625 265.63765625 -76.2853125 264.9003125 -77.140625 264.140625 C-94.46046957 247.88334758 -99.96168943 228.66134801 -101.625 205.375 C-89.085 205.375 -76.545 205.375 -63.625 205.375 C-62.965 210.655 -62.305 215.935 -61.625 221.375 C-56.82729596 235.76811211 -48.63186545 244.89605237 -35.625 252.375 C-23.25414916 258.2454269 -11.58240347 259.76875434 2 259.75 C2.66319244 259.74945618 3.32638489 259.74891235 4.00967407 259.74835205 C20.6256187 259.68568159 35.91207518 257.34652498 48.6875 245.75 C57.77182615 236.04883688 59.79756938 225.13971393 59.5859375 212.38671875 C59.21595728 202.6005136 55.32017606 192.99729515 48.1015625 186.25 C32.36694332 174.15371619 12.84079854 168.00929402 -5.82421875 162.0703125 C-35.94149723 152.44134939 -68.15978789 140.66113501 -84.90234375 111.8515625 C-94.4110378 92.66168108 -95.08456642 71.3947847 -88.59375 51.16015625 C-85.74337829 43.67793051 -81.59049045 37.61165601 -76.625 31.375 C-76.16609375 30.75109375 -75.7071875 30.1271875 -75.234375 29.484375 C-62.39363097 12.93064474 -40.13293727 4.00346033 -20.11328125 0.78955078 C-13.42336367 -0.00548562 -6.72761726 -0.01834072 0 0 Z " fill="#000000" transform="translate(225.625,726.625)"/>
<path d="M0 0 C11.88 0 23.76 0 36 0 C36 99 36 198 36 300 C25.11 300 14.22 300 3 300 C2.34 293.4 1.68 286.8 1 280 C0.05125 281.175625 -0.8975 282.35125 -1.875 283.5625 C-12.53029256 295.64560176 -28.86347243 303.17491427 -44.86865234 304.18017578 C-67.95176101 305.16116395 -86.39290267 301.97522001 -104 286 C-126.93596073 263.72378772 -135.48731116 231.75547814 -136.125 200.59375 C-136.57981728 167.29251299 -132.02862369 132.10818656 -108.00585938 107.00390625 C-106.68107085 105.65884975 -105.3409878 104.32890683 -104 103 C-103.36835937 102.33484375 -102.73671875 101.6696875 -102.0859375 100.984375 C-97.98619111 96.9749314 -93.30839459 94.35686767 -88.25 91.75 C-87.30314331 91.2554834 -87.30314331 91.2554834 -86.3371582 90.75097656 C-76.39004384 85.87535598 -66.23184949 84.45813011 -55.25 84.5625 C-54.11473877 84.57079834 -52.97947754 84.57909668 -51.80981445 84.58764648 C-31.02046728 85.00334467 -15.70749345 92.29250655 -1 107 C-0.67 71.69 -0.34 36.38 0 0 Z M-82.25390625 131.28515625 C-101.31033563 153.52368389 -101.79032984 186.17663238 -99.79345703 213.86376953 C-98.02809846 231.05348975 -91.84227954 249.42959137 -78.9375 261.44140625 C-69.23285383 269.24816798 -59.00479777 272.58299642 -46.625 272.4375 C-45.24755615 272.42505249 -45.24755615 272.42505249 -43.84228516 272.41235352 C-31.07687978 272.09552973 -20.05907195 267.69768601 -10.7109375 258.828125 C-8.66989559 256.611263 -6.79217939 254.42360125 -5 252 C-4.58745122 251.45681783 -4.17490244 250.91363565 -3.74985218 250.35399342 C0.06297238 244.90104725 0.73449772 240.64877285 0.69458008 234.08666992 C0.70816055 233.12781387 0.72174103 232.16895782 0.73573303 231.18104553 C0.77284578 228.03046306 0.77307177 224.88124983 0.76953125 221.73046875 C0.78052984 219.52622453 0.79256521 217.32198527 0.80558777 215.11775208 C0.82646113 210.50372659 0.8277923 205.89017756 0.81665039 201.27612305 C0.80497032 195.38459391 0.85245346 189.49522522 0.91611195 183.60409069 C0.95684453 179.05272113 0.96046263 174.5018665 0.95371056 169.95034218 C0.9559067 167.77954444 0.9706858 165.60871932 0.99866676 163.43810081 C1.40957907 147.93955638 1.40957907 147.93955638 -6.02806091 134.889328 C-6.67880081 134.26584976 -7.32954071 133.64237152 -8 133 C-8.86367188 132.05382812 -9.72734375 131.10765625 -10.6171875 130.1328125 C-23.98750971 118.24294119 -37.17212727 116.05199064 -54.54785156 116.81347656 C-65.6463246 117.65768538 -74.58191917 123.50679847 -82.25390625 131.28515625 Z " fill="#000000" transform="translate(827,715)"/>
<path d="M0 0 C1.05445313 0.36222656 2.10890625 0.72445312 3.1953125 1.09765625 C25.79208235 9.62201316 42.04950052 28.1693303 52.00244141 49.64648438 C56.59767773 60.4879132 59.68949566 72.30757818 61 84 C61.10957031 84.87527344 61.21914062 85.75054688 61.33203125 86.65234375 C64.75631174 119.20583693 60.36081482 156.23044962 39.61572266 182.77099609 C25.43211825 199.91733373 6.20915108 211.76991397 -16 215 C-31.46431522 215.86044732 -47.29243502 216.36746669 -62 211 C-63.04285156 210.649375 -64.08570313 210.29875 -65.16015625 209.9375 C-86.16095134 202.13333357 -102.67002635 184.32461962 -112.25390625 164.45703125 C-117.03052282 153.99078013 -120.12976827 143.34271665 -122 132 C-122.1750708 130.94119629 -122.3501416 129.88239258 -122.53051758 128.79150391 C-123.0462132 124.62678576 -123.17980059 120.57374528 -123.203125 116.3828125 C-123.20882507 115.56738983 -123.21452515 114.75196716 -123.22039795 113.91183472 C-123.22980349 112.18895748 -123.23636414 110.46606262 -123.24023438 108.74316406 C-123.24984343 106.16697683 -123.28086841 103.59162227 -123.3125 101.015625 C-123.40297378 86.99370563 -122.01970469 73.32914541 -117.375 60 C-117.12411621 59.2678125 -116.87323242 58.535625 -116.61474609 57.78125 C-112.17801912 45.40609272 -105.93560897 33.70058825 -97 24 C-96.17886719 23.08734375 -95.35773438 22.1746875 -94.51171875 21.234375 C-88.05940392 14.3992166 -81.26153162 9.45086205 -73 5 C-71.66001953 4.27683594 -71.66001953 4.27683594 -70.29296875 3.5390625 C-67.56951854 2.19162836 -64.84630454 1.06357922 -62 0 C-60.948125 -0.39316406 -59.89625 -0.78632812 -58.8125 -1.19140625 C-40.60026967 -6.82385248 -17.9269991 -6.55603684 0 0 Z M-51 31 C-52.10794922 31.49306641 -52.10794922 31.49306641 -53.23828125 31.99609375 C-68.6322969 39.67980795 -77.24643448 53.31802568 -83 69 C-91.29513839 94.086104 -90.77254862 125.80034924 -80 150 C-79.58105469 150.94875 -79.16210938 151.8975 -78.73046875 152.875 C-73.15018171 164.19638927 -64.37223245 173.47912134 -53 179 C-52.33871094 179.32484375 -51.67742187 179.6496875 -50.99609375 179.984375 C-40.20020353 184.92763359 -24.47083083 184.87334441 -13.25 181.375 C0.87279268 175.61386077 11.54162463 164.72611236 18 151 C28.63432865 125.29795773 30.18474014 93.34963728 20.6875 67.125 C19.82219106 65.07021033 18.92739926 63.02752331 18 61 C17.58105469 60.06800781 17.16210938 59.13601563 16.73046875 58.17578125 C11.10986785 46.82119556 2.42780343 37.54785671 -9 32 C-9.66128906 31.67515625 -10.32257813 31.3503125 -11.00390625 31.015625 C-22.28322615 25.851012 -39.75072574 25.78692169 -51 31 Z " fill="#000000" transform="translate(1124,804)"/>
<path d="M0 0 C0.88816406 0.47953125 1.77632812 0.9590625 2.69140625 1.453125 C18.34302222 10.62590705 27.75414279 23.72902394 33 41 C33.92151064 44.83417941 34.10578665 48.37341526 34.0625 52.3125 C34.05347656 53.38113281 34.04445313 54.44976563 34.03515625 55.55078125 C34.01775391 56.76314453 34.01775391 56.76314453 34 58 C29.03377651 58.02465098 24.06758834 58.04283649 19.10131836 58.05493164 C17.41055684 58.0599719 15.71979971 58.06680405 14.02905273 58.07543945 C11.60399293 58.08751857 9.17899056 58.09323123 6.75390625 58.09765625 C5.61327477 58.10539818 5.61327477 58.10539818 4.44960022 58.11329651 C2.6326743 58.11349238 0.81586873 58.06197277 -1 58 C-2.56676359 56.43323641 -2.45977761 54.59668846 -2.8125 52.4375 C-4.68906469 42.89149702 -9.00271525 36.04570031 -17.13671875 30.55859375 C-25.75844266 25.51796982 -33.78329345 23.4519619 -43.75 23.5625 C-45.19862427 23.57494751 -45.19862427 23.57494751 -46.67651367 23.58764648 C-57.36399006 23.83931672 -66.80392072 25.75050029 -75.12109375 32.96484375 C-80.08513882 38.34169922 -82.26801765 43.82735931 -82.5625 51.125 C-82.22802784 58.16699483 -80.26910206 62.62021003 -75.4375 67.6875 C-63.62611242 76.37234381 -47.65158332 78.97439501 -33.75 82.65625 C-9.38303262 89.1797784 16.91021123 97.29415487 30.59765625 120.2890625 C32.55801154 124.07871868 33.98447319 127.8597753 35 132 C35.18304687 132.72445312 35.36609375 133.44890625 35.5546875 134.1953125 C38.43777865 152.35372867 34.89868399 169.48316977 24.22265625 184.5 C11.99884581 199.385655 -7.33847904 207.31351943 -26 210 C-54.68025659 211.52308717 -81.34074534 209.34751744 -104 190 C-104.65226562 189.45988281 -105.30453125 188.91976562 -105.9765625 188.36328125 C-119.89457378 175.74809751 -124.60796029 159.09651617 -126 141 C-114.12 141 -102.24 141 -90 141 C-88.68 145.95 -87.36 150.9 -86 156 C-83.99790924 159.27614851 -82.584795 161.37905402 -80 164 C-79.43667969 164.61230469 -78.87335938 165.22460938 -78.29296875 165.85546875 C-67.6849922 176.32944981 -53.66830993 177.29205616 -39.64282227 177.3190918 C-27.57710107 177.18420635 -16.21618896 175.02246576 -7.25390625 166.30078125 C-1.20327668 159.61171594 -0.44337599 153.56393389 -0.6953125 144.66796875 C-1.26694468 137.78639679 -3.68884087 133.99885351 -8.625 129.3125 C-20.59752418 119.7084062 -36.07779824 117.05951646 -50.6171875 113.2734375 C-73.38485057 107.31952662 -98.94729223 100.61349784 -112.56640625 79.61328125 C-119.94569482 66.16166258 -120.88082157 50.9092594 -117.0234375 36.1875 C-111.70942205 19.63697861 -99.98180531 7.66516984 -84.98046875 -0.6796875 C-59.72925567 -13.1963184 -24.98074794 -13.70284479 0 0 Z " fill="#000000" transform="translate(1345,809)"/>
<path d="M0 0 C11.88 0 23.76 0 36 0 C36.01458252 4.48110352 36.02916504 8.96220703 36.04418945 13.57910156 C36.09458048 28.40312621 36.16103492 43.22704693 36.23571491 58.05096817 C36.28059214 67.03657098 36.32002524 76.02213487 36.34643555 85.0078125 C36.36948121 92.84394742 36.40295205 100.67995834 36.44870156 108.51599479 C36.47254559 112.66129857 36.49133193 116.80648021 36.49761391 120.95185089 C36.50370498 124.8622071 36.52384795 128.77225115 36.55427551 132.6824913 C36.56299183 134.10937957 36.56679178 135.53630873 36.56500816 136.9632225 C36.55410095 149.72768988 38.31873582 160.0630131 45 171 C45.29777344 171.70125 45.59554687 172.4025 45.90234375 173.125 C47.28854117 175.49288172 48.49265902 175.9629564 51 177 C51.66 177.34160156 52.32 177.68320312 53 178.03515625 C53.66 178.37417969 54.32 178.71320313 55 179.0625 C55.66 179.40410156 56.32 179.74570312 57 180.09765625 C68.23350001 185.16589551 85.72956909 183.15685107 97.05859375 179.2578125 C108.47790189 174.3746555 116.90442767 167.28550415 122.74469376 156.23801231 C125.08009722 150.21393236 124.83139908 144.08080396 124.77294922 137.70629883 C124.78113632 136.19729033 124.79194808 134.68829416 124.80516052 133.17932129 C124.83340838 129.11579359 124.8253075 125.05308268 124.81029272 120.98951554 C124.80086655 116.73069357 124.82540569 112.47206479 124.84622192 108.21330261 C124.8804688 100.16354419 124.88451358 92.11407022 124.87749684 84.06425351 C124.87098938 74.89359136 124.89847193 65.72312737 124.92869925 56.55252421 C124.99007824 37.70160062 125.00464532 18.85103092 125 0 C136.55 0 148.1 0 160 0 C160 69.63 160 139.26 160 211 C148.78 211 137.56 211 126 211 C125.505 202.09 125.505 202.09 125 193 C123.3603125 194.7634375 123.3603125 194.7634375 121.6875 196.5625 C106.9219374 211.19876695 87.80256799 215.36474693 67.6875 215.3125 C66.45837891 215.32861328 65.22925781 215.34472656 63.96289062 215.36132812 C46.98109283 215.3702895 32.57482948 211.13086636 20.1796875 199.2109375 C19.46039063 198.48132813 18.74109375 197.75171875 18 197 C17.13761719 196.15308594 17.13761719 196.15308594 16.2578125 195.2890625 C1.45847626 179.56956027 -0.33823771 155.03517877 -0.22705078 134.64111328 C-0.22648492 133.16123462 -0.22680663 131.68135539 -0.22793579 130.20147705 C-0.22850348 126.23130759 -0.21684513 122.26126199 -0.20278788 118.29112101 C-0.19018185 114.12449702 -0.18910231 109.95786937 -0.18673706 105.79122925 C-0.18055103 97.92224053 -0.16417967 90.0533082 -0.14403808 82.18434417 C-0.12158887 73.21684621 -0.11066309 64.24934538 -0.10064721 55.28182626 C-0.07981049 36.8545125 -0.04317077 18.4272759 0 0 Z " fill="#000000" transform="translate(488,804)"/>
<path d="M0 0 C11.88 0 23.76 0 36 0 C36 16.83 36 33.66 36 51 C48.21 51 60.42 51 73 51 C73 60.24 73 69.48 73 79 C60.79 79 48.58 79 36 79 C36.04033082 97.09845635 36.09714558 115.19660759 36.18390274 133.2948904 C36.22366229 141.698794 36.2560704 150.10260437 36.27099609 158.5065918 C36.28402866 165.8340315 36.31103408 173.16126581 36.35461307 180.48858982 C36.37719203 184.36612045 36.39291284 188.2433981 36.39188385 192.12100029 C36.39113511 195.77617747 36.40917067 199.43079619 36.44116783 203.08582878 C36.45365171 205.05572511 36.4466195 207.02571539 36.43885803 208.99563599 C36.5215171 216.06778794 37.11508843 221.9405355 41 228 C46.19967105 233.0728498 50.78176806 233.15860884 57.75 233.125 C58.53632813 233.12886719 59.32265625 233.13273438 60.1328125 233.13671875 C61.29683594 233.13478516 61.29683594 233.13478516 62.484375 233.1328125 C63.18272461 233.13168457 63.88107422 233.13055664 64.60058594 233.12939453 C67.75168148 232.95946366 70.87604193 232.44627972 74 232 C74 242.23 74 252.46 74 263 C64.79586239 265.12403176 57.48680491 266.4775062 48.3125 266.375 C47.26255859 266.38660156 46.21261719 266.39820313 45.13085938 266.41015625 C33.26903495 266.36592322 23.08446659 263.14454726 14.02734375 255.2890625 C-2.67832171 237.88579783 -0.43048304 212.13984041 -0.30418181 189.90569496 C-0.28522285 185.99667572 -0.28364964 182.087647 -0.28010559 178.17858887 C-0.27084085 170.8019106 -0.24630393 163.42536828 -0.21605712 156.04874945 C-0.18233788 147.63985151 -0.16598339 139.23094653 -0.15097082 130.82199764 C-0.11974826 113.54790667 -0.06480742 96.27400259 0 79 C-12.21 79 -24.42 79 -37 79 C-37 69.76 -37 60.52 -37 51 C-24.79 51 -12.58 51 0 51 C0 34.17 0 17.34 0 0 Z " fill="#000000" transform="translate(376,753)"/>
<path d="M0 0 C1.13751709 -0.00604248 2.27503418 -0.01208496 3.44702148 -0.01831055 C10.29307954 0.08453485 15.49677983 0.43427983 20.5625 5.5 C23.13311311 6.14767793 23.13311311 6.14767793 25.5625 6.5 C25.5625 7.16 25.5625 7.82 25.5625 8.5 C26.8825 8.5 28.2025 8.5 29.5625 8.5 C29.5625 9.16 29.5625 9.82 29.5625 10.5 C30.573125 10.685625 31.58375 10.87125 32.625 11.0625 C36.82134373 12.22626334 39.04975972 14.64793935 41.88671875 17.84375 C43.45810848 19.6045431 43.45810848 19.6045431 45.57421875 20.3359375 C50.57192981 23.26190586 52.68985461 31.71441275 54.35546875 37.03125 C54.80504971 38.84309509 55.18988031 40.67077606 55.5625 42.5 C55.8925 43.49 56.2225 44.48 56.5625 45.5 C57.84474321 60.70041042 55.24744882 72.83945242 48.5625 86.5 C47.9025 86.5 47.2425 86.5 46.5625 86.5 C46.48 87.056875 46.3975 87.61375 46.3125 88.1875 C45.32354459 91.23677919 43.71492534 93.15189963 41.5625 95.5 C40.9025 95.5 40.2425 95.5 39.5625 95.5 C39.0675 96.985 39.0675 96.985 38.5625 98.5 C28.51543733 108.81860491 12.30516688 111.55380278 -1.56201172 111.7487793 C-10.20995004 111.75322325 -17.58634681 111.5090995 -25.4375 107.5 C-26.448125 107.37625 -27.45875 107.2525 -28.5 107.125 C-32.42441514 106.29001805 -33.66547869 104.37274882 -36.4375 101.5 C-37.90290652 100.21604355 -39.36846269 98.93222941 -40.84082031 97.65625 C-46.56037851 92.6466306 -51.40390297 87.63161407 -54.4375 80.5 C-54.4375 79.51 -54.4375 78.52 -54.4375 77.5 C-55.4275 77.17 -56.4175 76.84 -57.4375 76.5 C-59.86146375 70.70331538 -59.75529502 63.99395263 -59.6875 57.8125 C-59.68363281 56.94979492 -59.67976562 56.08708984 -59.67578125 55.19824219 C-59.57747942 47.83925828 -58.78050555 40.74263709 -57.4375 33.5 C-56.7775 33.5 -56.1175 33.5 -55.4375 33.5 C-55.1075 31.85 -54.7775 30.2 -54.4375 28.5 C-53.7775 28.5 -53.1175 28.5 -52.4375 28.5 C-52.4375 27.18 -52.4375 25.86 -52.4375 24.5 C-50.4375 22.25 -50.4375 22.25 -49.05859375 20.99609375 C-47.83799866 19.86961683 -46.67170139 18.68388198 -45.53515625 17.47265625 C-41.74595058 13.45071626 -39.0093339 10.72308549 -33.4375 9.5 C-33.1075 9.17 -32.7775 8.84 -32.4375 8.5 C-30.77132885 8.45936168 -29.10361905 8.457279 -27.4375 8.5 C-27.1075 7.51 -26.7775 6.52 -26.4375 5.5 C-18.44982637 0.03636967 -9.31650768 0.02262073 0 0 Z " fill="#FDFA00" transform="translate(756.4375,252.5)"/>
<path d="M0 0 C11.55 0 23.1 0 35 0 C35 69.63 35 139.26 35 211 C23.45 211 11.9 211 0 211 C0 141.37 0 71.74 0 0 Z " fill="#000000" transform="translate(920,804)"/>
<path d="M0 0 C1.21465942 -0.00630432 2.42931885 -0.01260864 3.68078613 -0.019104 C5.65734192 -0.01303131 5.65734192 -0.01303131 7.67382812 -0.00683594 C9.03381418 -0.0081827 10.39379977 -0.01012333 11.75378418 -0.01263428 C14.6052712 -0.01558503 17.45663299 -0.01128958 20.30810547 -0.00195312 C23.96690589 0.00944152 27.62541292 0.00288177 31.28420258 -0.00909805 C34.09285704 -0.01631805 36.90144172 -0.01402811 39.71009827 -0.00884247 C41.71652415 -0.00685555 43.72295272 -0.01293957 45.72937012 -0.019104 C46.94402954 -0.01279968 48.15868896 -0.00649536 49.41015625 0 C50.48334106 0.00159119 51.55652588 0.00318237 52.66223145 0.00482178 C55.20507812 0.25878906 55.20507812 0.25878906 57.20507812 2.25878906 C59.55054352 2.53455893 61.90865124 2.70850212 64.26757812 2.82128906 C71.1078559 3.16156684 71.1078559 3.16156684 72.20507812 4.25878906 C74.78529955 4.54100078 77.36537998 4.70699103 79.95507812 4.87988281 C80.69757813 5.00492187 81.44007813 5.12996094 82.20507812 5.25878906 C82.53507813 5.91878906 82.86507812 6.57878906 83.20507812 7.25878906 C86.23442303 7.91651334 86.23442303 7.91651334 89.20507812 8.25878906 C89.20507812 8.91878906 89.20507812 9.57878906 89.20507812 10.25878906 C90.85507812 10.25878906 92.50507812 10.25878906 94.20507812 10.25878906 C94.20507812 11.24878906 94.20507812 12.23878906 94.20507812 13.25878906 C95.52507812 13.25878906 96.84507812 13.25878906 98.20507812 13.25878906 C98.20507812 14.24878906 98.20507812 15.23878906 98.20507812 16.25878906 C98.86507812 16.25878906 99.52507812 16.25878906 100.20507812 16.25878906 C100.20507812 16.91878906 100.20507812 17.57878906 100.20507812 18.25878906 C101.19507813 18.25878906 102.18507813 18.25878906 103.20507812 18.25878906 C103.28658556 20.32062539 103.34449753 22.38340255 103.39257812 24.44628906 C103.42738281 25.59484375 103.4621875 26.74339844 103.49804688 27.92675781 C103.17580858 31.5916814 102.41740206 33.35543621 100.20507812 36.25878906 C99.21507812 36.91878906 98.22507812 37.57878906 97.20507812 38.25878906 C97.20507812 38.58878906 97.20507812 38.91878906 97.20507812 39.25878906 C95.55507813 39.25878906 93.90507813 39.25878906 92.20507812 39.25878906 C92.20507812 39.91878906 92.20507812 40.57878906 92.20507812 41.25878906 C89.73007812 41.75378906 89.73007812 41.75378906 87.20507812 42.25878906 C87.20507812 42.91878906 87.20507812 43.57878906 87.20507812 44.25878906 C85.15429688 44.48665365 83.10351562 44.71451823 81.05273438 44.94238281 C79.19367584 45.0776552 79.19367584 45.0776552 78.20507812 46.25878906 C75.87210379 46.29971844 73.53802588 46.30120629 71.20507812 46.25878906 C71.20507812 46.91878906 71.20507812 47.57878906 71.20507812 48.25878906 C40.51507812 48.25878906 9.82507813 48.25878906 -21.79492188 48.25878906 C-21.79492188 47.59878906 -21.79492188 46.93878906 -21.79492188 46.25878906 C-23.49648438 46.28972656 -23.49648438 46.28972656 -25.23242188 46.32128906 C-28.79492188 46.25878906 -28.79492188 46.25878906 -29.79492188 45.25878906 C-31.85369868 44.97925687 -33.9122062 44.81144556 -35.98242188 44.63769531 C-36.87960937 44.45013672 -36.87960937 44.45013672 -37.79492188 44.25878906 C-38.12492188 43.59878906 -38.45492187 42.93878906 -38.79492188 42.25878906 C-40.90819612 41.35153472 -40.90819612 41.35153472 -43.35742188 40.63378906 C-44.18371094 40.37339844 -45.01 40.11300781 -45.86132812 39.84472656 C-46.81845703 39.5546875 -46.81845703 39.5546875 -47.79492188 39.25878906 C-47.79492188 38.26878906 -47.79492188 37.27878906 -47.79492188 36.25878906 C-48.78492188 36.25878906 -49.77492188 36.25878906 -50.79492188 36.25878906 C-53.91934077 32.39150133 -54.12989944 29.31304855 -53.98242188 24.44628906 C-53.95535156 23.28484375 -53.92828125 22.12339844 -53.90039062 20.92675781 C-53.86558594 20.04632813 -53.83078125 19.16589844 -53.79492188 18.25878906 C-52.14492188 17.59878906 -50.49492188 16.93878906 -48.79492188 16.25878906 C-48.79492188 15.26878906 -48.79492188 14.27878906 -48.79492188 13.25878906 C-47.80492187 12.92878906 -46.81492187 12.59878906 -45.79492188 12.25878906 C-45.46492187 11.59878906 -45.13492188 10.93878906 -44.79492188 10.25878906 C-43.14492188 10.25878906 -41.49492188 10.25878906 -39.79492188 10.25878906 C-39.79492188 9.59878906 -39.79492188 8.93878906 -39.79492188 8.25878906 C-37.81492187 7.92878906 -35.83492187 7.59878906 -33.79492188 7.25878906 C-33.79492188 6.59878906 -33.79492188 5.93878906 -33.79492188 5.25878906 C-33.01246094 5.19820313 -32.23 5.13761719 -31.42382812 5.07519531 C-30.41191406 4.99140625 -29.4 4.90761719 -28.35742188 4.82128906 C-27.34808594 4.74007813 -26.33875 4.65886719 -25.29882812 4.57519531 C-22.85851409 4.52667438 -22.85851409 4.52667438 -21.79492188 3.25878906 C-18.20487007 2.97285573 -14.61477343 2.80968736 -11.01757812 2.63769531 C-6.53067874 2.11014472 -4.9279527 0.00730656 0 0 Z M-1.79492188 20.25878906 C-3.67431641 20.57763672 -3.67431641 20.57763672 -5.92773438 20.67285156 C-7.13623047 20.73085938 -7.13623047 20.73085938 -8.36914062 20.79003906 C-9.63177734 20.83644531 -9.63177734 20.83644531 -10.91992188 20.88378906 C-12.19416016 20.94179688 -12.19416016 20.94179688 -13.49414062 21.00097656 C-15.59403871 21.095354 -17.69445078 21.17816492 -19.79492188 21.25878906 C-19.79492188 21.91878906 -19.79492188 22.57878906 -19.79492188 23.25878906 C-20.39820313 23.22398437 -21.00148438 23.18917969 -21.62304688 23.15332031 C-26.72017675 22.90734416 -26.72017675 22.90734416 -31.35742188 24.75878906 C-31.83179688 25.25378906 -32.30617188 25.74878906 -32.79492188 26.25878906 C-30.48492188 26.25878906 -28.17492187 26.25878906 -25.79492188 26.25878906 C-25.79492188 26.91878906 -25.79492188 27.57878906 -25.79492188 28.25878906 C-24.62123047 28.33226562 -24.62123047 28.33226562 -23.42382812 28.40722656 C-22.41191406 28.48199219 -21.4 28.55675781 -20.35742188 28.63378906 C-19.34808594 28.70339844 -18.33875 28.77300781 -17.29882812 28.84472656 C-16.47253906 28.98136719 -15.64625 29.11800781 -14.79492188 29.25878906 C-14.46492187 29.91878906 -14.13492188 30.57878906 -13.79492188 31.25878906 C2.54007813 31.75378906 2.54007813 31.75378906 19.20507812 32.25878906 C19.20507812 32.58878906 19.20507812 32.91878906 19.20507812 33.25878906 C23.22312503 34.09977562 26.22311355 34.31283851 30.20507812 33.25878906 C30.20507812 32.92878906 30.20507812 32.59878906 30.20507812 32.25878906 C31.16397949 32.23896973 32.12288086 32.21915039 33.11083984 32.19873047 C36.66319365 32.12274761 40.21513388 32.03401976 43.76708984 31.94140625 C45.30541834 31.90308606 46.84383737 31.8682385 48.38232422 31.83691406 C50.59180089 31.79132847 52.80065261 31.73332567 55.00976562 31.67285156 C56.04422318 31.65552475 56.04422318 31.65552475 57.09957886 31.6378479 C61.09709353 31.60927884 61.09709353 31.60927884 64.20507812 29.25878906 C66.80664062 28.84472656 66.80664062 28.84472656 69.83007812 28.63378906 C71.33441406 28.52164062 71.33441406 28.52164062 72.86914062 28.40722656 C74.02542969 28.33375 74.02542969 28.33375 75.20507812 28.25878906 C75.20507812 27.59878906 75.20507812 26.93878906 75.20507812 26.25878906 C77.51507812 26.25878906 79.82507813 26.25878906 82.20507812 26.25878906 C78.51543079 23.79902417 76.93079334 23.13413599 72.58007812 23.19628906 C71.7628125 23.2053125 70.94554687 23.21433594 70.10351562 23.22363281 C69.16378906 23.24103516 69.16378906 23.24103516 68.20507812 23.25878906 C68.20507812 22.59878906 68.20507812 21.93878906 68.20507812 21.25878906 C66.41650391 21.1853125 66.41650391 21.1853125 64.59179688 21.11035156 C63.02536745 21.03531303 61.45896233 20.95976566 59.89257812 20.88378906 C59.10689453 20.85285156 58.32121094 20.82191406 57.51171875 20.79003906 C56.75439453 20.75136719 55.99707031 20.71269531 55.21679688 20.67285156 C54.52030029 20.64143066 53.82380371 20.61000977 53.10620117 20.57763672 C51.20507812 20.25878906 51.20507812 20.25878906 48.20507812 18.25878906 C45.97819429 17.95618559 45.97819429 17.95618559 43.48999023 18 C42.53567612 17.99369568 41.581362 17.98739136 40.59812927 17.980896 C39.56994583 17.98494446 38.54176239 17.98899292 37.48242188 17.99316406 C35.89778893 17.99029388 35.89778893 17.99029388 34.28114319 17.98736572 C32.04769655 17.98600442 29.81424199 17.989697 27.58081055 17.99804688 C24.15265235 18.00875759 20.72501696 17.99814405 17.296875 17.98535156 C15.12955613 17.98667296 12.96223759 17.98923494 10.79492188 17.99316406 C9.7647142 17.9891156 8.73450653 17.98506714 7.67308044 17.980896 C6.24633751 17.99035248 6.24633751 17.99035248 4.79077148 18 C3.53193398 18.00238678 3.53193398 18.00238678 2.24766541 18.00482178 C-0.02014948 18.07437898 -0.02014948 18.07437898 -1.79492188 20.25878906 Z M6.20507812 32.25878906 C6.20507812 32.58878906 6.20507812 32.91878906 6.20507812 33.25878906 C9.83507812 33.25878906 13.46507812 33.25878906 17.20507812 33.25878906 C17.20507812 32.92878906 17.20507812 32.59878906 17.20507812 32.25878906 C13.57507813 32.25878906 9.94507813 32.25878906 6.20507812 32.25878906 Z M32.20507812 32.25878906 C32.20507812 32.58878906 32.20507812 32.91878906 32.20507812 33.25878906 C35.83507812 33.25878906 39.46507812 33.25878906 43.20507812 33.25878906 C43.20507812 32.92878906 43.20507812 32.59878906 43.20507812 32.25878906 C39.57507813 32.25878906 35.94507813 32.25878906 32.20507812 32.25878906 Z " fill="#FFFB00" transform="translate(730.794921875,461.7412109375)"/>
<path d="M0 0 C0.70672852 0.00572021 1.41345703 0.01144043 2.14160156 0.01733398 C7.95464754 0.21651196 12.08592972 1.23712899 16.125 5.5 C20.72958153 11.5851107 21.96005576 18.0424881 21.125 25.5 C19.50714987 31.50538935 17.63972387 36.19116568 12.125 39.5 C11.57585938 39.85449219 11.02671875 40.20898438 10.4609375 40.57421875 C7.09652189 41.90760755 3.81414464 41.82884929 0.25 41.8125 C-0.44480469 41.82861328 -1.13960937 41.84472656 -1.85546875 41.86132812 C-6.62336074 41.86581767 -9.83781424 41.01584157 -13.875 38.5 C-20.00496967 32.09139535 -21.28826573 27.09993775 -21.12890625 18.44140625 C-20.60967782 12.42634461 -18.09477799 7.84034308 -13.875 3.5 C-9.28013199 0.703714 -5.29774204 -0.04951747 0 0 Z " fill="#000000" transform="translate(937.875,726.5)"/>
<path d="M0 0 C0.66 0.33 1.32 0.66 2 1 C1.28972656 1.67546875 0.57945312 2.3509375 -0.15234375 3.046875 C-1.07144531 3.93890625 -1.99054687 4.8309375 -2.9375 5.75 C-3.85402344 6.63171875 -4.77054688 7.5134375 -5.71484375 8.421875 C-7.82429343 10.80176695 -8.66067071 11.9099375 -9 15 C-9.66 15 -10.32 15 -11 15 C-11 15.99 -11 16.98 -11 18 C-11.99 18.33 -12.98 18.66 -14 19 C-15.7430594 23.36802384 -15.42983426 28.56108926 -15.71875 33.19921875 C-16 36 -16 36 -17 37 C-17.09909302 39.33160055 -17.12970504 41.66629942 -17.125 44 C-17.12757813 45.27875 -17.13015625 46.5575 -17.1328125 47.875 C-17.35860893 50.86687244 -17.35860893 50.86687244 -16 52 C-15.78882853 53.91227495 -15.63108293 55.8305714 -15.5 57.75 C-15.23547119 61.58566768 -14.83450339 65.24473474 -14 69 C-14.33 68.01 -14.66 67.02 -15 66 C-15.99 65.67 -16.98 65.34 -18 65 C-20.42396375 59.20331538 -20.31779502 52.49395263 -20.25 46.3125 C-20.24613281 45.44979492 -20.24226562 44.58708984 -20.23828125 43.69824219 C-20.13997942 36.33925828 -19.34300555 29.24263709 -18 22 C-17.34 22 -16.68 22 -16 22 C-15.67 20.35 -15.34 18.7 -15 17 C-14.34 17 -13.68 17 -13 17 C-13 15.68 -13 14.36 -13 13 C-11.38804743 11.18655336 -9.7831895 9.63070774 -8 8 C-6.55717598 6.56784381 -5.11990253 5.13007946 -3.6875 3.6875 C-1.84375 1.84375 -1.84375 1.84375 0 0 Z " fill="#AAA304" transform="translate(717,264)"/>
<path d="M0 0 C0.98355469 -0.020625 1.96710937 -0.04125 2.98046875 -0.0625 C3.92277344 -0.06765625 4.86507812 -0.0728125 5.8359375 -0.078125 C6.68462402 -0.0874707 7.53331055 -0.09681641 8.40771484 -0.10644531 C11.12785107 0.3308371 11.84817643 1.21224208 13.625 3.25 C15.53426046 4.2831496 17.47600535 5.25733209 19.4375 6.1875 C23.7578159 8.28743536 27.73478648 10.44040135 31.625 13.25 C30.965 13.58 30.305 13.91 29.625 14.25 C27 13.3125 27 13.3125 24.625 12.25 C24.625 11.59 24.625 10.93 24.625 10.25 C23.305 10.25 21.985 10.25 20.625 10.25 C20.625 9.59 20.625 8.93 20.625 8.25 C19.861875 8.311875 19.09875 8.37375 18.3125 8.4375 C15.06961116 8.21125194 14.75027385 7.55238001 12.625 5.25 C3.11806981 0.66570844 -12.92073756 1.51272558 -22.94140625 4.30078125 C-28.58769108 6.12874001 -28.58769108 6.12874001 -32.375 10.25 C-35.54545938 11.49061454 -37.95738295 12.25 -41.375 12.25 C-36.68394037 7.3120425 -31.89786937 3.64202451 -25.1875 2.1875 C-24.14529297 1.95353516 -24.14529297 1.95353516 -23.08203125 1.71484375 C-15.40008587 0.39572182 -7.78610966 0.04180462 0 0 Z " fill="#787206" transform="translate(761.375,250.75)"/>
<path d="M0 0 C0 0.99 0 1.98 0 3 C-0.66 3 -1.32 3 -2 3 C-2.0825 3.556875 -2.165 4.11375 -2.25 4.6875 C-3.23895541 7.73677919 -4.84757466 9.65189963 -7 12 C-7.66 12 -8.32 12 -9 12 C-9.33 12.99 -9.66 13.98 -10 15 C-16.80000136 21.98378518 -26.38128325 25.44507403 -36 26 C-33.45528982 22.88979866 -30.84103748 21.99866974 -27 21 C-24.125 20.875 -24.125 20.875 -22 21 C-22 20.34 -22 19.68 -22 19 C-20.35 18.67 -18.7 18.34 -17 18 C-17 17.34 -17 16.68 -17 16 C-16.154375 15.67 -15.30875 15.34 -14.4375 15 C-9.29930687 12.01050582 -4.90656007 7.71968022 -3 2 C-2.01 1.34 -1.02 0.68 0 0 Z " fill="#857E06" transform="translate(805,336)"/>
<path d="M0 0 C4.53771537 1.31326821 9.04038131 2.647421 13.4765625 4.27734375 C22.48519835 7.54890098 30.39255879 8.85009666 40 9 C40 9.33 40 9.66 40 10 C37.14576808 10.02718316 34.29179985 10.04692705 31.4375 10.0625 C30.23770508 10.07506836 30.23770508 10.07506836 29.01367188 10.08789062 C21.54530315 10.11837376 15.72243479 9.43273266 9 6 C7.948125 5.87625 6.89625 5.7525 5.8125 5.625 C3 5 3 5 1.125 2.4375 C0.75375 1.633125 0.3825 0.82875 0 0 Z " fill="#A39E05" transform="translate(722,354)"/>
<path d="M0 0 C0.66 0.33 1.32 0.66 2 1 C1.28972656 1.67546875 0.57945312 2.3509375 -0.15234375 3.046875 C-1.07144531 3.93890625 -1.99054687 4.8309375 -2.9375 5.75 C-3.85402344 6.63171875 -4.77054688 7.5134375 -5.71484375 8.421875 C-7.82429343 10.80176695 -8.66067071 11.9099375 -9 15 C-9.66 15 -10.32 15 -11 15 C-11 15.99 -11 16.98 -11 18 C-11.99 18.33 -12.98 18.66 -14 19 C-15.01754868 20.8653245 -15.01754868 20.8653245 -15.6875 23.0625 C-15.93886719 23.79597656 -16.19023438 24.52945312 -16.44921875 25.28515625 C-16.63097656 25.85105469 -16.81273437 26.41695313 -17 27 C-17.33 27 -17.66 27 -18 27 C-18 25.35 -18 23.7 -18 22 C-17.34 22 -16.68 22 -16 22 C-15.67 20.35 -15.34 18.7 -15 17 C-14.34 17 -13.68 17 -13 17 C-13 15.68 -13 14.36 -13 13 C-11.38804743 11.18655336 -9.7831895 9.63070774 -8 8 C-6.55717598 6.56784381 -5.11990253 5.13007946 -3.6875 3.6875 C-2.45833333 2.45833333 -1.22916667 1.22916667 0 0 Z " fill="#676106" transform="translate(717,264)"/>
<path d="M0 0 C1.77697266 -0.01836914 1.77697266 -0.01836914 3.58984375 -0.03710938 C4.73324219 -0.03904297 5.87664063 -0.04097656 7.0546875 -0.04296875 C8.09866699 -0.04707764 9.14264648 -0.05118652 10.21826172 -0.05541992 C13.22124131 0.19554301 15.40579975 0.92369487 18.125 2.1875 C18.125 2.5175 18.125 2.8475 18.125 3.1875 C16.72894531 2.94386719 16.72894531 2.94386719 15.3046875 2.6953125 C10.29599617 1.98122704 5.29993047 2.04168985 0.25 2.0625 C-0.71164062 2.05863281 -1.67328125 2.05476562 -2.6640625 2.05078125 C-4.03304687 2.05271484 -4.03304687 2.05271484 -5.4296875 2.0546875 C-6.25968262 2.05581543 -7.08967773 2.05694336 -7.94482422 2.05810547 C-9.88219045 1.97528159 -9.88219045 1.97528159 -10.875 3.1875 C-13.54558851 3.32865161 -16.19932238 3.22997107 -18.875 3.1875 C-12.90440398 -0.79289735 -6.94746444 0.00375539 0 0 Z " fill="#D0CA05" transform="translate(755.875,252.8125)"/>
<path d="M0 0 C-7.87595295 3.04875598 -15.58249611 3.8711664 -24 3 C-24.66 2.34 -25.32 1.68 -26 1 C-22.41770965 0.63470654 -18.83408482 0.28470822 -15.25 -0.0625 C-13.72632813 -0.2181543 -13.72632813 -0.2181543 -12.171875 -0.37695312 C-10.70234375 -0.51713867 -10.70234375 -0.51713867 -9.203125 -0.66015625 C-8.30239258 -0.74918213 -7.40166016 -0.83820801 -6.47363281 -0.92993164 C-4.08313137 -0.99764521 -2.27129331 -0.7068821 0 0 Z " fill="#403B05" transform="translate(773,363)"/>
<path d="M0 0 C2.0362816 3.05442241 2.25488704 3.69129629 2.265625 7.1328125 C2.26820313 7.93976563 2.27078125 8.74671875 2.2734375 9.578125 C2.26570312 10.41859375 2.25796875 11.2590625 2.25 12.125 C2.25773438 12.94226563 2.26546875 13.75953125 2.2734375 14.6015625 C2.25540072 20.30118637 1.45574793 25.4936915 0 31 C-0.33 31 -0.66 31 -1 31 C-1.02687279 29.18757948 -1.04633715 27.37504767 -1.0625 25.5625 C-1.07410156 24.55316406 -1.08570313 23.54382813 -1.09765625 22.50390625 C-1 20 -1 20 0 19 C0.08651611 17.58429877 0.10704904 16.164405 0.09765625 14.74609375 C0.09443359 13.89208984 0.09121094 13.03808594 0.08789062 12.15820312 C0.07951172 11.26037109 0.07113281 10.36253906 0.0625 9.4375 C0.05573242 8.08495117 0.05573242 8.08495117 0.04882812 6.70507812 C0.03700225 4.46998686 0.0205222 2.23502563 0 0 Z " fill="#D3CD04" transform="translate(811,295)"/>
<path d="M0 0 C0.99 0 1.98 0 3 0 C3 1.32 3 2.64 3 4 C3.66 4 4.32 4 5 4 C5.350625 4.845625 5.70125 5.69125 6.0625 6.5625 C8.44496074 10.78944647 11.46473355 13.72624641 15 17 C12 17 12 17 10.09765625 15.49609375 C0 5.28214971 0 5.28214971 0 0 Z " fill="#726A05" transform="translate(703,333)"/>
<path d="M0 0 C0.69770122 2.170626 1.1083614 3.57834885 0.53344727 5.81542969 C-0.08503427 8.34823187 -0.11280945 10.59677505 -0.09765625 13.203125 C-0.09443359 14.1828125 -0.09121094 15.1625 -0.08789062 16.171875 C-0.07951172 17.18765625 -0.07113281 18.2034375 -0.0625 19.25 C-0.05798828 20.28125 -0.05347656 21.3125 -0.04882812 22.375 C-0.03706088 24.91672573 -0.02062011 27.45833319 0 30 C-0.66 29.67 -1.32 29.34 -2 29 C-2.05794812 24.72922344 -2.09357874 20.45854764 -2.125 16.1875 C-2.14175781 14.97255859 -2.15851562 13.75761719 -2.17578125 12.50585938 C-2.18222656 11.34248047 -2.18867187 10.17910156 -2.1953125 8.98046875 C-2.20578613 7.90692139 -2.21625977 6.83337402 -2.22705078 5.72729492 C-2 3 -2 3 0 0 Z " fill="#433D04" transform="translate(698,292)"/>
<path d="M0 0 C6.71068533 0.29176893 11.59762716 3.09828628 17 7 C17.33 7.66 17.66 8.32 18 9 C15.69 8.34 13.38 7.68 11 7 C11 6.34 11 5.68 11 5 C9.68 5 8.36 5 7 5 C7 4.34 7 3.68 7 3 C5.824375 3.0928125 5.824375 3.0928125 4.625 3.1875 C3.75875 3.125625 2.8925 3.06375 2 3 C1.34 2.01 0.68 1.02 0 0 Z " fill="#A9A406" transform="translate(775,256)"/>
<path d="M0 0 C3.60401481 -0.08701039 7.20776012 -0.14039388 10.8125 -0.1875 C12.34874023 -0.22520508 12.34874023 -0.22520508 13.91601562 -0.26367188 C15.39038086 -0.27817383 15.39038086 -0.27817383 16.89453125 -0.29296875 C18.25348511 -0.31653442 18.25348511 -0.31653442 19.63989258 -0.34057617 C22.47752878 0.06890997 23.22326113 0.81403654 25 3 C25.66 3.66 26.32 4.32 27 5 C21.25 4.125 21.25 4.125 19 3 C19 2.34 19 1.68 19 1 C12.73 1 6.46 1 0 1 C0 0.67 0 0.34 0 0 Z " fill="#413C05" transform="translate(750,251)"/>
<path d="M0 0 C0.33 0 0.66 0 1 0 C1.08142927 1.7492214 1.13938541 3.49954542 1.1875 5.25 C1.23970703 6.71179688 1.23970703 6.71179688 1.29296875 8.203125 C0.96075202 11.37468742 0.11327721 12.67040307 -2 15 C-2.19392201 9.47322267 -1.7479503 5.24385089 0 0 Z " fill="#C9C304" transform="translate(700,289)"/>
<path d="M0 0 C-4.33664919 3.11696661 -7.80408388 3.55966813 -13 4 C-9.68492165 -0.05176242 -5.01001751 -1.92692981 0 0 Z " fill="#B8B305" transform="translate(782,358)"/>
<path d="M0 0 C3 1 3 1 4.6875 3.9375 C6 7 6 7 6 9 C5.34 9 4.68 9 4 9 C1.98217268 6.09432866 0.64505596 3.48330216 0 0 Z " fill="#888005" transform="translate(801,273)"/>
<path d="M0 0 C1.98 0.66 3.96 1.32 6 2 C6 2.66 6 3.32 6 4 C6.66 4.33 7.32 4.66 8 5 C5.6875 5.3125 5.6875 5.3125 3 5 C1.1875 2.5 1.1875 2.5 0 0 Z " fill="#655F05" transform="translate(722,354)"/>
<path d="M0 0 C0.33 0 0.66 0 1 0 C1.125 5.75 1.125 5.75 0 8 C-0.99 8 -1.98 8 -3 8 C-1.125 1.125 -1.125 1.125 0 0 Z " fill="#524C05" transform="translate(809,328)"/>
<path d="M0 0 C0.99 0 1.98 0 3 0 C3 1.32 3 2.64 3 4 C3.66 4 4.32 4 5 4 C5.33 5.32 5.66 6.64 6 8 C1.125 3.375 1.125 3.375 0 0 Z " fill="#ACA406" transform="translate(703,333)"/>
</svg>
