<?xml version="1.0" encoding="UTF-8"?>
<svg version="1.1" xmlns="http://www.w3.org/2000/svg" width="1510" height="1080">
<path d="M0 0 C1.99183626 0.00314132 3.98365424 -0.02111404 5.9753418 -0.0456543 C31.27037268 -0.05814567 54.66309069 8.76504287 72.76245117 26.56567383 C79.25178209 33.20650338 84.31530192 40.22402211 88.82495117 48.31567383 C89.44756836 49.39977539 90.07018555 50.48387695 90.71166992 51.60083008 C101.70915778 71.99747241 105.92338005 96.08295668 106.02807617 119.05395508 C106.03377625 120.05541061 106.03947632 121.05686615 106.04534912 122.08866882 C106.05474064 124.20054082 106.06130963 126.31242708 106.06518555 128.42431641 C106.07480963 131.5817381 106.10585628 134.73848466 106.13745117 137.89575195 C106.33086331 174.92121554 98.0814338 210.8906384 71.82495117 238.31567383 C53.04739769 256.26602231 28.65559757 263.98716086 3.01245117 263.75317383 C2.31317505 263.75046478 1.61389893 263.74775574 0.89343262 263.7449646 C-26.36742512 263.58502323 -49.24051482 253.92024015 -68.86254883 234.94067383 C-95.51548643 207.57748964 -101.41483765 169.40317107 -101.36254883 132.75317383 C-101.36161224 131.9070755 -101.36067566 131.06097717 -101.35971069 130.1892395 C-101.27363196 94.36309965 -94.98905798 61.05087619 -72.17504883 32.31567383 C-71.39129883 31.26379883 -70.60754883 30.21192383 -69.80004883 29.12817383 C-57.06682793 15.48543715 -41.04463733 7.0123832 -23.17504883 2.31567383 C-22.43810791 2.12062256 -21.70116699 1.92557129 -20.94189453 1.72460938 C-13.990668 0.106323 -7.11656787 -0.02335002 0 0 Z M-42.60473633 46.44848633 C-63.04849028 69.25352493 -66.74361145 99.34340382 -66.56616211 128.71582031 C-66.55004411 131.87909924 -66.56613321 135.04110445 -66.58520508 138.2043457 C-66.61330219 164.94251669 -62.7165062 193.59744159 -44.17504883 214.31567383 C-43.50860352 215.07493164 -42.8421582 215.83418945 -42.15551758 216.61645508 C-31.74855345 227.77347068 -18.57608714 233.97381944 -3.37036133 234.65942383 C6.85143125 234.90731665 17.1890463 235.14083606 26.82495117 231.31567383 C27.79948242 230.93668945 28.77401367 230.55770508 29.77807617 230.16723633 C46.70647011 222.6579744 57.06242027 208.10404996 63.82495117 191.31567383 C69.5767738 175.96452559 71.42002638 159.6105223 71.82495117 143.31567383 C71.84686523 142.46408691 71.8687793 141.6125 71.89135742 140.73510742 C72.60155433 107.76421586 71.24662434 70.91216717 47.19995117 45.56567383 C32.63805187 31.77019028 15.92616765 28.76585238 -3.36645508 29.07348633 C-18.73218624 29.56702706 -31.51718301 35.81348621 -42.60473633 46.44848633 Z " fill="#000000" transform="translate(745.175048828125,197.684326171875)"/>
<path d="M0 0 C10.52766605 6.65559981 17.81210902 15.4363213 20.64453125 27.671875 C22.37994519 44.13902509 18.04300485 54.60173038 8.39453125 67.734375 C7.81703125 68.37375 7.23953125 69.013125 6.64453125 69.671875 C5.98453125 69.671875 5.32453125 69.671875 4.64453125 69.671875 C4.42152344 70.21328125 4.19851563 70.7546875 3.96875 71.3125 C2.22375023 74.42158514 -0.10850423 76.85052803 -2.54296875 79.421875 C-3.53457333 80.48500676 -4.52545768 81.54881074 -5.515625 82.61328125 C-5.99918457 83.13164551 -6.48274414 83.65000977 -6.98095703 84.18408203 C-9.41673062 86.82060144 -11.76461438 89.53220356 -14.11328125 92.24609375 C-16.19349835 94.63376432 -16.19349835 94.63376432 -18.48046875 95.171875 C-25.72987355 93.91110895 -30.84803967 84.73358167 -35.14453125 79.3203125 C-37.35851146 76.57759716 -37.35851146 76.57759716 -40.12890625 73.9609375 C-42.35546875 71.671875 -42.35546875 71.671875 -42.35546875 69.671875 C-43.01546875 69.671875 -43.67546875 69.671875 -44.35546875 69.671875 C-55.14255146 58.47997903 -58.8701046 47.58920643 -58.62890625 32.4921875 C-58.17221427 20.81262924 -52.42480975 12.33635917 -44.16796875 4.421875 C-31.96072059 -5.18294883 -13.9594879 -6.95045831 0 0 Z " fill="#010000" transform="translate(766.35546875,295.328125)"/>
<path d="M0 0 C0.79108154 -0.0100708 1.58216309 -0.0201416 2.3972168 -0.03051758 C11.69059638 0.1052295 19.72717044 2.88798444 26.4375 9.4375 C31.25642043 15.75112279 32.56607315 20.59453774 32.4375 28.4375 C28.1475 28.4375 23.8575 28.4375 19.4375 28.4375 C18.98177083 26.22395833 18.52604167 24.01041667 18.0703125 21.796875 C17.43622098 19.43273131 16.70979163 17.52736531 15.4375 15.4375 C13.02797977 14.19035597 13.02797977 14.19035597 10.4375 13.4375 C9.4475 13.1075 8.4575 12.7775 7.4375 12.4375 C-4.34407463 11.45543064 -4.34407463 11.45543064 -14.5625 16.4375 C-17.13559226 20.64961679 -17.32495789 24.62815022 -16.5625 29.4375 C-12.31791315 37.32030415 -3.39383557 39.18187817 4.6484375 41.8359375 C26.01410187 48.93408599 26.01410187 48.93408599 31.59765625 59.20703125 C34.14881669 65.98243875 34.12166624 72.7391455 31.43359375 79.44140625 C27.8442329 86.63420387 22.70703228 89.4705852 15.4375 92.4375 C2.65858679 96.15844819 -11.46537057 93.86800479 -22.875 87.625 C-27.52176494 83.84274946 -32.10477042 79.41419128 -33.5625 73.4375 C-33.7036103 70.74632499 -33.6539999 68.13674718 -33.5625 65.4375 C-29.2725 65.4375 -24.9825 65.4375 -20.5625 65.4375 C-20.2221875 67.2628125 -20.2221875 67.2628125 -19.875 69.125 C-18.50808533 74.53530563 -15.64638386 77.17426067 -10.9140625 80.04296875 C-6.84315211 81.73680909 -3.55069657 81.97610809 0.8125 81.9375 C1.56474854 81.93105469 2.31699707 81.92460938 3.09204102 81.91796875 C8.07085422 81.75357653 12.09486275 81.25544727 16.109375 78.0546875 C18.55480401 75.07701806 19.46671917 72.27982086 19.4375 68.4375 C17.92046473 63.08325788 16.02099145 60.47763029 11.4375 57.4375 C7.79110472 55.95280285 4.0594721 54.76611628 0.3125 53.5625 C-23.04980478 45.70228531 -23.04980478 45.70228531 -29.5625 35.4375 C-32.21986269 29.73164765 -32.03888605 23.46767421 -30.5625 17.4375 C-27.44563061 10.29363535 -22.26616083 5.5586166 -15.375 2.125 C-10.28182858 0.22086601 -5.37625886 0.04433705 0 0 Z " fill="#000000" transform="translate(570.5625,474.5625)"/>
<path d="M0 0 C3.96 0 7.92 0 12 0 C12 31.68 12 63.36 12 96 C8.37 96 4.74 96 1 96 C1 94.35 1 92.7 1 91 C0.45730469 91.34933594 -0.08539062 91.69867187 -0.64453125 92.05859375 C-1.35996094 92.51363281 -2.07539062 92.96867188 -2.8125 93.4375 C-3.52019531 93.88996094 -4.22789062 94.34242188 -4.95703125 94.80859375 C-11.31075534 98.51392042 -21.6148159 98.08485925 -28.62109375 96.3515625 C-36.68245887 92.67444858 -40.92272664 85.43323845 -44.0234375 77.44140625 C-47.65629929 64.6392013 -46.96519182 50.03959798 -40.5546875 38.26171875 C-36.91140205 32.96156228 -32.19030374 28.88976462 -26 27 C-23.34362307 26.75927459 -20.84116613 26.61972556 -18.1875 26.625 C-17.47843506 26.62443604 -16.76937012 26.62387207 -16.03881836 26.62329102 C-10.20261758 26.74601016 -5.2764201 27.7235799 -1 32 C-0.67 21.44 -0.34 10.88 0 0 Z M-29.25 44.8125 C-33.83342691 53.16088474 -34.23155229 62.36116341 -32.5 71.6953125 C-30.85231959 77.21878659 -28.19857681 82.01114134 -23.171875 85.13671875 C-18.44327894 87.01625064 -12.61739433 86.91490901 -7.83203125 85.2421875 C-4.39366172 83.38004281 -1.94886456 81.36105436 0 78 C0.55539255 73.44712345 0.47279419 68.88322575 0.44604492 64.30102539 C0.43753928 62.07278942 0.46629942 59.84712319 0.49804688 57.61914062 C0.4996593 56.19531326 0.49908057 54.77148139 0.49609375 53.34765625 C0.49794678 52.05867432 0.4997998 50.76969238 0.50170898 49.44165039 C-0.08161745 45.4401162 -1.18777875 43.84511273 -4 41 C-12.64291671 34.88671745 -22.86039495 36.82549369 -29.25 44.8125 Z " fill="#000000" transform="translate(771,471)"/>
<path d="M0 0 C8.95370456 5.97566716 12.99068482 12.63198191 15.28125 23.05078125 C17.04725501 34.05751015 16.02808787 45.41935535 10.09765625 55.06640625 C5.59158036 61.22731894 0.18368452 65.23791193 -7.21484375 67.19140625 C-18.38331667 68.46267203 -27.15389736 67.38744606 -36.46484375 60.94140625 C-44.42879516 52.97745484 -47.2539235 43.3498007 -47.58984375 32.19140625 C-47.23392229 21.28597265 -44.54347443 12.42667165 -37.21484375 4.19140625 C-27.92342281 -4.37443735 -11.15870586 -6.17061384 0 0 Z M-30.52734375 15.00390625 C-35.00226106 23.45652784 -35.88571109 33.72469805 -33.4921875 42.98828125 C-31.32624757 48.21459784 -28.3079016 52.31702644 -23.390625 55.296875 C-18.68466351 57.23164193 -12.894269 57.05510377 -8.08203125 55.50390625 C-2.65411036 52.68420709 -0.02588979 48.61868845 1.8671875 42.953125 C3.92171109 34.53394961 4.26208204 24.89183185 0.1328125 17.0625 C-2.59276346 13.27829453 -6.04357542 10.27704041 -10.21484375 8.19140625 C-18.88076529 7.31475415 -24.77232847 8.00456335 -30.52734375 15.00390625 Z " fill="#000000" transform="translate(876.21484375,500.80859375)"/>
<path d="M0 0 C1.16692383 -0.0309375 1.16692383 -0.0309375 2.35742188 -0.0625 C9.09657505 -0.10746516 14.30144343 1.33387309 20.0625 5 C25.346512 10.284012 26.80483533 15.01577847 27.3125 22.25 C23.0225 22.25 18.7325 22.25 14.3125 22.25 C13.40104167 20.23177083 12.48958333 18.21354167 11.578125 16.1953125 C10.02030385 13.8008837 9.00743222 13.17033587 6.3125 12.25 C3.43519942 11.89664185 3.43519942 11.89664185 0.375 11.9375 C-0.64464844 11.92074219 -1.66429687 11.90398437 -2.71484375 11.88671875 C-6.11395768 12.30211638 -7.97381542 13.18566138 -10.6875 15.25 C-11.93427006 18.14706707 -11.93427006 18.14706707 -11.6875 21.25 C-8.97057815 24.61749696 -6.60650227 25.90403323 -2.4765625 27.03125 C-1.47882812 27.31613281 -0.48109375 27.60101562 0.546875 27.89453125 C1.58328125 28.17683594 2.6196875 28.45914063 3.6875 28.75 C13.62894396 31.47829101 19.96900068 33.91282947 26.3125 42.25 C28.54832805 46.7216561 27.97714469 52.86368532 26.6640625 57.578125 C23.95332484 63.64832386 19.69425765 66.84756521 13.65625 69.3515625 C4.44345604 71.82696275 -6.77360624 71.76510746 -15.5 67.8125 C-20.78940477 64.66404478 -24.28733151 60.93964244 -26.6875 55.25 C-27.36239255 52.4815632 -27.58318263 50.11872754 -27.6875 47.25 C-23.3975 47.25 -19.1075 47.25 -14.6875 47.25 C-14.31625 48.3225 -13.945 49.395 -13.5625 50.5 C-11.71249053 54.64570304 -9.96956584 56.40428197 -5.6875 58.25 C0.98536254 58.98863132 6.74614298 59.40764804 12.3125 55.25 C14.57135068 52.44333909 14.57135068 52.44333909 14.375 49.3125 C13.11662781 45.68542721 11.68866963 44.95335957 8.3918457 43.18481445 C4.84042847 41.58819867 1.1489768 40.72451139 -2.625 39.8125 C-10.96609927 37.64577243 -17.95426765 35.12987882 -23.6875 28.25 C-25.4381054 22.99818379 -25.7447037 17.18942151 -23.8515625 11.92578125 C-18.56317801 2.6089965 -10.16992372 0.06577154 0 0 Z " fill="#000000" transform="translate(929.6875,497.75)"/>
<path d="M0 0 C4.29 0 8.58 0 13 0 C13.01981934 1.48322754 13.03963867 2.96645508 13.06005859 4.49462891 C13.13623892 10.00749434 13.22493759 15.52010013 13.31738281 21.03271484 C13.35562114 23.41677721 13.39048293 25.80089625 13.421875 28.18505859 C13.46763683 31.61576569 13.52561389 35.04608432 13.5859375 38.4765625 C13.59748871 39.53928375 13.60903992 40.602005 13.62094116 41.69692993 C13.71638446 49.063289 13.71638446 49.063289 16 56 C21.46209997 57.82069999 28.60731751 58.22849479 34.08203125 56.24609375 C37.02108553 54.34872959 39.14059364 51.92534362 41 49 C41.46668964 46.62553659 41.46668964 46.62553659 41.43237305 44.04785156 C41.45216721 43.06713684 41.47196136 42.08642212 41.49235535 41.07598877 C41.49874527 40.02481873 41.50513519 38.97364868 41.51171875 37.890625 C41.52966995 36.80867859 41.54762115 35.72673218 41.56611633 34.61199951 C41.62027636 31.15803926 41.65413403 27.70421765 41.6875 24.25 C41.72066796 21.90753277 41.75515713 19.56508384 41.79101562 17.22265625 C41.87600647 11.48187078 41.94279102 5.74112684 42 0 C45.96 0 49.92 0 54 0 C54 22.44 54 44.88 54 68 C50.04 68 46.08 68 42 68 C41.67 66.68 41.34 65.36 41 64 C40.0925 64.639375 39.185 65.27875 38.25 65.9375 C31.30082312 70.34755456 22.96898696 69.56921335 15 69 C9.66519898 67.57325089 5.8501896 64.75031601 3 60 C-0.1108284 53.01552192 -0.40242825 46.52267535 -0.29296875 38.96484375 C-0.28872391 37.84557999 -0.28447906 36.72631622 -0.28010559 35.57313538 C-0.26342531 32.02767017 -0.22579232 28.48279098 -0.1875 24.9375 C-0.17243943 22.52149263 -0.15875343 20.10547628 -0.14648438 17.68945312 C-0.11355659 11.79274584 -0.06184778 5.89647199 0 0 Z " fill="#000000" transform="translate(658,499)"/>
<path d="M0 0 C4.52097949 4.07660971 7.54586253 8.46723293 8.3359375 14.61328125 C8.44229333 21.96246879 7.48603723 27.29092247 2.3515625 32.75390625 C-3.69359136 38.23150199 -8.9674442 39.47724075 -17.0625 39.30859375 C-23.70356376 38.61092881 -27.55359383 34.82027687 -31.73828125 29.87890625 C-35.52461841 24.24042893 -35.73138283 18.59170348 -35 12 C-33.21702809 5.76493656 -29.32650319 1.55100213 -24 -2 C-15.94442682 -5.85266543 -7.39852691 -4.75619587 0 0 Z " fill="#FBF700" transform="translate(761,314)"/>
<path d="M0 0 C4.29 0 8.58 0 13 0 C13 5.28 13 10.56 13 16 C17.29 16 21.58 16 26 16 C26 19.3 26 22.6 26 26 C21.71 26 17.42 26 13 26 C13.09336477 32.37233546 13.19941996 38.74428327 13.31738281 45.11621094 C13.35572991 47.28509693 13.39057255 49.45404777 13.421875 51.62304688 C13.46740138 54.73591332 13.52541573 57.84833106 13.5859375 60.9609375 C13.59748871 61.934935 13.60903992 62.9089325 13.62094116 63.91244507 C13.64081085 64.81322784 13.66068054 65.71401062 13.68115234 66.64208984 C13.69447601 67.43706879 13.70779968 68.23204773 13.7215271 69.05111694 C13.83467008 71.23465372 13.83467008 71.23465372 16 73 C18.43252661 73.46162427 18.43252661 73.46162427 21.125 73.625 C22.03507813 73.69976563 22.94515625 73.77453125 23.8828125 73.8515625 C24.93082031 73.92503906 24.93082031 73.92503906 26 74 C26.02688151 75.64574566 26.04634123 77.29161413 26.0625 78.9375 C26.07410156 79.85402344 26.08570313 80.77054688 26.09765625 81.71484375 C26 84 26 84 25 85 C22.58646168 85.18153617 20.22875181 85.27814571 17.8125 85.3125 C16.49894531 85.34988281 15.18539062 85.38726563 13.83203125 85.42578125 C9.44982794 84.93886977 7.39299461 83.75175902 4 81 C-0.78032824 74.73612161 -0.13929521 67.30381759 -0.09765625 59.7890625 C-0.0962413 58.82092621 -0.09482635 57.85278992 -0.09336853 56.85531616 C-0.08779365 53.77851201 -0.07524577 50.70178197 -0.0625 47.625 C-0.05748175 45.53255314 -0.05291941 43.44010513 -0.04882812 41.34765625 C-0.03783245 36.2317425 -0.02058515 31.11588379 0 26 C-3.96 26 -7.92 26 -12 26 C-12 22.7 -12 19.4 -12 16 C-8.04 16 -4.08 16 0 16 C0 10.72 0 5.44 0 0 Z " fill="#000000" transform="translate(620,483)"/>
<path d="M0 0 C4.29 0 8.58 0 13 0 C13 22.44 13 44.88 13 68 C8.71 68 4.42 68 0 68 C0 45.56 0 23.12 0 0 Z " fill="#000000" transform="translate(801,499)"/>
<path d="M0 0 C1.05123047 -0.01611328 2.10246094 -0.03222656 3.18554688 -0.04882812 C11.67958675 -0.0540488 22.13580797 0.2045744 28.6875 6.3125 C29.25 9.25 29.25 9.25 28.6875 12.3125 C24.43701786 16.9493896 19.12904735 18.13033123 13.00634766 18.5871582 C5.54996939 18.63704144 5.54996939 18.63704144 2.5546875 18.62817383 C0.32502135 18.62501772 -1.90331016 18.64850405 -4.1328125 18.67382812 C-21.11167682 18.75143847 -21.11167682 18.75143847 -27.02880859 13.9074707 C-28.97600741 11.48810025 -28.51215121 9.30726822 -28.3125 6.3125 C-19.25211899 0.52927808 -10.599449 -0.03213902 0 0 Z M-21.3125 10.3125 C-10.88177594 12.964379 -0.93700346 13.72045762 9.75 12.5 C10.83958008 12.3767334 10.83958008 12.3767334 11.95117188 12.25097656 C15.54533281 11.78444302 18.57789249 11.22672592 21.6875 9.3125 C11.04393865 5.91561872 -12.84838778 1.84838778 -21.3125 10.3125 Z " fill="#FFFB00" transform="translate(747.3125,391.6875)"/>
<path d="M0 0 C1.17369141 -0.02513672 1.17369141 -0.02513672 2.37109375 -0.05078125 C5.08860315 0.39971496 5.95264626 1.10339471 7.5625 3.3125 C8.21701338 9.42129153 8.21701338 9.42129153 6.3203125 12.00390625 C3.52249906 14.08672292 1.0441993 13.78837261 -2.3359375 13.65625 C-4.4375 13.3125 -4.4375 13.3125 -6.5625 11.75 C-7.80307904 8.29410125 -7.28682967 5.84048477 -6.4375 2.3125 C-4.02263057 -0.10236943 -3.31042211 0.0163075 0 0 Z " fill="#000000" transform="translate(807.4375,474.6875)"/>
</svg>
