<?xml version="1.0" encoding="UTF-8"?>
<svg version="1.1" xmlns="http://www.w3.org/2000/svg" width="1510" height="1080">
<path d="M0 0 C0 16.83 0 33.66 0 51 C-112.17272831 51.7462993 -224.3446362 52.18348307 -397.5704987 52.51765925 C-400.35150862 52.52258154 -403.13251853 52.52750448 -405.91352844 52.53242874 C-406.60432652 52.53365149 -407.29512459 52.53487424 -408.00685594 52.53613404 C-418.60598678 52.55491443 -429.20511624 52.57435965 -439.804245 52.59428024 C-440.866154 52.59627568 -440.866154 52.59627568 -441.94951572 52.59831142 C-444.81910769 52.60370499 -447.68869965 52.60910078 -450.55829161 52.6144985 C-524.67277452 52.75385287 -598.78728662 52.8790854 -1228 53 C-1228 36.17 -1228 19.34 -1228 2 C-1115.18704208 1.26063346 -1002.37489467 0.81830597 -828.67253476 0.48234075 C-825.89935672 0.47741841 -823.12617868 0.47249547 -820.35300064 0.46757126 C-819.66413698 0.46634851 -818.97527333 0.46512576 -818.26553501 0.46386596 C-807.69371404 0.44508158 -797.12189443 0.42563635 -786.55007553 0.40571976 C-785.84381215 0.40438947 -785.13754877 0.40305918 -784.40988347 0.40168858 C-781.54700319 0.39629492 -778.68412292 0.39089913 -775.82124266 0.3855015 C-701.88452902 0.24615906 -627.94778609 0.12091673 0 0 Z " fill="#FFFFFF" transform="translate(1370,963)"/>
<path d="M0 0 C405.24 0 810.48 0 1228 0 C1228 16.83 1228 33.66 1228 51 C822.76 51 417.52 51 0 51 C0 34.17 0 17.34 0 0 Z " fill="#FFFFFF" transform="translate(142,515)"/>
<path d="M0 0 C405.24 0 810.48 0 1228 0 C1228 16.83 1228 33.66 1228 51 C822.76 51 417.52 51 0 51 C0 34.17 0 17.34 0 0 Z " fill="#FFFFFF" transform="translate(142,54)"/>
</svg>
