<?xml version="1.0" encoding="UTF-8"?>
<svg version="1.1" xmlns="http://www.w3.org/2000/svg" width="360" height="360">
<path d="M0 0 C0.76280273 0.00337372 1.52560547 0.00674744 2.31152344 0.01022339 C14.47672378 0.08790808 26.05194193 0.8369122 37.75 4.4375 C38.53681152 4.67887695 39.32362305 4.92025391 40.13427734 5.16894531 C71.10730903 15.02428259 98.40909412 34.69356376 115.75 62.4375 C116.33104492 63.35668213 116.33104492 63.35668213 116.92382812 64.29443359 C135.1412856 93.56391531 142.21491163 131.05459373 134.9140625 164.921875 C129.16038641 188.29684638 119.83261487 207.77539607 104.75 226.4375 C104.07710937 227.2728125 103.40421875 228.108125 102.7109375 228.96875 C98.79519314 233.61757891 94.45380627 237.59894237 89.75 241.4375 C88.34621094 242.59765625 88.34621094 242.59765625 86.9140625 243.78125 C62.81595102 263.27276116 33.48735534 273.59743246 2.57446289 273.67773438 C0.34937698 273.68734079 -1.87474334 273.71837503 -4.09960938 273.75 C-40.95160027 274.02302695 -74.01726498 257.44670166 -99.875 232 C-107.25 224.56374585 -107.25 224.56374585 -107.25 221.4375 C-107.91 221.4375 -108.57 221.4375 -109.25 221.4375 C-110.48339844 219.88378906 -110.48339844 219.88378906 -111.859375 217.703125 C-112.6160144 216.51046021 -112.6160144 216.51046021 -113.38793945 215.29370117 C-113.91991943 214.43365479 -114.45189941 213.5736084 -115 212.6875 C-115.54422607 211.81005127 -116.08845215 210.93260254 -116.64916992 210.02856445 C-136.46046648 177.78804841 -142.10965709 140.76455233 -133.6640625 103.87841797 C-124.67063656 67.80062364 -101.85124988 37.78504983 -70.25 18.4375 C-61.81999078 13.45429566 -53.00447814 9.79102786 -43.75 6.625 C-42.94473877 6.34688477 -42.13947754 6.06876953 -41.30981445 5.78222656 C-27.66816073 1.34710224 -14.26305664 -0.12330103 0 0 Z M-89.875 59.1875 C-112.87047074 85.6343705 -119.9786865 117.06631361 -118.25 151.4375 C-117.58700391 157.94995426 -116.16085059 164.1851383 -114.25 170.4375 C-114.04101074 171.12553711 -113.83202148 171.81357422 -113.61669922 172.52246094 C-104.38363215 201.75013243 -83.43691232 227.23482202 -56.41333008 241.74243164 C-28.66454437 255.89283799 1.59080848 259.42178739 31.75 251.4375 C32.42466309 251.26089844 33.09932617 251.08429688 33.79443359 250.90234375 C49.39292629 246.65357399 63.29955673 238.62246603 75.75 228.4375 C76.42417969 227.90382813 77.09835937 227.37015625 77.79296875 226.8203125 C82.30475722 223.13518726 86.03642836 218.91139342 89.75 214.4375 C90.7090625 213.31021484 90.7090625 213.31021484 91.6875 212.16015625 C112.00786739 187.67252601 121.00791125 157.27554509 118.44140625 125.6328125 C115.14714185 98.05428048 104.35895234 74.21972733 84.75 54.4375 C83.60724609 53.22126953 83.60724609 53.22126953 82.44140625 51.98046875 C62.85346985 31.48471355 34.01068928 19.07902167 5.75390625 18.234375 C-32.2624289 17.68770303 -63.71944245 31.51767333 -89.875 59.1875 Z " fill="#FCFCFC" transform="translate(180.25,43.5625)"/>
<path d="M0 0 C5.29276243 3.09990417 8.50047361 7.24360833 10.44921875 13.08984375 C10.56628108 15.0982604 10.62597842 17.11020364 10.65454102 19.12182617 C10.68445885 20.98341621 10.68445885 20.98341621 10.71498108 22.88261414 C10.73196402 24.23684565 10.74884288 25.59107848 10.765625 26.9453125 C10.78620103 28.33108634 10.80719767 29.716854 10.82859802 31.10261536 C10.88375176 34.74725328 10.93319049 38.39194721 10.98144531 42.03668213 C11.03170931 45.75692725 11.08736979 49.47709118 11.14257812 53.19726562 C11.25007774 60.49472288 11.35154082 67.79224772 11.44921875 75.08984375 C12.04089844 74.57292969 12.63257813 74.05601562 13.2421875 73.5234375 C14.03238281 72.86472656 14.82257813 72.20601563 15.63671875 71.52734375 C16.41402344 70.86605469 17.19132812 70.20476562 17.9921875 69.5234375 C20.44921875 68.08984375 20.44921875 68.08984375 23.1875 68.25 C25.44921875 69.08984375 25.44921875 69.08984375 26.44921875 71.08984375 C26.44921875 81.40023586 21.12547913 90.4396951 14.44921875 98.08984375 C7.34426692 104.51368178 -0.64455733 110.20593231 -10.55078125 110.08984375 C-16.51683192 109.64705093 -20.29751701 107.14027874 -24.7890625 103.33203125 C-30.44016875 96.13971421 -30.01861473 87.91361518 -30.0625 79.18359375 C-30.07937343 77.8497963 -30.0975272 76.5160145 -30.11689758 75.18225098 C-30.16411543 71.69715262 -30.19410597 68.2121177 -30.22033691 64.72680664 C-30.25028621 61.1601916 -30.29676656 57.59379462 -30.34179688 54.02734375 C-30.42750797 47.04830193 -30.49499515 40.06918725 -30.55078125 33.08984375 C-31.14246094 33.61835938 -31.73414063 34.146875 -32.34375 34.69140625 C-33.13394531 35.35914063 -33.92414063 36.026875 -34.73828125 36.71484375 C-35.51558594 37.38773438 -36.29289063 38.060625 -37.09375 38.75390625 C-39.55078125 40.08984375 -39.55078125 40.08984375 -42.29492188 39.44458008 C-44.55078125 38.08984375 -44.55078125 38.08984375 -45.45703125 35.7890625 C-45.79544542 26.04555464 -38.89266842 17.01694179 -32.75390625 10.05078125 C-23.9771225 0.92447956 -12.74628853 -4.54806314 0 0 Z " fill="#FEFEFE" transform="translate(189.55078125,151.91015625)"/>
<path d="M0 0 C4.02751752 3.8886376 6.66221821 8.02576555 7.30078125 13.6484375 C7.32972227 20.38204922 7.01154853 25.68322696 2.265625 30.91015625 C-2.6231586 35.52418264 -6.73856338 37.84643472 -13.6015625 38.09375 C-20.62907552 37.86143552 -25.06676533 36.01467958 -30 31 C-34.74524794 24.9163488 -35.71669792 19.56372274 -35 12 C-32.94163249 5.82489748 -30.1817347 1.15079497 -24.5625 -2.25 C-15.94857857 -6.4814 -7.76386884 -5.52429129 0 0 Z " fill="#FDFDFD" transform="translate(189,104)"/>
<path d="M0 0 C1.69575238 1.64276012 3.3528967 3.30892064 5 5 C5.88945312 5.89525391 5.88945312 5.89525391 6.796875 6.80859375 C11.21877185 11.48696062 14.73403217 16.45324135 18.0625 21.9375 C18.46887695 22.60056152 18.87525391 23.26362305 19.29394531 23.94677734 C20.26442711 25.5926907 21.14128117 27.2931117 22 29 C21.67 29.66 21.34 30.32 21 31 C20.67128906 30.50113281 20.34257812 30.00226563 20.00390625 29.48828125 C18.34584022 26.98545529 16.67401291 24.49219099 15 22 C14.27683594 20.9171875 13.55367188 19.834375 12.80859375 18.71875 C8.1076063 11.65786102 8.1076063 11.65786102 2.4375 5.375 C1.633125 4.59125 0.82875 3.8075 0 3 C0 2.01 0 1.02 0 0 Z " fill="#EDEDED" transform="translate(265,96)"/>
<path d="M0 0 C12.83649397 3.85094819 25.86012817 12.33713622 34 23 C30.60062986 21.50551609 28.20563923 19.51961235 25.4375 17.0625 C19.47539458 12.06700295 12.98066103 8.32334581 6.19897461 4.54321289 C5.3972583 4.09582764 4.59554199 3.64844238 3.76953125 3.1875 C3.04354736 2.78917969 2.31756348 2.39085938 1.56958008 1.98046875 C1.05161865 1.65691406 0.53365723 1.33335938 0 1 C0 0.67 0 0.34 0 0 Z " fill="#EBEBEB" transform="translate(228,71)"/>
<path d="M0 0 C0.66 0.33 1.32 0.66 2 1 C-0.97 3.64 -3.94 6.28 -7 9 C-7 6 -7 6 -5.46875 4.39453125 C-4.49421875 3.61142578 -4.49421875 3.61142578 -3.5 2.8125 C-2.8503125 2.28269531 -2.200625 1.75289063 -1.53125 1.20703125 C-1.0259375 0.80871094 -0.520625 0.41039062 0 0 Z " fill="#ECECEC" transform="translate(262,266)"/>
</svg>
