<?xml version="1.0" encoding="UTF-8"?>
<svg version="1.1" xmlns="http://www.w3.org/2000/svg" width="512" height="512">
<path d="M0 0 C13.36468984 9.16551237 23.07962687 24.71659289 32 38 C33.14195352 39.62772884 34.28760371 41.25287252 35.4375 42.875 C38.95601519 47.88370986 42.3390192 52.98047322 45.71264648 58.08740234 C47.66317962 61.19515874 47.66317962 61.19515874 50 64 C51.58524632 64.2250507 53.17940533 64.38770905 54.7746582 64.52490234 C55.8008728 64.61535324 56.8270874 64.70580414 57.88439941 64.79899597 C59.01180542 64.89368668 60.13921143 64.98837738 61.30078125 65.0859375 C62.4674231 65.18743607 63.63406494 65.28893463 64.83605957 65.39350891 C68.66117063 65.72511907 72.48680574 66.05019287 76.3125 66.375 C78.93907365 66.60099987 81.56561983 66.82731911 84.19213867 67.05395508 C90.64268747 67.60929935 97.09369578 68.15906717 103.54492188 68.70648193 C106.62250611 68.96793089 109.69996305 69.23079695 112.77734375 69.49462891 C128.6548945 70.85528636 144.53409483 72.13630732 160.43212891 73.23779297 C169.19086291 73.85168252 177.9391565 74.5676193 186.6875 75.3125 C198.61709657 76.32784242 210.55061241 77.28347074 222.48828125 78.19921875 C223.17983496 78.25227991 223.87138866 78.30534107 224.58389854 78.36001015 C231.57546721 78.89609606 238.56723463 79.42952909 245.55926132 79.95960712 C248.88332448 80.21177804 252.20731234 80.46493103 255.53125 80.71875 C256.19716534 80.76959936 256.86308067 80.82044872 257.54917526 80.87283897 C268.97361001 81.74752504 280.39130407 82.69438419 291.80846977 83.65879822 C302.975418 84.60051016 314.14592312 85.47817008 325.32135391 86.31300354 C330.25905117 86.68306869 335.19619131 87.06051364 340.13336372 87.43750763 C344.32435968 87.75678511 348.51565628 88.07063826 352.70776367 88.375 C356.87397408 88.67780487 361.03898934 88.99383189 365.20350456 89.3190918 C366.76645609 89.43875431 368.32978623 89.55357961 369.89346504 89.66333008 C372.04547905 89.81499964 374.19553404 89.98354617 376.34594727 90.15625 C378.17162987 90.29256836 378.17162987 90.29256836 380.03419495 90.43164062 C383 91 383 91 384.92604065 92.34672546 C386.77801464 95.19769133 385.70264144 98.23744578 385.0859375 101.39453125 C384.95563141 102.13716721 384.82532532 102.87980316 384.69107056 103.64494324 C384.26833502 106.03731079 383.82275758 108.4247011 383.375 110.8125 C382.81331681 113.90110517 382.26090455 116.99132024 381.7109375 120.08203125 C381.56668839 120.8874234 381.42243927 121.69281555 381.27381897 122.52261353 C380.25772982 128.2847151 379.40909238 134.05506043 378.64453125 139.85546875 C377.3364985 149.7664334 375.87024961 159.64900819 374.36328125 169.53125 C374.24278286 170.32212383 374.12228447 171.11299767 373.99813461 171.92783737 C373.23672691 176.92292125 372.47296571 181.91764324 371.70848846 186.91225815 C370.49960338 194.81219165 369.29391703 202.71261304 368.08984375 210.61328125 C367.95709801 211.48397562 367.82435226 212.35466999 367.68758392 213.25174904 C365.92146559 224.84338472 364.19003575 236.4394352 362.50390625 248.04296875 C362.318246 249.31669342 362.13258575 250.59041809 361.94129944 251.90274048 C361.08924236 257.75296161 360.24434656 263.6040623 359.41137695 269.45703125 C359.11566351 271.4961324 358.81970054 273.53519738 358.5234375 275.57421875 C358.39687271 276.48390915 358.27030792 277.39359955 358.13990784 278.33085632 C358.01816696 279.1597084 357.89642609 279.98856049 357.77099609 280.8425293 C357.6187709 281.91074165 357.6187709 281.91074165 357.46347046 283.00053406 C356.94898202 285.22009756 356.09018263 287.00686624 355 289 C340.24829767 289.14528017 325.52970921 288.73849114 310.78668213 288.25949097 C303.45183292 288.02156289 296.11659467 287.79628783 288.78125 287.57421875 C288.00315098 287.55063608 287.22505196 287.52705341 286.42337418 287.50275612 C262.95943906 286.79582263 239.49047628 286.27922078 216.02183533 285.75672817 C211.70463791 285.66044768 207.38746626 285.56306177 203.0703125 285.46484375 C202.23852226 285.44593771 201.40673203 285.42703167 200.54973602 285.40755272 C188.70516751 285.13586427 176.86685724 284.77893944 165.02685547 284.34863281 C154.39985673 283.96584862 143.77234438 283.7064715 133.140625 283.49731445 C130.10148558 283.4370336 127.06247152 283.37199881 124.0234375 283.30664062 C119.02781176 283.20162034 114.03217372 283.1224457 109.03594971 283.05227661 C105.86872686 282.99773958 102.70312849 282.91207926 99.53662109 282.82592773 C97.45151556 282.78662219 95.36639198 282.74825971 93.28125 282.7109375 C92.31615509 282.67749741 91.35106018 282.64405731 90.35671997 282.60960388 C84.92157965 282.52252593 84.92157965 282.52252593 80.14453125 284.92089844 C78.38646931 287.1728089 77.15293655 289.42778295 75.96875 292.02246094 C74.40224801 295.22020946 72.45153096 298.16707207 70.54663086 301.17163086 C68.84952686 303.85274288 67.1893357 306.55394318 65.53515625 309.26171875 C61.85682939 315.25622101 58.09374832 321.19502518 54.3125 327.125 C53.41217041 328.53809448 53.41217041 328.53809448 52.49365234 329.97973633 C50.35188883 333.33631898 48.20870128 336.68694808 46 340 C46.63652715 340.00173625 47.27305429 340.0034725 47.92887014 340.00526136 C85.61453028 340.10818236 123.30017227 340.21627157 160.98579803 340.33111694 C165.50591276 340.34488731 170.02602763 340.35861429 174.54614258 340.37231445 C175.44605531 340.37504276 176.34596805 340.37777106 177.27315087 340.38058204 C191.8641851 340.42471472 206.45522712 340.46532843 221.04627501 340.50465261 C236.00652598 340.54504974 250.96676243 340.5892031 265.926992 340.63687855 C275.16592583 340.66620185 284.40485852 340.69255894 293.64381123 340.71517897 C299.97042193 340.73094867 306.29701482 340.75035102 312.62360578 340.77266841 C316.27933483 340.7854551 319.93505009 340.79658426 323.59079552 340.80341911 C327.54476258 340.81085313 331.49867875 340.8259081 335.45262146 340.84178162 C336.62088406 340.84275972 337.78914665 340.84373783 338.99281114 340.84474558 C340.04330426 340.85022002 341.09379738 340.85569446 342.17612362 340.8613348 C343.54710387 340.86532186 343.54710387 340.86532186 344.94578069 340.86938947 C347 341 347 341 348 342 C348.09880797 343.47652664 348.13079245 344.95767236 348.1328125 346.4375 C348.13410156 347.33210938 348.13539063 348.22671875 348.13671875 349.1484375 C348.13285156 350.08945312 348.12898438 351.03046875 348.125 352 C348.12886719 352.94101562 348.13273437 353.88203125 348.13671875 354.8515625 C348.13478516 356.19347656 348.13478516 356.19347656 348.1328125 357.5625 C348.13168457 358.38878906 348.13055664 359.21507812 348.12939453 360.06640625 C348 362 348 362 347 363 C345.07521187 363.15806531 343.1450079 363.251135 341.21484375 363.31640625 C340.04501953 363.35830078 338.87519531 363.40019531 337.66992188 363.44335938 C336.43822266 363.48267578 335.20652344 363.52199219 333.9375 363.5625 C332.70193359 363.60568359 331.46636719 363.64886719 330.19335938 363.69335938 C327.12902665 363.79984198 324.06460927 363.90185424 321 364 C321.54342041 364.39034424 322.08684082 364.78068848 322.64672852 365.18286133 C323.36272217 365.7064624 324.07871582 366.23006348 324.81640625 366.76953125 C325.87903687 367.54067261 325.87903687 367.54067261 326.96313477 368.32739258 C331.30508405 371.89285998 334.62059327 376.49826244 335.23828125 382.19921875 C335.47011117 389.97162178 333.67367648 394.82049283 328.6875 400.75 C322.33779583 406.0660314 318.24974943 407.70075497 309.93359375 407.37890625 C302.87307978 406.46696237 298.63927317 403.20469328 294.2265625 397.78125 C290.13056052 391.83291592 290.18766973 386.07887805 291 379 C293.60336866 371.53414111 298.00745749 367.49627125 305 364 C227.78 364 150.56 364 71 364 C73.64 365.65 76.28 367.3 79 369 C84.27048331 375.39186274 85.38344081 379.92234542 85.2734375 388.18359375 C84.6006202 395.11361193 81.09988802 399.43675194 75.87890625 403.7734375 C69.91434845 407.66714052 63.9171726 407.61944829 57 407 C53.5 405.6875 53.5 405.6875 51 404 C49.824375 403.2265625 49.824375 403.2265625 48.625 402.4375 C48.08875 401.963125 47.5525 401.48875 47 401 C47 400.34 47 399.68 47 399 C46.34 399 45.68 399 45 399 C41.22379523 392.02076439 39.36365269 385.66585257 41.625 377.8359375 C44.20993666 371.85827148 49.17356391 366.91321805 55 364 C53.78183594 363.96261719 52.56367187 363.92523438 51.30859375 363.88671875 C49.6848671 363.82101883 48.06117051 363.75457291 46.4375 363.6875 C45.63763672 363.66494141 44.83777344 363.64238281 44.01367188 363.61914062 C37.26873704 363.31630682 32.36958898 362.10630131 27.1875 357.5 C23.37301095 352.34220252 22.88727391 346.34571025 23.09765625 340.1015625 C24.7302729 329.42781669 31.34689833 321.16317192 37.32958984 312.46289062 C39.78001662 308.8499258 42.0835531 305.15257114 44.375 301.4375 C45.18320419 300.13647667 45.99178357 298.83568632 46.80078125 297.53515625 C47.17541504 296.93203613 47.55004883 296.32891602 47.93603516 295.70751953 C49.46447585 293.25457915 51.01130708 290.81360306 52.5625 288.375 C53.10003906 287.5190625 53.63757813 286.663125 54.19140625 285.78125 C55.57396677 283.65515261 56.99203422 281.5932959 58.46484375 279.53125 C58.88499756 278.92490723 59.30515137 278.31856445 59.73803711 277.69384766 C60.55377376 276.518139 61.38821473 275.35509541 62.24438477 274.20849609 C65.04269363 270.11526693 65.38000782 267.33321093 64.59130859 262.64257812 C63.32574736 256.98674211 61.85180459 251.3994349 60.3125 245.8125 C59.94741988 244.46931391 59.58292512 243.1259686 59.21899414 241.7824707 C58.49056369 239.09775684 57.75836776 236.41411936 57.02246094 233.73144531 C56.13621506 230.49711341 55.25708273 227.26102165 54.3828125 224.0234375 C52.41993221 216.76758056 50.43276073 209.51914183 48.390625 202.28515625 C44.82101467 189.639721 41.38976475 176.96592227 38.05258179 164.25769043 C35.13291844 153.15147755 32.08556204 142.08765056 28.94308472 131.04257202 C26.75110433 123.33236303 24.61258991 115.61176837 22.57421875 107.859375 C22.27313705 106.71450623 22.27313705 106.71450623 21.9659729 105.54650879 C21.00147173 101.87135347 20.04360483 98.19459173 19.09375 94.515625 C14.64877742 74.84357498 14.64877742 74.84357498 2 60 C-1.62992386 57.99475105 -5.36342238 56.24304431 -9.125 54.5 C-10.15093262 54.01587646 -11.17686523 53.53175293 -12.23388672 53.03295898 C-18.31369419 50.1830191 -24.40712931 47.45811407 -30.6953125 45.09765625 C-37.25643071 41.97278469 -41.20140457 36.68283825 -44.3125 30.3125 C-46.03514889 22.01246446 -45.86718365 14.72531985 -41.6171875 7.2578125 C-31.12590192 -7.38944128 -15.10733775 -8.06999561 0 0 Z M-23 18 C-23.04254356 19.99954746 -23.04080783 22.00041636 -23 24 C-21.88833136 25.33187793 -21.88833136 25.33187793 -19.0625 25.1875 C-15.89107141 25.33278733 -15.89107141 25.33278733 -14 23 C-14.28983269 19.69316534 -14.28983269 19.69316534 -16 17 C-19.63194641 16.80850919 -19.63194641 16.80850919 -23 18 Z M40 86 C41.71985792 95.40251994 44.1728112 104.58095808 46.625 113.8125 C47.07325021 115.5089282 47.52140995 117.20538031 47.96948242 118.90185547 C51.00110327 130.35505338 54.12639739 141.77983364 57.30664062 153.19262695 C59.17972591 159.93946867 60.96156851 166.69854837 62.625 173.5 C64.38735472 180.70219492 66.34674746 187.82504177 68.41625977 194.94458008 C71.52405669 205.69964163 74.4048836 216.5165573 77.30932617 227.32788086 C78.5344086 231.88665163 79.76503936 236.44389559 81 241 C81.22645203 241.83678284 81.45290405 242.67356567 81.68621826 243.53570557 C82.36899949 246.05221487 83.05679843 248.56729934 83.74609375 251.08203125 C84.06260643 252.25109261 84.06260643 252.25109261 84.38551331 253.44377136 C85.13426174 257.01055992 85.13426174 257.01055992 87 260 C89.18292774 260.23481693 91.37203174 260.41363323 93.5625 260.5625 C95.70833333 260.70833333 97.85416667 260.85416667 100 261 C97.35198808 249.51055046 94.5184277 238.08495764 91.5 226.6875 C91.28923828 225.88852295 91.07847656 225.0895459 90.86132812 224.26635742 C87.06866064 209.8905158 83.163622 195.54607858 79.23471069 181.20697021 C75.6881551 168.26059257 72.21174491 155.29830972 68.8125 142.3125 C67.21143768 136.20751693 65.60767164 130.10324599 64 124 C63.69098755 122.82685242 63.69098755 122.82685242 63.37573242 121.63000488 C62.14380591 116.95920814 60.9024646 112.2910713 59.64877319 107.62606812 C59.26289589 106.18558139 58.87970473 104.74437197 58.49942017 103.30239868 C57.97697019 101.32325484 57.44482694 99.34696565 56.91015625 97.37109375 C56.61246338 96.25661865 56.31477051 95.14214355 56.00805664 93.99389648 C54.98906356 90.96751911 53.88782259 88.57548305 52 86 C49.03618482 85.39518228 49.03618482 85.39518228 45.8125 85.6875 C44.72582031 85.73261719 43.63914062 85.77773437 42.51953125 85.82421875 C41.68808594 85.88222656 40.85664062 85.94023437 40 86 Z M77 89 C77.73137364 95.45437235 79.34453566 101.60202337 81 107.875 C81.30832764 109.05408936 81.61665527 110.23317871 81.93432617 111.44799805 C84.51491531 121.26884025 87.18556883 131.06464974 89.87362671 140.85653687 C93.53331936 154.18972468 97.06304027 167.5554941 100.55004883 180.93481445 C102.63379355 188.91399064 104.80310186 196.85652499 107.09277344 204.77978516 C108.21008926 208.74571512 109.2051266 212.73460818 110.18701172 216.73583984 C111.71156116 222.85692875 113.34421298 228.95004138 114.96166992 235.04711914 C115.56608909 237.32603235 116.16886992 239.6053746 116.77148438 241.88476562 C117.16136172 243.35679643 117.55133235 244.82880252 117.94140625 246.30078125 C118.11853653 246.97071609 118.29566681 247.64065094 118.47816467 248.33088684 C119.60368651 252.56891855 120.78405544 256.78729212 122 261 C125.31070838 262.00109515 128.30084769 262.10356134 131.75 262.0625 C134.375 262.03125 134.375 262.03125 137 262 C135.64559324 253.6405888 133.66268645 245.5414397 131.4375 237.375 C131.08354567 236.06292186 130.7299579 234.75074479 130.37670898 233.43847656 C129.25816874 229.29039659 128.13037462 225.14486883 127 221 C126.81634888 220.32658569 126.63269775 219.65317139 126.44348145 218.95935059 C124.96335229 213.5341747 123.48171343 208.10940928 121.99755859 202.68533325 C119.09452715 192.07401072 116.24587344 181.449256 113.4375 170.8125 C113.25068665 170.10505646 113.06387329 169.39761292 112.87139893 168.66873169 C112.12478608 165.84084973 111.37844579 163.012896 110.63241577 160.18486023 C106.2030995 143.39557803 101.74425526 126.61412448 97.15383911 109.86807251 C96.63855191 107.98697241 96.12576064 106.10518916 95.61303711 104.22338867 C95.29987549 103.08619385 94.98671387 101.94899902 94.6640625 100.77734375 C94.39029785 99.77952881 94.1165332 98.78171387 93.83447266 97.75366211 C93.02407168 95.07943372 92.17609238 92.53582615 91 90 C88.23547967 88.61773984 85.9538637 88.90474613 82.875 88.9375 C81.77929688 88.94652344 80.68359375 88.95554687 79.5546875 88.96484375 C78.29011719 88.98224609 78.29011719 88.98224609 77 89 Z M115 92 C115.58011774 97.28158734 116.45070621 102.26209336 117.78515625 107.41796875 C117.96172256 108.10458084 118.13828888 108.79119293 118.32020569 109.49861145 C118.89574352 111.72963241 119.47883761 113.95859198 120.0625 116.1875 C120.46941116 117.75581453 120.87614707 119.32417454 121.28271484 120.89257812 C124.12401024 131.81595758 127.0899518 142.70184453 130.12158203 153.57397461 C132.31212778 161.4452632 134.40743121 169.33588547 136.4375 177.25 C139.17124915 187.90238394 142.02711504 198.51786494 144.94091797 209.12203979 C147.17197652 217.24217532 149.37156974 225.36894091 151.50390625 233.515625 C151.70886719 234.29727524 151.91382813 235.07892548 152.125 235.88426208 C153.11629342 239.66689523 154.10265014 243.45071138 155.08154297 247.23657227 C155.43831011 248.60176877 155.79523531 249.96692398 156.15234375 251.33203125 C156.46163818 252.52546143 156.77093262 253.7188916 157.08959961 254.94848633 C157.97573796 258.2395402 157.97573796 258.2395402 160 262 C164.62 262 169.24 262 174 262 C173.33776484 253.96005131 171.09957422 246.31995605 169 238.5625 C168.59401011 237.04697967 168.18841839 235.53135263 167.78320312 234.015625 C164.6900716 222.46826774 161.53686449 210.93706163 158.37915039 199.40722656 C155.68316978 189.55505117 153.04475663 179.68850608 150.4375 169.8125 C150.25059601 169.10469391 150.06369202 168.39688782 149.87112427 167.66763306 C149.12461101 164.84013688 148.37836048 162.01257152 147.63243103 159.18492126 C144.77961887 148.37134671 141.91139985 137.56195204 139.01025391 126.76123047 C138.30783313 124.14607955 137.60694729 121.53055272 136.90771484 118.91455078 C135.99659042 115.50892401 135.07784288 112.10543158 134.15383911 108.70327759 C133.63581602 106.78994919 133.12435551 104.87484786 132.61303711 102.9597168 C132.29987549 101.812854 131.98671387 100.66599121 131.6640625 99.484375 C131.25341553 97.96408691 131.25341553 97.96408691 130.83447266 96.41308594 C130.14684385 93.85539116 130.14684385 93.85539116 128 92 C124.87185486 91.75639927 124.87185486 91.75639927 121.375 91.875 C119.59222656 91.90207031 119.59222656 91.90207031 117.7734375 91.9296875 C116.40058594 91.96449219 116.40058594 91.96449219 115 92 Z M153 94 C153.46103351 102.06991101 155.26772289 109.50492203 157.42578125 117.2734375 C157.78221138 118.57965377 158.13784536 119.8860875 158.49275208 121.19271851 C159.25498028 123.99447085 160.0216394 126.79495783 160.79156494 129.59460449 C162.02315787 134.07712488 163.23857693 138.56393432 164.45068359 143.05175781 C164.86945214 144.60174664 165.28822455 146.15173443 165.70700073 147.70172119 C165.91646206 148.47705452 166.12592339 149.25238785 166.34173203 150.05121613 C167.41538785 154.02293669 168.491834 157.99390018 169.56835938 161.96484375 C169.78346098 162.75843418 169.99856258 163.55202461 170.22018242 164.36966324 C171.31840793 168.42098287 172.41737131 172.47210088 173.51733398 176.52294922 C182.16849194 208.38747216 182.16849194 208.38747216 186.03979492 224.14306641 C187.27078907 229.08770039 188.62807132 233.98609859 190.0625 238.875 C190.56641807 240.615882 191.07032427 242.35676743 191.57421875 244.09765625 C191.81446777 244.92281738 192.0547168 245.74797852 192.30224609 246.59814453 C193.33876161 250.166108 194.35685404 253.73926163 195.375 257.3125 C195.91125 259.189375 196.4475 261.06625 197 263 C201.62 263 206.24 263 211 263 C210.33776484 254.96005131 208.09957422 247.31995605 206 239.5625 C205.59401011 238.04697967 205.18841839 236.53135263 204.78320312 235.015625 C201.6900716 223.46826774 198.53686449 211.93706163 195.37915039 200.40722656 C191.71737622 187.02566097 188.17491323 173.6132452 184.63696289 160.19851685 C182.40429822 151.73604943 180.15576339 143.27779325 177.88964844 134.82421875 C176.25028752 128.70833159 174.63111269 122.58846299 173.05078125 116.45703125 C172.73705566 115.25433594 172.42333008 114.05164063 172.10009766 112.8125 C171.5068568 110.5372991 170.92145342 108.26003515 170.34521484 105.98046875 C170.08047363 104.97242188 169.81573242 103.964375 169.54296875 102.92578125 C169.31633545 102.04317627 169.08970215 101.16057129 168.85620117 100.2512207 C167.92127146 97.79299804 167.07291861 96.60000214 165 95 C162.03756274 94.42052719 162.03756274 94.42052719 158.8125 94.3125 C157.18248047 94.21388672 157.18248047 94.21388672 155.51953125 94.11328125 C154.68808594 94.07589844 153.85664063 94.03851563 153 94 Z M190 98 C191.93223278 107.39978616 194.13728925 116.66900054 196.625 125.9375 C197.00083892 127.34760619 197.37648043 128.757765 197.75195312 130.16796875 C202.52054413 148.04482947 207.3643915 165.90182349 212.19285679 183.76259708 C216.41216667 199.37089447 220.60365882 214.98570067 224.71261597 230.62347412 C227.65065324 241.79557851 230.75081224 252.91453588 234 264 C239.28 264 244.56 264 250 264 C245.50253509 245.63535162 240.56886764 227.38261158 235.5859375 209.14453125 C235.38528183 208.4100325 235.18462616 207.67553375 234.97789001 206.91877747 C234.00704827 203.36711658 233.03407372 199.81605758 232.05786133 196.26586914 C230.22822238 189.59969387 228.45979863 182.92455186 226.80249023 176.21337891 C225.0743602 169.2934983 223.2505239 162.39803176 221.4375 155.5 C221.22434143 154.68827332 221.01118286 153.87654663 220.79156494 153.04022217 C216.04208484 134.97634417 211.0533728 116.98090785 206 99 C202.49314042 98.04388451 199.39428019 97.89788826 195.75 97.9375 C192.875 97.96875 192.875 97.96875 190 98 Z M229 101 C229.26089072 102.81395782 229.53434632 104.62610897 229.8125 106.4375 C229.96332031 107.44683594 230.11414063 108.45617187 230.26953125 109.49609375 C231.00209351 113.01004214 232.06303317 116.23769603 233.23071289 119.62329102 C234.51914794 123.60390518 235.39423258 127.67118425 236.3125 131.75 C237.92503735 138.70555335 239.67702724 145.58658797 241.6875 152.4375 C244.5313782 162.16330098 247.12400083 171.94752732 249.6875 181.75 C253.78452834 197.40980524 257.94805987 213.05056312 262.15698242 228.68066406 C262.59039431 230.29099886 263.02374487 231.90135017 263.45703125 233.51171875 C263.66605576 234.28822784 263.87508026 235.06473694 264.09043884 235.86477661 C265.88846385 242.55692505 267.65170558 249.258065 269.39839172 255.96379089 C270.19420004 259.00687912 271.00500299 262.01500896 272 265 C276.62 265 281.24 265 286 265 C282.56254554 249.33016255 278.45076581 233.86165841 274.15380859 218.40722656 C271.71296812 209.61929137 269.33685913 200.81612309 267 192 C263.97533721 180.591761 260.87293257 169.20793654 257.70117188 157.83984375 C255.92742859 151.46026813 254.24157844 145.06823486 252.65454102 138.63964844 C251.84995574 135.39489796 250.99449834 132.1654164 250.125 128.9375 C248.48347533 122.81677622 246.86106753 116.69131234 245.25 110.5625 C245.02715332 109.71486084 244.80430664 108.86722168 244.57470703 107.99389648 C244.04960276 105.99598405 243.52477074 103.99800007 243 102 C239.81516094 101.14459248 237.05617396 100.89399771 233.75 100.9375 C232.41195313 100.95103516 232.41195313 100.95103516 231.046875 100.96484375 C230.37140625 100.97644531 229.6959375 100.98804688 229 101 Z M265 104 C269.02621595 119.80410232 273.12013461 135.58525822 277.4375 151.3125 C280.53295848 162.59031944 283.57842705 173.87967084 286.5625 185.1875 C286.74964569 185.89636353 286.93679138 186.60522705 287.12960815 187.33557129 C287.87736112 190.1680655 288.6249127 193.00061272 289.37211609 195.83325195 C292.55451135 207.89601349 295.76427881 219.95143012 299 232 C299.29254669 233.08994263 299.29254669 233.08994263 299.59100342 234.2019043 C300.83222711 238.82415486 302.07805978 243.44512974 303.3293457 248.06466675 C303.73282725 249.55599756 304.13518232 251.04763364 304.53637695 252.5395813 C305.09260675 254.60671367 305.65313834 256.67263112 306.21484375 258.73828125 C306.53573975 259.92462158 306.85663574 261.11096191 307.18725586 262.33325195 C307.74016344 264.89691261 307.74016344 264.89691261 309 266 C310.34267413 266.08631874 311.68974322 266.10706473 313.03515625 266.09765625 C313.84404297 266.09443359 314.65292969 266.09121094 315.48632812 266.08789062 C316.33646484 266.07951172 317.18660156 266.07113281 318.0625 266.0625 C318.91650391 266.05798828 319.77050781 266.05347656 320.65039062 266.04882812 C322.76695663 266.03700373 324.88348685 266.01906769 327 266 C326.41318327 261.38086716 325.55979472 257.01413528 324.29296875 252.53515625 C323.95330078 251.32150391 323.61363281 250.10785156 323.26367188 248.85742188 C322.90853516 247.60509766 322.55339844 246.35277344 322.1875 245.0625 C319.86731637 236.83956027 317.62580655 228.60899975 315.57910156 220.31384277 C313.40358234 211.53132739 311.03846954 202.7993382 308.6875 194.0625 C308.44633453 193.16403351 308.20516907 192.26556702 307.95669556 191.33987427 C304.83414768 179.70769003 301.64693273 168.09791212 298.35668945 156.51196289 C296.11258283 148.54915742 294.11129114 140.53493505 292.13867188 132.5012207 C289.0383951 118.41817959 289.0383951 118.41817959 284 105 C279.36154482 104.14102682 274.92393588 103.95536461 270.2109375 103.9765625 C269.2317334 103.97994629 268.2525293 103.98333008 267.24365234 103.98681641 C266.13304443 103.99334229 266.13304443 103.99334229 265 104 Z M308 107 C308.46421845 115.42224901 310.50746959 123.14050422 312.83456421 131.19534302 C313.98691771 135.18638104 315.11025892 139.18562493 316.23828125 143.18359375 C316.46989456 144.00157944 316.70150787 144.81956512 316.94013977 145.66233826 C319.27876228 153.93892094 321.49758404 162.24552576 323.6875 170.5625 C323.87285309 171.26465637 324.05820618 171.96681274 324.24917603 172.69024658 C326.15965637 179.92913768 328.04910242 187.17299833 329.90625 194.42578125 C333.31123968 207.71699499 336.92167181 220.89855744 341 234 C341.66 233.67 342.32 233.34 343 233 C344.06571869 228.7772123 344.56215807 224.43240937 345.1875 220.125 C345.37763672 218.93390625 345.56777344 217.7428125 345.76367188 216.515625 C347.63673507 203.88108799 345.98513214 193.86681202 342.4375 181.6875 C341.89688328 179.78203551 341.35630372 177.87655971 340.81771851 175.97052002 C340.44544699 174.65376711 340.07208541 173.33732192 339.69766235 172.0211792 C337.63091213 164.74480418 335.68777203 157.43658865 333.75 150.125 C333.43345459 148.93350342 333.11690918 147.74200684 332.79077148 146.5144043 C331.50992421 141.69217378 330.22952684 136.86983792 328.95605469 132.0456543 C327.31782731 125.8525765 325.67274448 119.67408067 323.75 113.5625 C323.1725 111.726875 322.595 109.89125 322 108 C315.07 107.505 315.07 107.505 308 107 Z M346 110 C345.81997436 115.03790491 346.37275226 119.18545715 347.75 124.02734375 C347.92756836 124.66112442 348.10513672 125.29490509 348.28808594 125.94789124 C348.85024951 127.94694035 349.42486774 129.94214809 350 131.9375 C350.38625011 133.30249881 350.7716746 134.66773153 351.15625 136.03320312 C352.09464539 139.35822432 353.04423506 142.67992425 354 146 C354.66 146 355.32 146 356 146 C356.71733942 141.81997165 357.429246 137.6390645 358.13623047 133.45727539 C358.37726778 132.03612587 358.61976289 130.61522278 358.86376953 129.19458008 C359.21514412 127.14728527 359.56118932 125.09914849 359.90625 123.05078125 C360.11572266 121.82012939 360.32519531 120.58947754 360.54101562 119.3215332 C360.93311403 116.48403385 361.0948144 113.85628383 361 111 C355.94997778 109.96409801 351.12583611 109.89748328 346 110 Z M55 380 C53.54852097 382.90295805 53.62760975 384.77261779 54 388 C56.5650339 392.33535741 56.5650339 392.33535741 60.9375 394.55078125 C64.88919871 394.81273098 66.68179675 394.21876473 70 391.9375 C72.51930235 388.23727467 72.7066341 386.3968344 72 382 C69.9591596 378.24485366 68.71604102 377.22542032 64.625 375.9375 C60.18985876 376.01396795 58.36773198 377.19355668 55 380 Z M305 380 C303.43064406 383.13871188 303.64798897 385.53855822 304 389 C305.99524923 391.93052231 307.42836485 393.64521503 310.97265625 394.4453125 C314.37756097 394.63624174 316.5979553 394.2680298 319.4375 392.375 C321.3861606 389.41303588 321.92895147 387.55242634 322 384 C320.81729464 380.76312217 319.92693155 378.67974981 317.125 376.625 C311.64651525 375.01368096 309.13517583 376.09455616 305 380 Z " fill="#E6E6E6" transform="translate(74,56)"/>
<path d="M0 0 C102.3 0 204.6 0 310 0 C310 0.33 310 0.66 310 1 C301.42 1.33 292.84 1.66 284 2 C287.96 4.97 287.96 4.97 292 8 C297.33173264 14.69302608 298.89831686 19.59075603 298 28 C295.72112185 35.15864985 290.78578104 40.71898721 284.1484375 44.26953125 C278.20952627 46.28876107 271.35016068 45.97591097 265.625 43.4375 C260.44003499 40.40213507 256.22632834 35.59100557 254 30 C253.04829515 22.51659451 253.41836374 16.20854067 257.5703125 9.8046875 C260.57567662 6.01103115 263.70443929 4.14778036 268 2 C190.78 2 113.56 2 34 2 C36.64 3.65 39.28 5.3 42 7 C47.27048331 13.39186274 48.38344081 17.92234542 48.2734375 26.18359375 C47.6006202 33.11361193 44.09988802 37.43675194 38.87890625 41.7734375 C32.91434845 45.66714052 26.9171726 45.61944829 20 45 C16.5 43.6875 16.5 43.6875 14 42 C12.824375 41.2265625 12.824375 41.2265625 11.625 40.4375 C11.08875 39.963125 10.5525 39.48875 10 39 C10 38.34 10 37.68 10 37 C9.34 37 8.68 37 8 37 C4.22379523 30.02076439 2.36365269 23.66585257 4.625 15.8359375 C7.20993666 9.85827148 12.17356391 4.91321805 18 2 C12.06 1.67 6.12 1.34 0 1 C0 0.67 0 0.34 0 0 Z M18 18 C16.54852097 20.90295805 16.62760975 22.77261779 17 26 C19.5650339 30.33535741 19.5650339 30.33535741 23.9375 32.55078125 C27.88919871 32.81273098 29.68179675 32.21876473 33 29.9375 C35.51930235 26.23727467 35.7066341 24.3968344 35 20 C32.9591596 16.24485366 31.71604102 15.22542032 27.625 13.9375 C23.18985876 14.01396795 21.36773198 15.19355668 18 18 Z M268 18 C266.43064406 21.13871188 266.64798897 23.53855822 267 27 C268.99524923 29.93052231 270.42836485 31.64521503 273.97265625 32.4453125 C277.37756097 32.63624174 279.5979553 32.2680298 282.4375 30.375 C284.3861606 27.41303588 284.92895147 25.55242634 285 22 C283.81729464 18.76312217 282.92693155 16.67974981 280.125 14.625 C274.64651525 13.01368096 272.13517583 14.09455616 268 18 Z " fill="#DDDDDD" transform="translate(111,418)"/>
<path d="M0 0 C5.2362378 4.08249048 8.57103152 8.61902363 9.59765625 15.265625 C9.95528191 22.78730014 7.68665594 27.87769294 2.90625 33.5625 C-3.44345417 38.8785314 -7.53150057 40.51325497 -15.84765625 40.19140625 C-22.90817022 39.27946237 -27.14197683 36.01719328 -31.5546875 30.59375 C-35.65068948 24.64541592 -35.59358027 18.89137805 -34.78125 11.8125 C-32.86964152 6.33044924 -29.86451138 1.76788452 -24.78125 -1.1875 C-16.65511373 -3.89621209 -7.46862849 -4.97908566 0 0 Z M-20.78125 12.8125 C-22.35060594 15.95121188 -22.13326103 18.35105822 -21.78125 21.8125 C-19.78600077 24.74302231 -18.35288515 26.45771503 -14.80859375 27.2578125 C-11.40368903 27.44874174 -9.1832947 27.0805298 -6.34375 25.1875 C-4.3950894 22.22553588 -3.85229853 20.36492634 -3.78125 16.8125 C-4.96395536 13.57562217 -5.85431845 11.49224981 -8.65625 9.4375 C-14.13473475 7.82618096 -16.64607417 8.90705616 -20.78125 12.8125 Z " fill="#DEDEDE" transform="translate(399.78125,423.1875)"/>
<path d="M0 0 C102.3 0 204.6 0 310 0 C310 0.33 310 0.66 310 1 C308.84213989 1.03758423 308.84213989 1.03758423 307.66088867 1.07592773 C304.16958819 1.19184007 300.67856078 1.31458824 297.1875 1.4375 C295.97255859 1.47681641 294.75761719 1.51613281 293.50585938 1.55664062 C292.34248047 1.59853516 291.17910156 1.64042969 289.98046875 1.68359375 C288.90692139 1.72025146 287.83337402 1.75690918 286.72729492 1.79467773 C283.90688447 1.89541847 283.90688447 1.89541847 281 3 C278.77181559 3.06937062 276.54165476 3.08457084 274.3125 3.0625 C272.54326172 3.04896484 272.54326172 3.04896484 270.73828125 3.03515625 C269.83464844 3.02355469 268.93101562 3.01195312 268 3 C268 2.67 268 2.34 268 2 C238.24085043 1.97720114 208.48170116 1.95949742 178.72254474 1.94893467 C175.21143281 1.94768392 171.70032089 1.9463896 168.18920898 1.94506836 C167.49019206 1.94480605 166.79117513 1.94454374 166.07097588 1.94427348 C154.74364554 1.93991886 143.41632025 1.93203244 132.08899292 1.9228472 C120.47132115 1.9135049 108.85365234 1.90801804 97.23597699 1.90591151 C90.70832498 1.90460499 84.18068446 1.9015228 77.65303612 1.89426994 C71.51444005 1.88750434 65.37586026 1.88538415 59.23726082 1.88689232 C56.97932726 1.88661624 54.72139318 1.88461431 52.46346283 1.88079453 C49.3903911 1.87584889 46.31738151 1.87700499 43.24430847 1.87974548 C41.89169341 1.87537622 41.89169341 1.87537622 40.51175278 1.87091869 C39.69066507 1.87290974 38.86957736 1.87490079 38.02360821 1.87695217 C36.95906226 1.87638259 36.95906226 1.87638259 35.87301034 1.8758015 C33.77090792 1.93593853 33.77090792 1.93593853 31 3 C28.77181559 3.06937062 26.54165476 3.08457084 24.3125 3.0625 C22.54326172 3.04896484 22.54326172 3.04896484 20.73828125 3.03515625 C19.83464844 3.02355469 18.93101562 3.01195312 18 3 C18 2.67 18 2.34 18 2 C12.06 1.67 6.12 1.34 0 1 C0 0.67 0 0.34 0 0 Z " fill="#000000" transform="translate(111,418)"/>
<path d="M0 0 C13.2 0 26.4 0 40 0 C40 0.33 40 0.66 40 1 C39.22809326 1.02505615 38.45618652 1.0501123 37.66088867 1.07592773 C34.16958819 1.19184007 30.67856078 1.31458824 27.1875 1.4375 C25.36508789 1.49647461 25.36508789 1.49647461 23.50585938 1.55664062 C22.34248047 1.59853516 21.17910156 1.64042969 19.98046875 1.68359375 C18.90692139 1.72025146 17.83337402 1.75690918 16.72729492 1.79467773 C13.90688447 1.89541847 13.90688447 1.89541847 11 3 C8.77181559 3.06937062 6.54165476 3.08457084 4.3125 3.0625 C2.54326172 3.04896484 2.54326172 3.04896484 0.73828125 3.03515625 C-0.16535156 3.02355469 -1.06898438 3.01195312 -2 3 C-1.34 2.67 -0.68 2.34 0 2 C0 1.34 0 0.68 0 0 Z " fill="#070707" transform="translate(381,418)"/>
<path d="M0 0 C8.91 0 17.82 0 27 0 C27 0.66 27 1.32 27 2 C22.545 2.495 22.545 2.495 18 3 C18 2.67 18 2.34 18 2 C12.06 1.67 6.12 1.34 0 1 C0 0.67 0 0.34 0 0 Z " fill="#000000" transform="translate(111,418)"/>
<path d="M0 0 C0.33 0 0.66 0 1 0 C1.22731216 6.93302093 0.42002108 13.2168636 -1 20 C-3.1519437 16.77208445 -3.20086443 15.71599191 -3 12 C-2.34 12 -1.68 12 -1 12 C-0.67 8.04 -0.34 4.08 0 0 Z " fill="#3C3C3C" transform="translate(431,190)"/>
<path d="M0 0 C4.29 0.33 8.58 0.66 13 1 C13 1.33 13 1.66 13 2 C9.37 2 5.74 2 2 2 C1.67 3.32 1.34 4.64 1 6 C0.67 4.02 0.34 2.04 0 0 Z " fill="#313131" transform="translate(149,143)"/>
<path d="M0 0 C2.31 0 4.62 0 7 0 C7 0.66 7 1.32 7 2 C2.545 2.495 2.545 2.495 -2 3 C-1.34 2.67 -0.68 2.34 0 2 C0 1.34 0 0.68 0 0 Z " fill="#0F0F0F" transform="translate(131,418)"/>
</svg>
