<?xml version="1.0" encoding="UTF-8"?>
<svg version="1.1" xmlns="http://www.w3.org/2000/svg" width="512" height="512">
<path d="M0 0 C0.75638711 -0.00350607 1.51277423 -0.00701215 2.29208216 -0.01062447 C4.83515579 -0.01995323 7.37800116 -0.01501137 9.9210844 -0.01015663 C11.759361 -0.01389215 13.59763601 -0.01849327 15.4359085 -0.02388728 C20.49428691 -0.03614488 25.55259933 -0.03585356 30.61098921 -0.03349853 C36.0637401 -0.03309106 41.51646964 -0.04412281 46.96921062 -0.05361366 C57.6547246 -0.0702397 68.34021651 -0.07572393 79.02574233 -0.07683842 C87.70976914 -0.07778812 96.39378865 -0.08189452 105.07781315 -0.08823967 C129.68828817 -0.10585635 154.29874675 -0.11509 178.909228 -0.11357872 C179.90431272 -0.11351889 179.90431272 -0.11351889 180.91950017 -0.11345784 C182.26103627 -0.11337697 183.60257238 -0.11329337 184.94410849 -0.11320706 C205.8164818 -0.11198153 226.68879012 -0.12699458 247.56114483 -0.15435219 C271.00866959 -0.1850724 294.45615872 -0.20225938 317.90370578 -0.20042574 C330.31962197 -0.19976121 342.7354649 -0.20528116 355.15136433 -0.22678185 C365.72195607 -0.24496941 376.29244132 -0.24936091 386.86304191 -0.235763 C392.25742712 -0.22922116 397.65160787 -0.22916007 403.04597378 -0.2464695 C407.98386355 -0.26215139 412.92138593 -0.25938656 417.85926648 -0.24190123 C419.6459248 -0.23882056 421.43261021 -0.24250372 423.21923659 -0.25362138 C441.17507946 -0.35795818 441.17507946 -0.35795818 448.68394756 6.22211266 C449.22277569 6.87308922 449.76160381 7.52406578 450.31676006 8.19476891 C450.87105694 8.84316734 451.42535381 9.49156578 451.99644756 10.15961266 C454.98070937 14.49082507 455.69223594 18.22757275 455.69902897 23.44118023 C455.70547786 24.6932575 455.71192675 25.94533476 455.71857107 27.23535377 C455.71562888 28.62216056 455.71249345 30.00896696 455.7091856 31.39577293 C455.7129222 32.87106757 455.71752376 34.34636022 455.72291625 35.82164973 C455.73516053 39.87669419 455.7348841 43.93165623 455.73252749 47.98671496 C455.73211969 52.35970371 455.74315501 56.73266591 455.75264263 61.10564232 C455.76926144 69.67357195 455.77475258 78.24147407 455.77586739 86.80941848 C455.77681745 93.77338477 455.78092563 100.73734197 455.78726864 107.70130539 C455.80488346 127.44207912 455.81410713 147.1828311 455.81260769 166.92361275 C455.81252778 167.98802836 455.81244787 169.05244398 455.81236553 170.14911461 C455.81228377 171.21482871 455.81220201 172.2805428 455.81211777 173.37855127 C455.8113048 190.65142503 455.83044451 207.9242116 455.85864227 225.19706015 C455.88736192 242.92941788 455.90118307 260.66173308 455.89945471 278.39411467 C455.89879049 288.35081869 455.90429679 298.3074313 455.92581081 308.26411438 C455.94401053 316.74131989 455.94837991 325.21839256 455.93479197 333.69560913 C455.92825619 338.02067207 455.92816701 342.34548009 455.94549847 346.67051888 C455.96120745 350.6314161 455.95838807 354.59185581 455.9409302 358.55274173 C455.93785549 359.98408652 455.94151053 361.41546528 455.95265035 362.84677003 C456.01854442 371.91525142 455.65541453 378.44884413 449.47691631 385.49945641 C448.82593975 386.03828453 448.17496319 386.57711266 447.50426006 387.13226891 C446.85586163 387.68656578 446.20746319 388.24086266 445.53941631 388.81195641 C440.98133995 391.95253044 437.0986854 392.50617009 431.61441326 392.49777794 C430.60345119 392.50034121 430.60345119 392.50034121 429.57206565 392.50295627 C427.32108302 392.50624195 425.07040064 392.4952629 422.81944561 392.48431969 C421.20296517 392.48375537 419.58648422 392.48407253 417.97000408 392.4852047 C413.58609749 392.48577842 409.20230038 392.47402087 404.81841922 392.46005678 C400.23533702 392.44755276 395.65225231 392.44637918 391.06915569 392.44400597 C382.39238602 392.43779024 373.71566675 392.42137814 365.03891927 392.40130699 C355.15991734 392.3789509 345.280913 392.36795528 335.40189207 392.35791612 C315.08181993 392.33701201 294.76179317 392.3018342 274.44176006 392.25726891 C274.7801374 393.33262146 275.11851473 394.40797401 275.46714592 395.51591301 C275.91822162 396.95332365 276.36924478 398.39075078 276.82022381 399.82819176 C277.04240692 400.5337936 277.26459002 401.23939545 277.49350595 401.96637917 C279.55774404 408.55245054 281.41349343 415.18747289 283.21129131 421.85101891 C283.70009022 423.64823387 283.70009022 423.64823387 284.19876385 425.48175621 C285.22009326 429.23949879 286.23725832 432.99835306 287.25426006 436.75726891 C287.95350995 439.33426056 288.65371961 441.91099023 289.35386944 444.48773766 C291.05301018 450.74339056 292.74842216 457.00004286 294.44176006 463.25726891 C300.05176006 463.58726891 305.66176006 463.91726891 311.44176006 464.25726891 C311.44176006 469.53726891 311.44176006 474.81726891 311.44176006 480.25726891 C248.08176006 480.25726891 184.72176006 480.25726891 119.44176006 480.25726891 C119.44176006 474.97726891 119.44176006 469.69726891 119.44176006 464.25726891 C125.05176006 463.92726891 130.66176006 463.59726891 136.44176006 463.25726891 C137.01208965 461.17752769 137.58241924 459.09778648 138.17003155 456.95502281 C140.05205453 450.09330564 141.93637097 443.23221983 143.82182503 436.3714447 C144.96520595 432.21064222 146.10780686 428.04962879 147.24864483 423.88812828 C148.34908223 419.87411056 149.45154281 415.86065364 150.55542469 411.84758186 C150.97678996 410.31433968 151.39741854 408.78089484 151.81730747 407.2472477 C152.40430326 405.10372971 152.99388435 402.96093897 153.58409405 400.81830406 C153.91940639 399.5969677 154.25471874 398.37563133 154.60019207 397.11728477 C155.44176006 394.25726891 155.44176006 394.25726891 156.44176006 392.25726891 C155.60392231 392.26095608 154.76608456 392.26464325 153.90285778 392.26844215 C133.50441899 392.35682858 113.10601327 392.42299577 92.70742321 392.46451759 C82.84275715 392.48513161 72.97821901 392.51323006 63.11363506 392.55902672 C54.51438005 392.59892997 45.9152177 392.62471015 37.31587267 392.63362288 C32.76370903 392.63883172 28.21181045 392.6510502 23.65973186 392.68018913 C19.37187562 392.70741338 15.08439271 392.71569979 10.79645824 392.70969963 C9.22594198 392.71079674 7.65541275 392.71870896 6.08497143 392.73409081 C-3.2573503 392.8210784 -10.4546382 392.72958889 -17.80042744 386.29242516 C-18.33925556 385.64144859 -18.87808369 384.99047203 -19.43323994 384.31976891 C-19.98753681 383.67137047 -20.54183369 383.02297203 -21.11292744 382.35492516 C-24.09718925 378.02371274 -24.80871582 374.28696506 -24.81550884 369.07335758 C-24.82518218 367.19524168 -24.82518218 367.19524168 -24.83505094 365.27918404 C-24.83210875 363.89237725 -24.82897332 362.50557085 -24.82566547 361.11876488 C-24.82940207 359.64347024 -24.83400363 358.16817759 -24.83939612 356.69288808 C-24.8516404 352.63784362 -24.85136397 348.58288158 -24.84900737 344.52782285 C-24.84859956 340.1548341 -24.85963489 335.7818719 -24.86912251 331.40889549 C-24.88574131 322.84096586 -24.89123245 314.27306374 -24.89234726 305.70511933 C-24.89329732 298.74115304 -24.8974055 291.77719584 -24.90374851 284.81323242 C-24.92136334 265.07245869 -24.93058701 245.33170671 -24.92908756 225.59092506 C-24.92900765 224.52650945 -24.92892774 223.46209383 -24.92884541 222.3654232 C-24.92876364 221.29970911 -24.92868188 220.23399501 -24.92859764 219.13598654 C-24.92778468 201.86311278 -24.94692438 184.59032621 -24.97512214 167.31747767 C-25.0038418 149.58511993 -25.01766294 131.85280473 -25.01593459 114.12042314 C-25.01527037 104.16371912 -25.02077666 94.20710651 -25.04229069 84.25042343 C-25.0604904 75.77321793 -25.06485978 67.29614525 -25.05127184 58.81892868 C-25.04473606 54.49386574 -25.04464689 50.16905772 -25.06197834 45.84401894 C-25.07768733 41.88312171 -25.07486794 37.922682 -25.05741008 33.96179608 C-25.05433536 32.53045129 -25.0579904 31.09907253 -25.06913023 29.66776779 C-25.1350243 20.5992864 -24.7718944 14.06569369 -18.59339619 7.01508141 C-17.94241962 6.47625328 -17.29144306 5.93742516 -16.62073994 5.38226891 C-15.9723415 4.82797203 -15.32394306 4.27367516 -14.65589619 3.70258141 C-9.93276091 0.44827963 -5.61890187 -0.03299062 0 0 Z M-6.55823994 19.25726891 C-8.51947955 22.66173215 -8.80762176 25.61264317 -8.80433559 29.49524975 C-8.80831769 30.53629008 -8.81229979 31.57733041 -8.81640255 32.64991742 C-8.81057687 33.78707391 -8.80475119 34.9242304 -8.79874897 36.09584618 C-8.80045782 37.3088498 -8.80216667 38.52185342 -8.8039273 39.77161473 C-8.80665204 43.13527076 -8.80040136 46.49869408 -8.79037118 49.86232197 C-8.78173469 53.49076145 -8.78465698 57.11919374 -8.78617573 60.74764061 C-8.78722445 67.03308185 -8.78094915 73.31848156 -8.76970005 79.60391235 C-8.75344633 88.69158534 -8.74823718 97.77923824 -8.74572407 106.86692419 C-8.74134676 121.61106415 -8.7280367 136.35518198 -8.70911884 151.09930992 C-8.69076096 165.42189994 -8.67660401 179.74448395 -8.66810322 194.06708336 C-8.66757777 194.94992043 -8.66705232 195.83275751 -8.66651095 196.74234722 C-8.66390088 201.1712791 -8.66137346 205.60021102 -8.65888715 210.02914298 C-8.63815355 246.77187127 -8.60128319 283.51455864 -8.55823994 320.25726891 C25.76176006 320.25726891 60.08176006 320.25726891 95.44176006 320.25726891 C95.44176006 316.29726891 95.44176006 312.33726891 95.44176006 308.25726891 C96.57613506 307.90664391 97.71051006 307.55601891 98.87926006 307.19476891 C103.74218896 305.55304411 108.53871214 303.75457642 113.31676006 301.88226891 C114.06626934 301.60246178 114.81577862 301.32265465 115.5880003 301.03436852 C120.0953626 299.23213735 122.3925349 297.88619241 124.44176006 293.25726891 C125.01926006 292.12289391 125.59676006 290.98851891 126.19176006 289.81976891 C128.14782479 284.24498442 126.50374951 279.97605934 124.37535381 274.64008141 C123.97252178 273.62172203 123.56968975 272.60336266 123.15465069 271.55414391 C122.73377178 270.50742516 122.31289288 269.46070641 121.87926006 268.38226891 C121.45451397 267.31234703 121.02976788 266.24242516 120.59215069 265.14008141 C119.54729158 262.51032364 118.49702224 259.88286549 117.44176006 257.25726891 C122.54624828 251.07592021 128.12470949 245.45904013 133.81676006 239.81976891 C134.743596 238.89744469 135.67043194 237.97512047 136.62535381 237.02484703 C138.89521852 234.76668266 141.16739544 232.51089949 143.44176006 230.25726891 C144.46914288 230.64398766 145.49652569 231.03070641 146.55504131 231.42914391 C149.42412251 232.50882355 152.29570031 233.58158268 155.16832256 234.65180016 C157.71683337 235.60311622 160.24890903 236.57767113 162.77769756 237.58148766 C163.71871319 237.94887047 164.65972881 238.31625328 165.62926006 238.69476891 C166.85709209 239.18783531 166.85709209 239.18783531 168.10972881 239.69086266 C170.92908013 240.37562972 172.65756421 240.00939764 175.44176006 239.25726891 C176.17136944 239.11031578 176.90097881 238.96336266 177.65269756 238.81195641 C182.02659461 237.43820535 184.00230344 235.9727834 186.43785381 232.00726891 C188.31931468 228.1765334 189.8899177 224.23010967 191.44176006 220.25726891 C191.87746319 219.22215172 192.31316631 218.18703453 192.76207256 217.12055016 C194.71827201 212.82650829 194.71827201 212.82650829 195.44176006 208.25726891 C208.64176006 208.25726891 221.84176006 208.25726891 235.44176006 208.25726891 C236.43176006 211.22726891 237.42176006 214.19726891 238.44176006 217.25726891 C242.08349214 228.50667181 242.08349214 228.50667181 249.19957256 237.56586266 C255.37575051 240.53614987 259.73664574 240.50407648 266.23424053 238.31757164 C267.16639385 237.94575768 268.09854717 237.57394371 269.05894756 237.19086266 C270.07730694 236.78803062 271.09566631 236.38519859 272.14488506 235.97015953 C273.19160381 235.54928062 274.23832256 235.12840172 275.31676006 234.69476891 C276.38668194 234.27002281 277.45660381 233.84527672 278.55894756 233.40765953 C281.18870532 232.36280042 283.81616348 231.31253108 286.44176006 230.25726891 C292.62310875 235.36175713 298.23998884 240.94021833 303.87926006 246.63226891 C304.80158428 247.55910484 305.7239085 248.48594078 306.67418194 249.44086266 C308.93234631 251.71072736 311.18812948 253.98290428 313.44176006 256.25726891 C313.05504131 257.28465172 312.66832256 258.31203453 312.26988506 259.37055016 C311.19020542 262.23963135 310.11744629 265.11120915 309.04722881 267.98383141 C308.09591275 270.53234221 307.12135784 273.06441787 306.11754131 275.59320641 C305.7501585 276.53422203 305.38277569 277.47523766 305.00426006 278.44476891 C304.67554913 279.26332359 304.34683819 280.08187828 304.00816631 280.92523766 C303.32339924 283.74458897 303.68963132 285.47307305 304.44176006 288.25726891 C304.58871319 288.98687828 304.73566631 289.71648766 304.88707256 290.46820641 C306.26082362 294.84210346 307.72624557 296.81781229 311.69176006 299.25336266 C315.52249557 301.13482352 319.4689193 302.70542654 323.44176006 304.25726891 C324.47687725 304.69297203 325.51199444 305.12867516 326.57847881 305.57758141 C330.87252067 307.53378085 330.87252067 307.53378085 335.44176006 308.25726891 C335.44176006 312.21726891 335.44176006 316.17726891 335.44176006 320.25726891 C369.76176006 320.25726891 404.08176006 320.25726891 439.44176006 320.25726891 C439.50788157 282.65074447 439.56327977 245.0442748 439.59495605 207.43770888 C439.59870823 202.99914415 439.60259119 198.56057954 439.60655499 194.122015 C439.60734192 193.23836689 439.60812885 192.35471878 439.60893963 191.44429345 C439.6219979 177.1314381 439.64565406 162.81861884 439.67321845 148.50578491 C439.70126093 133.82237706 439.71793387 119.13898814 439.72402555 104.4555546 C439.72814439 95.39316432 439.74115918 86.33087609 439.76550946 77.26851721 C439.78135236 71.05633976 439.78616371 64.84421516 439.7822642 58.63201897 C439.78034039 55.04648384 439.78331483 51.46112719 439.79937649 47.8756237 C439.81665978 43.98904974 439.81073087 40.10270894 439.80252361 36.21610069 C439.81126214 35.08185705 439.82000066 33.9476134 439.82900399 32.77899873 C439.83184577 25.05619336 439.83184577 25.05619336 436.44176006 18.25726891 C432.31546473 16.08622074 428.71063498 16.00585289 424.09657669 16.00279331 C422.99655308 15.99798359 422.99655308 15.99798359 421.87430677 15.99307671 C419.40961586 15.98475563 416.94516663 15.99070833 414.48047161 15.99657249 C412.6985171 15.99355278 410.91656389 15.9896642 409.13461298 15.98497993 C404.23199128 15.9746681 399.32944244 15.97688983 394.42681468 15.98116052 C389.14179509 15.98362196 383.85679332 15.97462086 378.5717802 15.96712303 C368.21580172 15.95435798 357.85984914 15.95258457 347.50386412 15.95492329 C339.08869915 15.95670453 330.67354206 15.95496101 322.25837803 15.95069885 C321.06183176 15.95010366 319.86528549 15.94950847 318.63248025 15.94889525 C316.2018983 15.94768353 313.77131636 15.9464694 311.34073441 15.94525287 C288.53454863 15.93437046 265.72837763 15.9365432 242.92219102 15.94263772 C222.04612973 15.94780803 201.17011509 15.93654965 180.29406304 15.9175395 C158.87109626 15.89818048 137.44815157 15.88990166 116.02517599 15.89366275 C103.99275264 15.89557767 91.960369 15.89305893 79.92795277 15.87894821 C69.68523158 15.86705812 59.44257456 15.86560285 49.19985253 15.87773838 C43.97181984 15.88364364 38.74390463 15.88468112 33.51587963 15.87273598 C28.73234639 15.86193322 23.94902953 15.86491334 19.16550665 15.87899766 C17.4327211 15.88166011 15.6999189 15.87922986 13.96714962 15.8712618 C11.61543168 15.86119604 9.26447177 15.86954271 6.91278458 15.8825388 C5.6054598 15.88248378 4.29813502 15.88242876 2.95119435 15.88237208 C-0.94490563 16.29857463 -3.30982094 17.0708332 -6.55823994 19.25726891 Z M207.44176006 224.25726891 C206.83590069 225.85957359 206.23004131 227.46187828 205.60582256 229.11273766 C204.76126407 231.22413389 203.91480911 233.33477224 203.06676006 235.44476891 C202.673596 236.49986656 202.28043194 237.55496422 201.87535381 238.64203453 C199.63846423 244.09660375 197.94002131 247.56920815 192.53941631 250.25336266 C190.84565665 250.93505526 189.1466939 251.60402529 187.44176006 252.25726891 C186.20777917 252.94300437 184.98371154 253.64710847 183.77379131 254.37445641 C177.01292167 257.75113936 172.69353434 258.97213722 165.29722881 256.63226891 C159.53311629 254.49099721 153.94874197 251.98904463 148.44176006 249.25726891 C143.91560014 252.93558908 140.04751007 256.66813253 136.44176006 261.25726891 C136.74581768 261.87021812 137.0498753 262.48316734 137.36314678 263.11469078 C146.90890998 282.92483498 146.90890998 282.92483498 144.17271709 291.10883141 C143.08900018 293.59155082 141.91329757 295.99830061 140.51964092 298.32269859 C139.36015154 300.30354077 139.36015154 300.30354077 138.45958233 302.74652672 C136.3219717 307.95072536 134.51285337 310.72746953 129.35972881 313.20258141 C127.46313473 313.96384408 125.55214057 314.69008358 123.62926006 315.38226891 C122.65021709 315.76640953 121.67117413 316.15055016 120.66246319 316.54633141 C118.26568346 317.48166008 115.86149789 318.38346581 113.44176006 319.25726891 C113.44176006 319.58726891 113.44176006 319.91726891 113.44176006 320.25726891 C125.98176006 320.25726891 138.52176006 320.25726891 151.44176006 320.25726891 C152.76176006 315.63726891 154.08176006 311.01726891 155.44176006 306.25726891 C156.58206986 303.4015149 157.67535363 300.77763482 159.06676006 298.06976891 C159.40666973 297.40469322 159.7465794 296.73961754 160.09678936 296.05438805 C167.7151396 281.82213536 180.41449387 272.66465445 195.44176006 267.25726891 C212.9314369 262.18018336 232.05909662 264.23276544 247.92979717 272.86737633 C262.24945162 281.14485767 270.34788994 293.19186776 276.44176006 308.25726891 C277.43176006 312.21726891 278.42176006 316.17726891 279.44176006 320.25726891 C291.98176006 320.25726891 304.52176006 320.25726891 317.44176006 320.25726891 C315.30508765 318.1205965 314.07222091 317.63542959 311.26597881 316.66351891 C295.74193838 310.98262554 295.74193838 310.98262554 293.12926006 305.75726891 C292.55615906 303.92722175 291.9948322 302.0934684 291.44176006 300.25726891 C290.8114085 299.13965172 290.18105694 298.02203453 289.53160381 296.87055016 C286.72278757 291.67495717 284.81603837 287.25059947 286.06285381 281.2860775 C288.25545316 274.35528802 291.21464315 267.76280826 294.44176006 261.25726891 C290.76343989 256.73110898 287.03089644 252.86301891 282.44176006 249.25726891 C281.87594219 249.58227379 281.31012432 249.90727867 280.72716045 250.24213219 C271.68702422 255.19451528 262.93294182 259.64067876 252.52379131 256.97992516 C250.26572242 256.19666917 248.02823154 255.35127812 245.81676006 254.44476891 C244.75723125 254.01760582 243.69770245 253.59044273 242.6060667 253.15033531 C235.1621892 249.66371059 232.25729964 245.85550151 229.44176006 238.25726891 C228.84770031 236.90816731 228.24800155 235.56152524 227.64097881 234.21820641 C226.24123923 230.89789391 224.84149965 227.57758141 223.44176006 224.25726891 C218.16176006 224.25726891 212.88176006 224.25726891 207.44176006 224.25726891 Z M178.51988506 297.69867516 C172.97049191 304.5311047 170.55912997 311.78778928 168.44176006 320.25726891 C199.46176006 320.25726891 230.48176006 320.25726891 262.44176006 320.25726891 C258.18126572 306.41066228 253.1176171 295.15349429 240.44176006 287.42914391 C218.42459317 276.09030296 195.74225204 279.84401848 178.51988506 297.69867516 Z M-8.55823994 336.25726891 C-10.94337911 364.60502454 -10.94337911 364.60502454 -5.55823994 374.25726891 C-1.61536119 376.66199214 2.2501109 376.50873613 6.78694344 376.5117445 C7.52029251 376.51495098 8.25364158 376.51815746 9.00921336 376.5214611 C11.47390426 376.52978218 13.9383535 376.52382948 16.40304852 376.51796532 C18.18500302 376.52098504 19.96695624 376.52487361 21.74890715 376.52955788 C26.65152885 376.53986971 31.55407768 376.53764798 36.45670545 376.53337729 C41.74172503 376.53091585 47.02672681 376.53991696 52.31173992 376.54741478 C62.66771841 376.56017983 73.02367098 376.56195324 83.37965601 376.55961452 C91.79482098 376.55783329 100.20997807 376.5595768 108.6251421 376.56383896 C109.82168837 376.56443415 111.01823463 376.56502934 112.25103988 376.56564256 C114.68162183 376.56685428 117.11220377 376.56806841 119.54278571 376.56928494 C142.34897149 376.58016735 165.15514249 376.57799461 187.96132911 376.57190009 C208.83739039 376.56672978 229.71340503 376.57798816 250.58945709 376.59699831 C272.01242386 376.61635733 293.43536855 376.62463615 314.85834414 376.62087506 C326.89076749 376.61896014 338.92315113 376.62147888 350.95556736 376.6355896 C361.19828854 376.64747969 371.44094557 376.64893497 381.68366759 376.63679943 C386.91170029 376.63089417 392.1396155 376.62985669 397.3676405 376.64180183 C402.15117374 376.65260459 406.93449059 376.64962447 411.71801347 376.63554015 C413.45079902 376.6328777 415.18360123 376.63530795 416.9163705 376.64327601 C419.26808845 376.65334177 421.61904835 376.6449951 423.97073555 376.63199902 C425.27806033 376.63205403 426.5853851 376.63210905 427.93232578 376.63216573 C431.82842576 376.21596318 434.19334107 375.44370461 437.44176006 373.25726891 C442.02893191 361.78933928 439.44176006 348.60860711 439.44176006 336.25726891 C291.60176006 336.25726891 143.76176006 336.25726891 -8.55823994 336.25726891 Z M174.44176006 392.25726891 C172.58684108 397.07796393 170.90717529 401.83898659 169.54063702 406.82514 C169.20051083 408.05936699 168.86038464 409.29359398 168.50995159 410.56522179 C168.14982509 411.88700739 167.78985869 413.20883662 167.43004131 414.53070641 C167.05343912 415.9046063 166.67657826 417.2784353 166.29947186 418.65219688 C165.51470033 421.51421629 164.73249933 424.37692138 163.95225811 427.24017906 C162.95116922 430.91336271 161.9444287 434.58496856 160.93589783 438.25611496 C160.15931717 441.08478757 159.38526815 443.91414787 158.61203861 446.74373817 C158.24152007 448.09874385 157.87030848 449.45356021 157.49839497 450.80818367 C156.98131576 452.69335634 156.46791542 454.57953693 155.95469952 456.465765 C155.66174496 457.53861748 155.3687904 458.61146996 155.06695843 459.71683311 C154.36210383 462.14490545 154.36210383 462.14490545 154.44176006 464.25726891 C194.70176006 464.25726891 234.96176006 464.25726891 276.44176006 464.25726891 C273.97139676 454.3758157 271.48081343 444.52288558 268.80504131 434.69867516 C268.4801321 433.50290352 268.15522289 432.30713188 267.82046795 431.07512474 C267.14326959 428.58538922 266.46519035 426.09589314 265.78624249 423.60663414 C265.09106471 421.05567543 264.397295 418.50438983 263.70616436 415.95233727 C262.70082483 412.24185779 261.69104704 408.53261421 260.68004131 404.82367516 C260.36964413 403.67597145 260.05924694 402.52826775 259.73944378 401.34578514 C259.30845631 399.771651 259.30845631 399.771651 258.86876202 398.16571617 C258.61657406 397.23912697 258.3643861 396.31253777 258.10455608 395.3578701 C257.6304254 393.29207936 257.6304254 393.29207936 256.44176006 392.25726891 C253.88586118 392.16220839 251.35708035 392.13170129 248.80089092 392.14374352 C248.00095211 392.14359749 247.2010133 392.14345146 246.37683392 392.14330101 C243.72006342 392.14400035 241.06336214 392.15179372 238.40660381 392.15961266 C236.56957316 392.16147676 234.732542 392.1629007 232.89551067 392.16390038 C228.05066344 392.16772616 223.20584599 392.17755695 218.36101055 392.18860435 C213.42113428 392.19881719 208.48125321 392.20339772 203.54136944 392.20844078 C193.84148653 392.21917916 184.14162577 392.2362563 174.44176006 392.25726891 Z " fill="#FFFFFF" transform="translate(40.55823993682861,15.742731094360352)"/>
<path d="M0 0 C0.96574331 -0.00679667 0.96574331 -0.00679667 1.95099658 -0.01373065 C4.10035462 -0.02635324 6.24945857 -0.0247557 8.39884949 -0.02310181 C9.94324061 -0.02908844 11.48762873 -0.0358943 13.03201294 -0.04345703 C17.22221905 -0.06111142 21.41234346 -0.0658122 25.60258317 -0.0670886 C28.22236557 -0.06851118 30.84212727 -0.07278283 33.46190453 -0.07808304 C42.6069152 -0.0965821 51.7518676 -0.10475389 60.89689636 -0.10317993 C69.41239357 -0.10197886 77.92763718 -0.12307478 86.44307023 -0.15466726 C93.76129432 -0.18084749 101.07943567 -0.19154648 108.39770621 -0.19026911 C112.765328 -0.18975995 117.13272443 -0.19541748 121.50029945 -0.21662521 C125.61015651 -0.23603691 129.71957392 -0.23611227 133.82944679 -0.22159195 C135.33383834 -0.21950631 136.83825762 -0.22419021 138.34260178 -0.23631287 C147.49883263 -0.30529126 154.50132179 -0.07287525 161.69645691 6.23226929 C162.23528503 6.88324585 162.77411316 7.53422241 163.32926941 8.20492554 C163.88356628 8.85332397 164.43786316 9.50172241 165.00895691 10.16976929 C167.77603772 14.18577576 168.70393636 17.7546864 168.72169495 22.59831238 C168.7344899 24.18155556 168.7344899 24.18155556 168.74754333 25.79678345 C168.74618378 27.51825592 168.74618378 27.51825592 168.74479675 29.27450562 C168.75151398 30.4913353 168.7582312 31.70816498 168.76515198 32.96186829 C168.78088069 36.29265813 168.7875062 39.62319859 168.78878355 42.95400834 C168.79020746 45.03776184 168.79448162 47.12148939 168.79977798 49.20523643 C168.81827011 56.48290027 168.82644976 63.76049094 168.82487488 71.03817749 C168.82367417 77.80869169 168.84476437 84.57888675 168.8763622 91.34932023 C168.90256669 97.17286762 168.91324041 102.99631105 168.91196406 108.8199169 C168.91145558 112.29330054 168.91707472 115.76640051 168.93832016 119.23972511 C168.96139173 123.11732926 168.9521561 126.99450038 168.94010925 130.87216187 C168.95134827 132.01373749 168.96258728 133.15531311 168.97416687 134.33148193 C168.91281952 142.11202735 167.7594661 147.49569015 162.48942566 153.50961304 C161.8384491 154.04844116 161.18747253 154.58726929 160.51676941 155.14242554 C159.86837097 155.69672241 159.21997253 156.25101929 158.55192566 156.82211304 C154.09712639 159.8915278 150.26885854 160.51923035 144.90853882 160.53485107 C144.26470995 160.53938219 143.62088108 160.5439133 142.95754224 160.54858172 C140.8081842 160.56120432 138.65908025 160.55960677 136.50968933 160.55795288 C134.96529821 160.56393952 133.42091008 160.57074538 131.87652588 160.57830811 C127.68631976 160.59596249 123.49619536 160.60066327 119.30595565 160.60193968 C116.68617324 160.60336226 114.06641155 160.6076339 111.44663429 160.61293411 C102.30162362 160.63143317 93.15667122 160.63960496 84.01164246 160.63803101 C75.49614525 160.63682993 66.98090164 160.65792585 58.46546859 160.68951833 C51.1472445 160.71569857 43.82910315 160.72639756 36.51083261 160.72512019 C32.14321081 160.72461103 27.77581439 160.73026856 23.40823936 160.75147629 C19.2983823 160.77088799 15.1889649 160.77096335 11.07909203 160.75644302 C9.57470047 160.75435738 8.0702812 160.75904128 6.56593704 160.77116394 C-2.59029381 160.84014234 -9.59278297 160.60772633 -16.78791809 154.30258179 C-17.59616028 153.32611694 -17.59616028 153.32611694 -18.42073059 152.32992554 C-18.97502747 151.6815271 -19.52932434 151.03312866 -20.10041809 150.36508179 C-22.8674989 146.34907532 -23.79539754 142.78016468 -23.81315613 137.9365387 C-23.8216861 136.88104324 -23.83021606 135.82554779 -23.83900452 134.73806763 C-23.83809814 133.59041931 -23.83719177 132.442771 -23.83625793 131.26034546 C-23.84297516 130.04351578 -23.84969238 128.8266861 -23.85661316 127.57298279 C-23.87234187 124.24219294 -23.87896738 120.91165249 -23.88024473 117.58084273 C-23.88166864 115.49708923 -23.8859428 113.41336168 -23.89123917 111.32961464 C-23.90973129 104.05195081 -23.91791094 96.77436013 -23.91633606 89.49667358 C-23.91513535 82.72615938 -23.93622555 75.95596432 -23.96782339 69.18553084 C-23.99402787 63.36198345 -24.00470159 57.53854002 -24.00342524 51.71493417 C-24.00291676 48.24155054 -24.0085359 44.76845056 -24.02978134 41.29512596 C-24.05285291 37.41752181 -24.04361728 33.54035069 -24.03157043 29.66268921 C-24.04280945 28.52111359 -24.05404846 27.37953796 -24.06562805 26.20336914 C-24.0042807 18.42282372 -22.85092728 13.03916092 -17.58088684 7.02523804 C-16.92991028 6.48640991 -16.27893372 5.94758179 -15.60823059 5.39242554 C-14.95983215 4.83812866 -14.31143372 4.28383179 -13.64338684 3.71273804 C-9.18858757 0.64332327 -5.36031972 0.01562072 0 0 Z M-5.54573059 19.26742554 C-8.3263324 23.69111024 -7.54573059 26.62867185 -7.54573059 32.26742554 C45.25426941 32.26742554 98.05426941 32.26742554 152.45426941 32.26742554 C152.70740186 24.46024643 152.70740186 24.46024643 149.45426941 18.26742554 C145.71243551 16.34716432 142.5980762 16.01488874 138.42657471 16.00672913 C136.61181389 15.99610191 136.61181389 15.99610191 134.76039124 15.98526001 C132.78173569 15.98897614 132.78173569 15.98897614 130.7631073 15.99276733 C129.35340098 15.98841793 127.94369703 15.98323401 126.53399658 15.97727966 C122.71167095 15.96390324 118.88944428 15.96330945 115.06709981 15.96584296 C111.8737596 15.96691355 108.68043934 15.96202707 105.4871034 15.95723754 C97.95246188 15.94614714 90.41787022 15.94570238 82.88322449 15.95175171 C75.11525974 15.95779254 67.34747607 15.94547671 59.57954222 15.92418164 C52.90508116 15.90655833 46.23067771 15.90056541 39.55619425 15.90381938 C35.57209151 15.90563116 31.58811796 15.90300663 27.60403633 15.88910484 C23.85701426 15.87651911 20.11027425 15.87847747 16.36325645 15.89151573 C14.33672219 15.89500453 12.31017929 15.88370916 10.28367615 15.87194824 C9.07101578 15.87896255 7.85835541 15.88597687 6.60894775 15.89320374 C5.03412675 15.89295212 5.03412675 15.89295212 3.42749119 15.89269543 C-0.09986366 16.33726572 -2.5049131 17.45130143 -5.54573059 19.26742554 Z M-7.54573059 48.26742554 C-7.60760559 62.66367554 -7.66948059 77.05992554 -7.73323059 91.89242554 C-7.7605426 96.43202026 -7.78785461 100.97161499 -7.81599426 105.64877319 C-7.8260298 109.73084681 -7.8260298 109.73084681 -7.83206177 113.81292725 C-7.83665762 115.62601939 -7.84718634 117.43910257 -7.86245728 119.25213623 C-7.88447235 122.00430137 -7.88744677 124.75590796 -7.88630676 127.50814819 C-7.89710109 128.31097544 -7.90789541 129.11380268 -7.91901684 129.94095802 C-7.89247364 134.74000355 -7.37179241 138.20074114 -4.54573059 142.26742554 C-0.80219148 144.18473796 2.30989038 144.51996121 6.48196411 144.52812195 C7.69180466 144.53520676 8.9016452 144.54229156 10.14814758 144.54959106 C12.12680313 144.54587494 12.12680313 144.54587494 14.14543152 144.54208374 C15.55513783 144.54643315 16.96484179 144.55161706 18.37454224 144.55757141 C22.19686787 144.57094783 26.01909454 144.57154162 29.84143901 144.56900811 C33.03477922 144.56793752 36.22809948 144.57282401 39.42143542 144.57761353 C46.95607694 144.58870393 54.4906686 144.5891487 62.02531433 144.58309937 C69.79327908 144.57705853 77.56106274 144.58937437 85.3289966 144.61066943 C92.00345766 144.62829275 98.67786111 144.63428566 105.35234457 144.63103169 C109.33644731 144.62921992 113.32042086 144.63184445 117.30450249 144.64574623 C121.05152456 144.65833197 124.79826457 144.65637361 128.54528236 144.64333534 C130.57181663 144.63984655 132.59835953 144.65114192 134.62486267 144.66290283 C135.83752304 144.65588852 137.05018341 144.64887421 138.29959106 144.64164734 C139.87441206 144.64189895 139.87441206 144.64189895 141.48104763 144.64215565 C145.00748277 144.19770127 147.41339743 143.08133816 150.45426941 141.26742554 C153.10196895 137.08977713 152.72411103 132.41691768 152.68132019 127.62167358 C152.6816818 126.31236106 152.6816818 126.31236106 152.6820507 124.97659779 C152.68056199 122.16067504 152.66534946 119.34501947 152.64958191 116.52914429 C152.64664011 114.78683601 152.64460051 113.04452597 152.64347839 111.30221558 C152.63300697 104.85309188 152.60508446 98.40400606 152.57926941 91.95492554 C152.51739441 70.32961304 152.51739441 70.32961304 152.45426941 48.26742554 C99.65426941 48.26742554 46.85426941 48.26742554 -7.54573059 48.26742554 Z " fill="#FFFFFF" transform="translate(79.54573059082031,47.732574462890625)"/>
<path d="M0 0 C16.92178829 14.58509218 26.82250863 33.91198661 30.32421875 55.84375 C30.32421875 62.44375 30.32421875 69.04375 30.32421875 75.84375 C3.92421875 75.84375 -22.47578125 75.84375 -49.67578125 75.84375 C-49.67578125 102.24375 -49.67578125 128.64375 -49.67578125 155.84375 C-79.20469828 155.84375 -100.5694599 150.00749026 -121.61328125 129.40625 C-126.8761134 124.04517832 -131.13670156 118.50292513 -134.67578125 111.84375 C-135.58263672 110.16732422 -135.58263672 110.16732422 -136.5078125 108.45703125 C-146.71497319 88.70450748 -149.38782503 64.50128033 -143.1328125 43.04296875 C-139.0936505 30.77317208 -133.41284706 19.41569098 -124.67578125 9.84375 C-123.89203125 8.8125 -123.10828125 7.78125 -122.30078125 6.71875 C-90.52526626 -28.08300452 -35.58854401 -28.67865152 0 0 Z M-101.67578125 10.84375 C-96.84639782 17.53186519 -91.65156527 23.04465039 -85.3671875 28.37890625 C-81.22310607 31.96789132 -77.68019759 35.98140218 -74.14453125 40.1484375 C-71.20941567 43.53631027 -68.08393291 46.51056497 -64.61328125 49.34375 C-61.87540007 51.67386165 -59.89189966 54.03666668 -57.67578125 56.84375 C-54.25991731 60.10478387 -51.71480547 60.21051141 -47.07128906 60.18432617 C-46.09017906 60.18498329 -46.09017906 60.18498329 -45.08924866 60.18565369 C-42.9354935 60.18356997 -40.78252477 60.16026015 -38.62890625 60.13671875 C-37.13247096 60.13112127 -35.63603016 60.12685189 -34.1395874 60.12385559 C-30.20705909 60.11241864 -26.27486487 60.08296169 -22.34246826 60.04974365 C-18.32731648 60.01901778 -14.31211054 60.00534489 -10.296875 59.99023438 C-2.42302403 59.9580906 5.45055577 59.90690849 13.32421875 59.84375 C13.1863772 58.42646828 13.04283779 57.00974014 12.89697266 55.59326172 C12.8176651 54.80426483 12.73835754 54.01526794 12.65664673 53.20236206 C12.14884909 49.59948347 11.01334831 46.34787993 9.69921875 42.96875 C9.43705566 42.28256592 9.17489258 41.59638184 8.90478516 40.8894043 C5.67136273 32.75832586 1.07104132 25.44673185 -4.67578125 18.84375 C-5.33578125 18.84375 -5.99578125 18.84375 -6.67578125 18.84375 C-6.90007812 18.27269531 -7.124375 17.70164062 -7.35546875 17.11328125 C-13.3979169 6.72670617 -29.60509624 0.65757165 -40.6875 -2.30078125 C-62.70733018 -7.43802849 -83.49114565 -1.93464258 -101.67578125 10.84375 Z M-114.67578125 23.84375 C-125.07846708 37.15499534 -131.48667901 55.82627244 -129.67578125 72.84375 C-127.30792478 90.42829653 -121.08389577 107.49696381 -107.67578125 119.84375 C-107.01578125 119.84375 -106.35578125 119.84375 -105.67578125 119.84375 C-105.34578125 120.83375 -105.01578125 121.82375 -104.67578125 122.84375 C-102.66062207 124.41342147 -100.70097492 125.79580575 -98.55078125 127.15625 C-97.92913086 127.55070312 -97.30748047 127.94515625 -96.66699219 128.3515625 C-88.5999607 133.30719765 -79.96513907 137.54924372 -70.44042969 138.41210938 C-69.09921051 138.53652405 -69.09921051 138.53652405 -67.730896 138.66345215 C-67.05270813 138.72295044 -66.37452026 138.78244873 -65.67578125 138.84375 C-65.51312614 130.24637119 -65.3889808 121.64964193 -65.31309605 113.05110168 C-65.27666247 109.05776374 -65.22729947 105.06548328 -65.14770508 101.07275391 C-65.07128279 97.21471878 -65.02971677 93.35769639 -65.01164055 89.4989624 C-64.99877037 88.03171861 -64.97363645 86.56452627 -64.93567085 85.09771729 C-64.61010989 75.31516948 -64.61010989 75.31516948 -69.09350586 66.87890625 C-71.47606302 64.38559102 -71.47606302 64.38559102 -74.67578125 63.84375 C-74.89234375 63.30234375 -75.10890625 62.7609375 -75.33203125 62.203125 C-77.14078122 59.02729656 -79.59301924 56.63646919 -82.17578125 54.09375 C-82.67464844 53.58714844 -83.17351562 53.08054687 -83.6875 52.55859375 C-86.20639762 49.71569401 -86.20639762 49.71569401 -89.67578125 48.84375 C-90.01609375 47.9775 -90.01609375 47.9775 -90.36328125 47.09375 C-92.01978638 44.25402692 -94.10146113 42.89150464 -96.67578125 40.84375 C-98.28560436 39.01242788 -99.82505154 37.14176409 -101.34375 35.234375 C-101.78332031 34.77546875 -102.22289062 34.3165625 -102.67578125 33.84375 C-103.33578125 33.84375 -103.99578125 33.84375 -104.67578125 33.84375 C-104.98515625 33.039375 -104.98515625 33.039375 -105.30078125 32.21875 C-107.20828551 28.92396991 -109.72397509 26.25011372 -112.67578125 23.84375 C-113.33578125 23.84375 -113.99578125 23.84375 -114.67578125 23.84375 Z " fill="#FFFFFF" transform="translate(409.67578125,68.15625)"/>
<path d="M0 0 C26.4 0 52.8 0 80 0 C80 22.37676493 77.20198023 40.25091558 62 57 C61.39671875 57.68320313 60.7934375 58.36640625 60.171875 59.0703125 C49.25940143 70.7369001 34.55185647 77.36173864 19 80 C12.73 80 6.46 80 0 80 C0 53.6 0 27.2 0 0 Z M16 16 C16 31.51 16 47.02 16 63 C22.99969663 62.22225593 27.15832767 61.49165482 33.0625 58.375 C33.75859375 58.0138208 34.4546875 57.6526416 35.171875 57.28051758 C47.83886223 50.51181908 55.63524239 40.24000572 61.08984375 27.01953125 C62.32259625 23.23502577 62.32259625 23.23502577 63 16 C47.49 16 31.98 16 16 16 Z " fill="#FFFFFF" transform="translate(376,160)"/>
<path d="M0 0 C31.68 0 63.36 0 96 0 C96 5.28 96 10.56 96 16 C64.32 16 32.64 16 0 16 C0 10.72 0 5.44 0 0 Z " fill="#FFFFFF" transform="translate(56,232)"/>
<path d="M0 0 C26.4 0 52.8 0 80 0 C80 5.28 80 10.56 80 16 C53.6 16 27.2 16 0 16 C0 10.72 0 5.44 0 0 Z " fill="#FFFFFF" transform="translate(376,296)"/>
<path d="M0 0 C26.4 0 52.8 0 80 0 C80 5.28 80 10.56 80 16 C53.6 16 27.2 16 0 16 C0 10.72 0 5.44 0 0 Z " fill="#FFFFFF" transform="translate(376,264)"/>
<path d="M0 0 C23.76 0 47.52 0 72 0 C72 5.28 72 10.56 72 16 C48.24 16 24.48 16 0 16 C0 10.72 0 5.44 0 0 Z " fill="#FFFFFF" transform="translate(56,296)"/>
<path d="M0 0 C23.76 0 47.52 0 72 0 C72 5.28 72 10.56 72 16 C48.24 16 24.48 16 0 16 C0 10.72 0 5.44 0 0 Z " fill="#FFFFFF" transform="translate(56,264)"/>
<path d="M0 0 C5.12562291 3.58666417 9.13456275 7.08984998 13 12 C15.3997693 14.51975776 17.74949883 16.8058616 20.5 18.9375 C22.55496097 20.6328428 24.02924927 22.14507975 25.6875 24.1875 C27.69390251 27.01647233 27.69390251 27.01647233 30 28 C30 32 30 32 28.4609375 33.67578125 C27.77257812 34.21589844 27.08421875 34.75601563 26.375 35.3125 C23.63961491 37.56319405 21.23556783 39.75185723 19 42.5 C16.29346459 45.78598337 13.27407052 48.47051523 10.03515625 51.22265625 C6.86548828 53.99079238 3.93277234 56.98474344 1 60 C-0.06816445 59.13192399 -1.12918085 58.25505217 -2.1875 57.375 C-3.07501953 56.64410156 -3.07501953 56.64410156 -3.98046875 55.8984375 C-6.54686166 53.48592888 -8.74508093 50.70590288 -11 48 C-5.39 42.39 0.22 36.78 6 31 C4.27370154 27.54740307 3.16774527 25.92761399 0.5234375 23.328125 C-0.146875 22.66425781 -0.8171875 22.00039062 -1.5078125 21.31640625 C-2.20648438 20.63449219 -2.90515625 19.95257813 -3.625 19.25 C-4.33140625 18.55261719 -5.0378125 17.85523438 -5.765625 17.13671875 C-7.50598703 15.41987512 -9.25084981 13.70788168 -11 12 C-10.06122074 10.8934059 -9.12079084 9.78821201 -8.1796875 8.68359375 C-7.39440674 7.76018188 -7.39440674 7.76018188 -6.59326172 6.81811523 C-4.4984209 4.42763415 -2.28027529 2.21320837 0 0 Z " fill="#FFFFFF" transform="translate(189,114)"/>
<path d="M0 0 C1.10816566 0.9264712 2.21297428 1.85695849 3.31640625 2.7890625 C4.23981812 3.56564209 4.23981812 3.56564209 5.18188477 4.35791016 C7.76746936 6.69316489 9.84955686 9.26307237 12 12 C11.52054932 12.46897705 11.04109863 12.9379541 10.54711914 13.42114258 C8.38036553 15.54635426 6.22138371 17.67929545 4.0625 19.8125 C2.93038086 20.91948242 2.93038086 20.91948242 1.77539062 22.04882812 C1.05673828 22.76103516 0.33808594 23.47324219 -0.40234375 24.20703125 C-1.06741943 24.8616333 -1.73249512 25.51623535 -2.41772461 26.19067383 C-4.22027203 28.01669757 -4.22027203 28.01669757 -5 31 C-4.55269531 31.37511719 -4.10539062 31.75023437 -3.64453125 32.13671875 C2.43141311 37.27989553 7.48971729 42.42787376 12 49 C8.37 52.63 4.74 56.26 1 60 C-5.74080425 54.47349666 -11.8071129 48.30550441 -17.9375 42.125 C-19.01343727 41.04403726 -20.08960731 39.96330617 -21.16601562 38.8828125 C-23.78003292 36.25787359 -26.39088596 33.62981372 -29 31 C-27.34763349 26.70932454 -24.1094793 23.8570447 -20.8984375 20.703125 C-20.30197418 20.10949158 -19.70551086 19.51585815 -19.0909729 18.90423584 C-17.1903019 17.01473373 -15.28278526 15.13231608 -13.375 13.25 C-12.08287532 11.96790935 -10.79120324 10.68536239 -9.5 9.40234375 C-6.33855521 6.26291568 -3.1709539 3.12982199 0 0 Z " fill="#FFFFFF" transform="translate(114,114)"/>
<path d="M0 0 C3.66172475 0.62678171 6.8818995 1.64451846 10.3125 3.0625 C11.19550781 3.42472656 12.07851562 3.78695312 12.98828125 4.16015625 C13.98408203 4.57587891 13.98408203 4.57587891 15 5 C14.38199104 9.88530399 12.92430924 14.19483917 11.09375 18.734375 C10.80898804 19.45361145 10.52422607 20.1728479 10.23083496 20.91387939 C9.32608966 23.19483166 8.41307517 25.47237133 7.5 27.75 C6.88619446 29.29536477 6.27290789 30.84093579 5.66015625 32.38671875 C1.22138715 43.55722571 1.22138715 43.55722571 0 46 C-1.54372819 45.56983068 -3.08489087 45.13045174 -4.625 44.6875 C-5.48351562 44.44386719 -6.34203125 44.20023438 -7.2265625 43.94921875 C-10.31294887 42.89289215 -13.11274326 41.5113646 -16 40 C-10.96901411 26.53078897 -5.6766455 13.21027875 0 0 Z " fill="#FFFFFF" transform="translate(152,125)"/>
</svg>
